<svg xmlns="http://www.w3.org/2000/svg" width="271" height="15" viewBox="0 0 271 15"><path fill="#FFF" d="M7.176,14.568 C8.984,14.568 10.568,13.968 11.928,12.768 C12.008,12.688 12.048,12.596 12.048,12.492 C12.048,12.388 12,12.304 11.904,12.24 L11.904,12.24 L11.304,11.736 C11.128,11.592 10.952,11.592 10.776,11.736 C9.736,12.648 8.536,13.104 7.176,13.104 C5.64,13.104 4.328,12.54 3.24,11.412 C2.152,10.284 1.608,8.92 1.608,7.32 C1.608,5.72 2.152,4.352 3.24,3.216 C4.328,2.08 5.64,1.512 7.176,1.512 C8.744,1.512 10.08,2.096 11.184,3.264 C11.344,3.44 11.52,3.464 11.712,3.336 L11.712,3.336 L12.36,2.88 C12.456,2.816 12.512,2.736 12.528,2.64 C12.544,2.544 12.512,2.456 12.432,2.376 C11.76,1.64 10.968,1.072 10.056,0.672 C9.144,0.272 8.184,0.072 7.176,0.072 C5.192,0.072 3.5,0.78 2.1,2.196 C0.7,3.612 1.0658141e-14,5.32 1.0658141e-14,7.32 C1.0658141e-14,9.32 0.7,11.028 2.1,12.444 C3.5,13.86 5.192,14.568 7.176,14.568 Z M22.8436364,14.448 C22.9556364,14.448 23.0516364,14.412 23.1316364,14.34 C23.2116364,14.268 23.2516364,14.184 23.2516364,14.088 L23.2516364,14.088 L23.2516364,8.472 C23.2516364,8.408 23.2676364,8.344 23.2996364,8.28 L23.2996364,8.28 L27.9556364,0.768 C28.0036364,0.672 28.0196364,0.584 28.0036364,0.504 C27.9876364,0.424 27.9436364,0.356 27.8716364,0.3 C27.7996364,0.244 27.7076364,0.216 27.5956364,0.216 L27.5956364,0.216 L26.6836364,0.216 C26.5236364,0.216 26.4036364,0.28 26.3236364,0.408 L26.3236364,0.408 L22.5556364,6.504 C22.5396364,6.552 22.5076364,6.576 22.4596364,6.576 C22.4116364,6.576 22.3716364,6.552 22.3396364,6.504 L22.3396364,6.504 L18.5716364,0.408 C18.4916364,0.28 18.3716364,0.216 18.2116364,0.216 L18.2116364,0.216 L17.2996364,0.216 C17.2036364,0.216 17.1156364,0.244 17.0356364,0.3 C16.9556364,0.356 16.9076364,0.424 16.8916364,0.504 C16.8756364,0.584 16.8916364,0.672 16.9396364,0.768 L16.9396364,0.768 L21.5956364,8.28 C21.6276364,8.344 21.6436364,8.408 21.6436364,8.472 L21.6436364,8.472 L21.6436364,14.088 C21.6436364,14.152 21.6636364,14.212 21.7036364,14.268 C21.7436364,14.324 21.7916364,14.368 21.8476364,14.4 C21.9036364,14.432 21.9716364,14.448 22.0516364,14.448 L22.0516364,14.448 L22.8436364,14.448 Z M33.5672727,14.376 C33.6792727,14.376 33.7752727,14.34 33.8552727,14.268 C33.9352727,14.196 33.9752727,14.112 33.9752727,14.016 L33.9752727,14.016 L33.9752727,3.6 C33.9752727,3.552 34.0032727,3.516 34.0592727,3.492 C34.1152727,3.468 34.1592727,3.48 34.1912727,3.528 L34.1912727,3.528 L42.9512727,14.232 C43.0312727,14.328 43.1352727,14.376 43.2632727,14.376 L43.2632727,14.376 L43.7432727,14.376 C43.8072727,14.376 43.8712727,14.36 43.9352727,14.328 C43.9992727,14.296 44.0512727,14.252 44.0912727,14.196 C44.1312727,14.14 44.1512727,14.08 44.1512727,14.016 L44.1512727,14.016 L44.1512727,0.576 C44.1512727,0.48 44.1112727,0.396 44.0312727,0.324 C43.9512727,0.252 43.8552727,0.216 43.7432727,0.216 L43.7432727,0.216 L42.9272727,0.216 C42.8312727,0.216 42.7432727,0.252 42.6632727,0.324 C42.5832727,0.396 42.5432727,0.48 42.5432727,0.576 L42.5432727,0.576 L42.5432727,10.944 C42.5432727,10.992 42.5152727,11.028 42.4592727,11.052 C42.4032727,11.076 42.3512727,11.064 42.3032727,11.016 L42.3032727,11.016 L33.6152727,0.36 C33.5352727,0.264 33.4312727,0.216 33.3032727,0.216 L33.3032727,0.216 L32.7752727,0.216 C32.6632727,0.216 32.5672727,0.252 32.4872727,0.324 C32.4072727,0.396 32.3672727,0.48 32.3672727,0.576 L32.3672727,0.576 L32.3672727,14.016 C32.3672727,14.112 32.4072727,14.196 32.4872727,14.268 C32.5672727,14.34 32.6632727,14.376 32.7752727,14.376 L32.7752727,14.376 L33.5672727,14.376 Z M54.4429091,14.448 C54.5549091,14.448 54.6509091,14.412 54.7309091,14.34 C54.8109091,14.268 54.8509091,14.184 54.8509091,14.088 L54.8509091,14.088 L54.8509091,2.04 C54.8509091,1.944 54.8909091,1.86 54.9709091,1.788 C55.0509091,1.716 55.1469091,1.68 55.2589091,1.68 L55.2589091,1.68 L59.1949091,1.68 C59.3069091,1.68 59.4029091,1.644 59.4829091,1.572 C59.5629091,1.5 59.6029091,1.416 59.6029091,1.32 L59.6029091,1.32 L59.6029091,0.576 C59.6029091,0.48 59.5629091,0.396 59.4829091,0.324 C59.4029091,0.252 59.3069091,0.216 59.1949091,0.216 L59.1949091,0.216 L48.9229091,0.216 C48.8109091,0.216 48.7149091,0.252 48.6349091,0.324 C48.5549091,0.396 48.5149091,0.48 48.5149091,0.576 L48.5149091,0.576 L48.5149091,1.32 C48.5149091,1.384 48.5309091,1.444 48.5629091,1.5 C48.5949091,1.556 48.6429091,1.6 48.7069091,1.632 C48.7709091,1.664 48.8429091,1.68 48.9229091,1.68 L48.9229091,1.68 L52.8349091,1.68 C52.9469091,1.68 53.0429091,1.716 53.1229091,1.788 C53.2029091,1.86 53.2429091,1.944 53.2429091,2.04 L53.2429091,2.04 L53.2429091,14.088 C53.2429091,14.184 53.2829091,14.268 53.3629091,14.34 C53.4429091,14.412 53.5389091,14.448 53.6509091,14.448 L53.6509091,14.448 L54.4429091,14.448 Z M65.1905455,14.376 C65.2865455,14.376 65.3745455,14.344 65.4545455,14.28 C65.5345455,14.216 65.5745455,14.128 65.5745455,14.016 L65.5745455,14.016 L65.5745455,9.312 C65.5745455,9.2 65.6145455,9.112 65.6945455,9.048 C65.7745455,8.984 65.8625455,8.952 65.9585455,8.952 L65.9585455,8.952 L73.6865455,8.952 C73.7985455,8.952 73.8945455,8.984 73.9745455,9.048 C74.0545455,9.112 74.0945455,9.2 74.0945455,9.312 L74.0945455,9.312 L74.0945455,14.016 C74.0945455,14.128 74.1305455,14.216 74.2025455,14.28 C74.2745455,14.344 74.3665455,14.376 74.4785455,14.376 L74.4785455,14.376 L75.294545,14.376 C75.374545,14.376 75.442545,14.36 75.498545,14.328 C75.554545,14.296 75.602545,14.252 75.642545,14.196 C75.682545,14.14 75.702545,14.08 75.702545,14.016 L75.702545,14.016 L75.702545,0.576 C75.702545,0.48 75.662545,0.396 75.582545,0.324 C75.502545,0.252 75.406545,0.216 75.294545,0.216 L75.294545,0.216 L74.4785455,0.216 C74.3665455,0.216 74.2745455,0.252 74.2025455,0.324 C74.1305455,0.396 74.0945455,0.48 74.0945455,0.576 L74.0945455,0.576 L74.0945455,7.128 C74.0945455,7.224 74.0545455,7.308 73.9745455,7.38 C73.8945455,7.452 73.7985455,7.488 73.6865455,7.488 L73.6865455,7.488 L65.9585455,7.488 C65.8625455,7.488 65.7745455,7.452 65.6945455,7.38 C65.6145455,7.308 65.5745455,7.224 65.5745455,7.128 L65.5745455,7.128 L65.5745455,0.552 C65.5745455,0.456 65.5345455,0.372 65.4545455,0.3 C65.3745455,0.228 65.2865455,0.192 65.1905455,0.192 L65.1905455,0.192 L64.3505455,0.192 C64.2545455,0.192 64.1665455,0.228 64.0865455,0.3 C64.0065455,0.372 63.9665455,0.456 63.9665455,0.552 L63.9665455,0.552 L63.9665455,14.016 C63.9665455,14.128 64.0065455,14.216 64.0865455,14.28 C64.1665455,14.344 64.2545455,14.376 64.3505455,14.376 L64.3505455,14.376 L65.1905455,14.376 Z M83.690182,14.376 C83.786182,14.376 83.874182,14.344 83.954182,14.28 C84.034182,14.216 84.074182,14.128 84.074182,14.016 L84.074182,14.016 L84.074182,0.576 C84.074182,0.48 84.034182,0.396 83.954182,0.324 C83.874182,0.252 83.786182,0.216 83.690182,0.216 L83.690182,0.216 L82.850182,0.216 C82.786182,0.216 82.722182,0.232 82.658182,0.264 C82.594182,0.296 82.546182,0.34 82.514182,0.396 C82.482182,0.452 82.466182,0.512 82.466182,0.576 L82.466182,0.576 L82.466182,14.016 C82.466182,14.128 82.506182,14.216 82.586182,14.28 C82.666182,14.344 82.754182,14.376 82.850182,14.376 L82.850182,14.376 L83.690182,14.376 Z M90.909818,14.376 C91.085818,14.376 91.205818,14.296 91.269818,14.136 L91.269818,14.136 L92.133818,12 C92.197818,11.856 92.325818,11.784 92.517818,11.784 L92.517818,11.784 L99.501818,11.784 C99.693818,11.784 99.821818,11.856 99.885818,12 L99.885818,12 L100.749818,14.136 C100.813818,14.296 100.933818,14.376 101.109818,14.376 L101.109818,14.376 L101.973818,14.376 C102.117818,14.376 102.229818,14.324 102.309818,14.22 C102.389818,14.116 102.405818,14.008 102.357818,13.896 L102.357818,13.896 L96.957818,0.6 C96.861818,0.344 96.669818,0.216 96.381818,0.216 L96.381818,0.216 L95.637818,0.216 C95.349818,0.216 95.149818,0.344 95.037818,0.6 L95.037818,0.6 L89.661818,13.896 C89.613818,14.008 89.629818,14.116 89.709818,14.22 C89.789818,14.324 89.901818,14.376 90.045818,14.376 L90.045818,14.376 L90.909818,14.376 Z M98.973818,10.32 L93.021818,10.32 C92.973818,10.32 92.937818,10.3 92.913818,10.26 C92.889818,10.22 92.885818,10.184 92.901818,10.152 L92.901818,10.152 L95.877818,2.784 C95.893818,2.736 95.937818,2.712 96.009818,2.712 C96.081818,2.712 96.125818,2.736 96.141818,2.784 L96.141818,2.784 L99.117818,10.152 C99.133818,10.184 99.125818,10.22 99.093818,10.26 C99.061818,10.3 99.021818,10.32 98.973818,10.32 L98.973818,10.32 Z M117.877091,14.376 C117.925091,14.376 117.973091,14.368 118.021091,14.352 C118.069091,14.336 118.109091,14.316 118.141091,14.292 C118.173091,14.268 118.201091,14.232 118.225091,14.184 C118.249091,14.136 118.261091,14.096 118.261091,14.064 L118.261091,14.064 L119.053091,4.224 C119.069091,4.16 119.105091,4.124 119.161091,4.116 C119.217091,4.108 119.253091,4.128 119.269091,4.176 L119.269091,4.176 L123.733091,12.576 C123.813091,12.72 123.937091,12.792 124.105091,12.792 C124.273091,12.792 124.389091,12.72 124.453091,12.576 L124.453091,12.576 L128.917091,4.176 C128.949091,4.128 128.993091,4.108 129.049091,4.116 C129.105091,4.124 129.133091,4.16 129.133091,4.224 L129.133091,4.224 L129.925091,14.064 C129.941091,14.144 129.985091,14.216 130.057091,14.28 C130.129091,14.344 130.221091,14.376 130.333091,14.376 L130.333091,14.376 L131.149091,14.376 C131.261091,14.376 131.357091,14.34 131.437091,14.268 C131.517091,14.196 131.549091,14.104 131.533091,13.992 L131.533091,13.992 L130.453091,0.552 C130.453091,0.456 130.413091,0.376 130.333091,0.312 C130.253091,0.248 130.165091,0.216 130.069091,0.216 L130.069091,0.216 L129.493091,0.216 C129.317091,0.216 129.197091,0.288 129.133091,0.432 L129.133091,0.432 L124.213091,9.696 C124.181091,9.728 124.141091,9.744 124.093091,9.744 C124.045091,9.744 124.013091,9.728 123.997091,9.696 L123.997091,9.696 L119.077091,0.432 C118.997091,0.288 118.877091,0.216 118.717091,0.216 L118.717091,0.216 L118.141091,0.216 C118.077091,0.216 118.013091,0.232 117.949091,0.264 C117.885091,0.296 117.837091,0.336 117.805091,0.384 C117.773091,0.432 117.749091,0.488 117.733091,0.552 L117.733091,0.552 L116.653091,13.992 C116.653091,14.104 116.689091,14.196 116.761091,14.268 C116.833091,14.34 116.925091,14.376 117.037091,14.376 L117.037091,14.376 L117.877091,14.376 Z M143.096727,14.568 C144.904727,14.568 146.488727,13.968 147.848727,12.768 C147.928727,12.688 147.968727,12.596 147.968727,12.492 C147.968727,12.388 147.920727,12.304 147.824727,12.24 L147.824727,12.24 L147.224727,11.736 C147.048727,11.592 146.872727,11.592 146.696727,11.736 C145.656727,12.648 144.456727,13.104 143.096727,13.104 C141.560727,13.104 140.248727,12.54 139.160727,11.412 C138.072727,10.284 137.528727,8.92 137.528727,7.32 C137.528727,5.72 138.072727,4.352 139.160727,3.216 C140.248727,2.08 141.560727,1.512 143.096727,1.512 C144.664727,1.512 146.000727,2.096 147.104727,3.264 C147.264727,3.44 147.440727,3.464 147.632727,3.336 L147.632727,3.336 L148.280727,2.88 C148.376727,2.816 148.432727,2.736 148.448727,2.64 C148.464727,2.544 148.432727,2.456 148.352727,2.376 C147.680727,1.64 146.888727,1.072 145.976727,0.672 C145.064727,0.272 144.104727,0.072 143.096727,0.072 C141.112727,0.072 139.420727,0.78 138.020727,2.196 C136.620727,3.612 135.920727,5.32 135.920727,7.32 C135.920727,9.32 136.620727,11.028 138.020727,12.444 C139.420727,13.86 141.112727,14.568 143.096727,14.568 Z M161.620364,14.376 C161.684364,14.376 161.748364,14.36 161.812364,14.328 C161.876364,14.296 161.924364,14.252 161.956364,14.196 C161.988364,14.14 162.004364,14.08 162.004364,14.016 L162.004364,14.016 L162.004364,13.272 C162.004364,13.176 161.968364,13.096 161.896364,13.032 C161.824364,12.968 161.732364,12.936 161.620364,12.936 L161.620364,12.936 L154.804364,12.936 C154.708364,12.936 154.620364,12.9 154.540364,12.828 C154.460364,12.756 154.420364,12.672 154.420364,12.576 L154.420364,12.576 L154.420364,0.576 C154.420364,0.48 154.380364,0.396 154.300364,0.324 C154.220364,0.252 154.132364,0.216 154.036364,0.216 L154.036364,0.216 L153.196364,0.216 C153.100364,0.216 153.012364,0.252 152.932364,0.324 C152.852364,0.396 152.812364,0.48 152.812364,0.576 L152.812364,0.576 L152.812364,14.016 C152.812364,14.128 152.852364,14.216 152.932364,14.28 C153.012364,14.344 153.100364,14.376 153.196364,14.376 L153.196364,14.376 L161.620364,14.376 Z M172.116,14.544 C174.028,14.544 175.66,13.84 177.012,12.432 C178.364,11.024 179.04,9.328 179.04,7.344 C179.04,5.36 178.364,3.664 177.012,2.256 C175.66,0.848 174.024,0.144 172.104,0.144 C170.184,0.144 168.544,0.848 167.184,2.256 C165.84,3.664 165.168,5.36 165.168,7.344 C165.168,9.328 165.848,11.024 167.208,12.432 C168.568,13.84 170.204,14.544 172.116,14.544 Z M172.104,13.104 C170.632,13.104 169.376,12.54 168.336,11.412 C167.296,10.284 166.776,8.928 166.776,7.344 C166.776,5.76 167.296,4.408 168.336,3.288 C169.376,2.168 170.632,1.608 172.104,1.608 C173.576,1.608 174.832,2.168 175.872,3.288 C176.912,4.408 177.432,5.76 177.432,7.344 C177.432,8.384 177.196,9.348 176.724,10.236 C176.252,11.124 175.604,11.824 174.78,12.336 C173.956,12.848 173.064,13.104 172.104,13.104 Z M190.543636,14.568 C192.247636,14.568 193.703636,13.992 194.911636,12.84 C196.119636,11.688 196.723636,10.304 196.723636,8.688 L196.723636,8.688 L196.699636,0.576 C196.699636,0.512 196.679636,0.452 196.639636,0.396 C196.599636,0.34 196.551636,0.296 196.495636,0.264 C196.439636,0.232 196.371636,0.216 196.291636,0.216 L196.291636,0.216 L195.499636,0.216 C195.419636,0.216 195.347636,0.232 195.283636,0.264 C195.219636,0.296 195.171636,0.34 195.139636,0.396 C195.107636,0.452 195.091636,0.512 195.091636,0.576 L195.091636,0.576 L195.091636,8.688 C195.107636,9.904 194.667636,10.948 193.771636,11.82 C192.875636,12.692 191.799636,13.128 190.543636,13.128 C189.287636,13.128 188.215636,12.692 187.327636,11.82 C186.439636,10.948 185.995636,9.904 185.995636,8.688 L185.995636,8.688 L185.971636,0.576 C185.971636,0.48 185.931636,0.396 185.851636,0.324 C185.771636,0.252 185.675636,0.216 185.563636,0.216 L185.563636,0.216 L184.771636,0.216 C184.691636,0.216 184.619636,0.232 184.555636,0.264 C184.491636,0.296 184.443636,0.34 184.411636,0.396 C184.379636,0.452 184.363636,0.512 184.363636,0.576 L184.363636,0.576 L184.387636,8.688 C184.387636,10.304 184.987636,11.688 186.187636,12.84 C187.387636,13.992 188.839636,14.568 190.543636,14.568 Z M208.383273,14.616 C209.775273,14.616 211.055273,14.248 212.223273,13.512 L212.223273,13.512 L212.223273,13.992 C212.223273,14.088 212.263273,14.172 212.343273,14.244 C212.423273,14.316 212.519273,14.352 212.631273,14.352 L212.631273,14.352 L213.447273,14.352 C213.559273,14.352 213.651273,14.316 213.723273,14.244 C213.795273,14.172 213.831273,14.088 213.831273,13.992 L213.831273,13.992 L213.831273,7.776 C213.831273,7.68 213.795273,7.596 213.723273,7.524 C213.651273,7.452 213.559273,7.416 213.447273,7.416 L213.447273,7.416 L208.407273,7.416 C208.295273,7.416 208.199273,7.452 208.119273,7.524 C208.039273,7.596 207.999273,7.68 207.999273,7.776 L207.999273,7.776 L207.999273,8.52 C207.999273,8.616 208.039273,8.7 208.119273,8.772 C208.199273,8.844 208.295273,8.88 208.407273,8.88 L208.407273,8.88 L211.839273,8.88 C211.903273,8.88 211.967273,8.896 212.031273,8.928 C212.095273,8.96 212.143273,9.004 212.175273,9.06 C212.207273,9.116 212.223273,9.176 212.223273,9.24 L212.223273,9.24 L212.223273,11.448 C212.223273,11.544 212.183273,11.632 212.103273,11.712 C211.047273,12.672 209.807273,13.152 208.383273,13.152 C206.815273,13.152 205.475273,12.58 204.363273,11.436 C203.251273,10.292 202.695273,8.916 202.695273,7.308 C202.695273,5.7 203.251273,4.324 204.363273,3.18 C205.475273,2.036 206.815273,1.464 208.383273,1.464 C209.967273,1.464 211.319273,2.056 212.439273,3.24 C212.599273,3.416 212.783273,3.432 212.991273,3.288 L212.991273,3.288 L213.639273,2.856 C213.719273,2.792 213.767273,2.708 213.783273,2.604 C213.799273,2.5 213.775273,2.408 213.711273,2.328 C213.247273,1.832 212.731273,1.412 212.163273,1.068 C211.595273,0.724 210.991273,0.46 210.351273,0.276 C209.711273,0.092 209.055273,0 208.383273,0 C206.367273,0 204.647273,0.716 203.223273,2.148 C201.799273,3.58 201.087273,5.3 201.087273,7.308 C201.087273,9.316 201.799273,11.036 203.223273,12.468 C204.647273,13.9 206.367273,14.616 208.383273,14.616 Z M220.378909,14.376 C220.474909,14.376 220.562909,14.344 220.642909,14.28 C220.722909,14.216 220.762909,14.128 220.762909,14.016 L220.762909,14.016 L220.762909,9.312 C220.762909,9.2 220.802909,9.112 220.882909,9.048 C220.962909,8.984 221.050909,8.952 221.146909,8.952 L221.146909,8.952 L228.874909,8.952 C228.986909,8.952 229.082909,8.984 229.162909,9.048 C229.242909,9.112 229.282909,9.2 229.282909,9.312 L229.282909,9.312 L229.282909,14.016 C229.282909,14.128 229.318909,14.216 229.390909,14.28 C229.462909,14.344 229.554909,14.376 229.666909,14.376 L229.666909,14.376 L230.482909,14.376 C230.562909,14.376 230.630909,14.36 230.686909,14.328 C230.742909,14.296 230.790909,14.252 230.830909,14.196 C230.870909,14.14 230.890909,14.08 230.890909,14.016 L230.890909,14.016 L230.890909,0.576 C230.890909,0.48 230.850909,0.396 230.770909,0.324 C230.690909,0.252 230.594909,0.216 230.482909,0.216 L230.482909,0.216 L229.666909,0.216 C229.554909,0.216 229.462909,0.252 229.390909,0.324 C229.318909,0.396 229.282909,0.48 229.282909,0.576 L229.282909,0.576 L229.282909,7.128 C229.282909,7.224 229.242909,7.308 229.162909,7.38 C229.082909,7.452 228.986909,7.488 228.874909,7.488 L228.874909,7.488 L221.146909,7.488 C221.050909,7.488 220.962909,7.452 220.882909,7.38 C220.802909,7.308 220.762909,7.224 220.762909,7.128 L220.762909,7.128 L220.762909,0.552 C220.762909,0.456 220.722909,0.372 220.642909,0.3 C220.562909,0.228 220.474909,0.192 220.378909,0.192 L220.378909,0.192 L219.538909,0.192 C219.442909,0.192 219.354909,0.228 219.274909,0.3 C219.194909,0.372 219.154909,0.456 219.154909,0.552 L219.154909,0.552 L219.154909,14.016 C219.154909,14.128 219.194909,14.216 219.274909,14.28 C219.354909,14.344 219.442909,14.376 219.538909,14.376 L219.538909,14.376 L220.378909,14.376 Z M245.262545,14.376 C245.326545,14.376 245.390545,14.36 245.454545,14.328 C245.518545,14.296 245.566545,14.252 245.598545,14.196 C245.630545,14.14 245.646545,14.08 245.646545,14.016 L245.646545,14.016 L245.646545,13.272 C245.646545,13.176 245.610545,13.096 245.538545,13.032 C245.466545,12.968 245.374545,12.936 245.262545,12.936 L245.262545,12.936 L238.446545,12.936 C238.350545,12.936 238.262545,12.9 238.182545,12.828 C238.102545,12.756 238.062545,12.672 238.062545,12.576 L238.062545,12.576 L238.062545,0.576 C238.062545,0.48 238.022545,0.396 237.942545,0.324 C237.862545,0.252 237.774545,0.216 237.678545,0.216 L237.678545,0.216 L236.838545,0.216 C236.742545,0.216 236.654545,0.252 236.574545,0.324 C236.494545,0.396 236.454545,0.48 236.454545,0.576 L236.454545,0.576 L236.454545,14.016 C236.454545,14.128 236.494545,14.216 236.574545,14.28 C236.654545,14.344 236.742545,14.376 236.838545,14.376 L236.838545,14.376 L245.262545,14.376 Z M252.434182,14.376 C252.530182,14.376 252.618182,14.344 252.698182,14.28 C252.778182,14.216 252.818182,14.128 252.818182,14.016 L252.818182,14.016 L252.818182,0.576 C252.818182,0.48 252.778182,0.396 252.698182,0.324 C252.618182,0.252 252.530182,0.216 252.434182,0.216 L252.434182,0.216 L251.594182,0.216 C251.530182,0.216 251.466182,0.232 251.402182,0.264 C251.338182,0.296 251.290182,0.34 251.258182,0.396 C251.226182,0.452 251.210182,0.512 251.210182,0.576 L251.210182,0.576 L251.210182,14.016 C251.210182,14.128 251.250182,14.216 251.330182,14.28 C251.410182,14.344 251.498182,14.376 251.594182,14.376 L251.594182,14.376 L252.434182,14.376 Z M259.581818,14.376 C259.693818,14.376 259.789818,14.34 259.869818,14.268 C259.949818,14.196 259.989818,14.112 259.989818,14.016 L259.989818,14.016 L259.989818,3.6 C259.989818,3.552 260.017818,3.516 260.073818,3.492 C260.129818,3.468 260.173818,3.48 260.205818,3.528 L260.205818,3.528 L268.965818,14.232 C269.045818,14.328 269.149818,14.376 269.277818,14.376 L269.277818,14.376 L269.757818,14.376 C269.821818,14.376 269.885818,14.36 269.949818,14.328 C270.013818,14.296 270.065818,14.252 270.105818,14.196 C270.145818,14.14 270.165818,14.08 270.165818,14.016 L270.165818,14.016 L270.165818,0.576 C270.165818,0.48 270.125818,0.396 270.045818,0.324 C269.965818,0.252 269.869818,0.216 269.757818,0.216 L269.757818,0.216 L268.941818,0.216 C268.845818,0.216 268.757818,0.252 268.677818,0.324 C268.597818,0.396 268.557818,0.48 268.557818,0.576 L268.557818,0.576 L268.557818,10.944 C268.557818,10.992 268.529818,11.028 268.473818,11.052 C268.417818,11.076 268.365818,11.064 268.317818,11.016 L268.317818,11.016 L259.629818,0.36 C259.549818,0.264 259.445818,0.216 259.317818,0.216 L259.317818,0.216 L258.789818,0.216 C258.677818,0.216 258.581818,0.252 258.501818,0.324 C258.421818,0.396 258.381818,0.48 258.381818,0.576 L258.381818,0.576 L258.381818,14.016 C258.381818,14.112 258.421818,14.196 258.501818,14.268 C258.581818,14.34 258.677818,14.376 258.789818,14.376 L258.789818,14.376 L259.581818,14.376 Z"/></svg>