<svg xmlns="http://www.w3.org/2000/svg" xmlns:xlink="http://www.w3.org/1999/xlink" width="135" height="113" viewBox="0 0 135 113"><defs><polygon id="a" points="0 0 135 0 135 113 0 113"/></defs><g fill="none" fill-rule="evenodd"><mask id="b" fill="#fff"><use xlink:href="#a"/></mask><path d="M134.976807,51.3203766 L134.975514,51.2623452 C134.953539,50.09398 134.839786,48.8417917 134.629085,47.4464593 C134.572209,47.0557147 134.472675,46.7629786 134.404165,46.5579344 L133.563945,43.8124051 C133.801792,42.8645592 133.964665,41.9296091 134.04998,40.9933695 C134.307216,38.192388 134.124953,35.4352525 133.509654,32.7967589 C133.005522,30.6328331 132.259665,28.778408 131.229426,27.1290271 C130.367231,25.7478802 129.396454,24.6710756 128.262803,23.8380029 C127.85562,23.5388188 127.482045,23.3789101 127.184736,23.2692953 L125.461639,22.5380999 C124.951044,20.1072297 123.972511,17.7950014 122.535089,15.6594465 C120.371199,12.4445078 117.417503,9.82019971 113.505956,7.63950927 C112.960459,7.3351669 112.464083,7.22813124 112.223651,7.18299572 L111.380846,6.97408274 L111.37309,6.61170899 L108.816236,5.68320685 C108.610706,5.60583167 108.416809,5.53619401 108.224204,5.47687304 L107.03497,5.12094722 C106.501107,4.96103852 105.968537,4.8024194 105.43726,4.63864194 C103.198397,3.94871327 100.79149,3.35808274 98.0808109,2.83193153 L97.9683507,2.81129815 C96.8101399,2.58562054 95.611857,2.35349501 94.4058182,2.15102996 C92.8559356,1.89053352 91.4792676,1.67904137 90.1969627,1.50365763 C88.7996123,1.31408845 87.4397487,1.16062767 85.9338161,0.994271041 L85.689506,0.967189729 C84.4963937,0.835651926 83.2606241,0.698955777 82.011928,0.604815977 C80.1686147,0.465540656 78.1831104,0.324975749 76.1575341,0.23728388 C73.9807181,0.14314408 71.6216391,0.0709272468 68.9471545,0.0180542083 C68.30988,0.00644793153 67.6726055,0 67.0340383,0 C65.3510132,0 63.5206264,0.0399771755 61.2727149,0.125089872 C59.9244851,0.176673324 58.3280673,0.242442225 56.7083818,0.34560913 C55.0835257,0.447486448 53.3979153,0.575155492 51.5558946,0.735064194 C50.4468043,0.830493581 49.3506405,0.956873039 48.2919634,1.07809415 L47.9351931,1.11936091 C46.9928541,1.22768616 46.0505152,1.3463281 45.1120541,1.47657632 L44.6647986,1.53718688 C43.6358524,1.67775178 42.5732973,1.82347504 41.504279,2.00272753 C39.7087937,2.30578031 38.2377625,2.57401427 36.8727283,2.85127532 C35.3564545,3.15819686 33.8699115,3.46769757 32.3458819,3.87262767 C30.9446535,4.24531812 29.558937,4.65798573 28.2197557,5.05904708 C27.7091605,5.21121826 27.1985653,5.36338944 26.6892628,5.51298146 C26.3492969,5.6122796 26.0881824,5.72963195 25.8891149,5.81861341 L23.5726932,6.78322397 L23.5726932,7.10691013 C23.5545961,7.10691013 23.5364991,7.10304137 23.518402,7.10304137 L22.7544482,7.12238516 L22.0913208,7.38159201 C21.9581783,7.43317546 21.7099902,7.53118402 21.4152669,7.69625107 C19.1725261,8.9548873 17.2645805,10.3579572 15.5802627,11.9854151 C13.4978099,14.0010385 11.8858803,16.2745792 10.7884238,18.7454265 C10.1653685,20.149786 9.72069822,21.5979914 9.45312049,23.0681198 C9.36134262,23.0616719 9.2708574,23.0474864 9.18037217,23.0474864 C8.44873452,23.0474864 7.36937507,23.2435036 6.33655089,24.1771641 C5.12792684,25.1791726 4.13129674,26.4339401 3.28849153,28.0123937 C2.18844975,30.0718631 1.47232384,32.3828017 1.09745649,35.0780371 C0.908730166,36.4449986 0.841512572,37.9164165 0.888047829,39.7024936 C0.917778688,40.8489358 1.06901827,42.0276177 1.3534004,43.3081769 C1.44905621,43.7401883 1.56280906,44.1734893 1.68948837,44.6080799 L1.00438597,45.7751555 C0.449840822,46.7204223 0.367111475,47.5702596 0.330917386,47.9403709 L0.263699792,48.6251412 C0.197774844,49.286699 0.131849896,49.9482568 0.0840219926,50.608525 C-0.0478279035,52.4681084 -0.0245602748,54.2812668 0.153824879,55.9977061 C0.442084946,58.7548417 1.27842693,61.3959144 2.64346115,63.847418 C3.7202353,65.783087 5.11241509,67.5498203 6.78509906,69.1334322 L7.18840463,71.1967703 C7.21684284,71.3579686 7.2633781,71.6287817 7.36678978,71.9344137 C7.99243046,73.806893 8.85591802,75.5478345 9.93269217,77.108234 C12.117264,80.2702996 15.0916425,82.7785449 18.7743911,84.5620428 C20.3552972,85.3280571 22.0822723,86.0154066 24.0548502,86.6627789 C25.1186978,87.0122568 26.1864235,87.3320742 27.2205403,87.6428645 L27.8448883,87.8311441 C28.0904911,87.9098088 28.6644259,88.0942197 29.4115753,88.0942197 L29.412868,88.0942197 C30.5529818,89.3812268 31.8792366,90.5676462 33.4691913,91.6895863 C35.7080542,93.2693295 38.3243698,94.6285535 41.4874746,95.8536605 C41.9011214,96.01099 42.256599,96.0664422 42.5060797,96.0948131 L43.0955263,96.1837946 C43.9990859,97.0632924 44.893597,97.8847589 45.7855227,98.648194 C49.6931917,101.99596 54.0326045,105.195424 58.6835449,108.160183 C60.330376,109.209906 62.0121085,110.153883 63.6382572,111.06691 C64.2199479,111.393175 64.800346,111.719441 65.3820367,112.050864 C65.6392733,112.197877 65.8577304,112.288148 66.0025068,112.348759 L67.4825865,113 L68.978178,112.374551 C69.0867602,112.331994 69.3129733,112.244302 69.5753804,112.09471 C70.0601227,111.818739 70.5474503,111.545347 71.0347778,111.273244 C72.1658431,110.638767 73.3343951,109.984947 74.4874354,109.297598 C77.9943841,107.209757 81.4806505,104.818864 85.145302,101.985643 C85.8239412,101.460782 86.5542862,100.883047 87.2988503,100.28081 C87.8107381,100.510357 88.3756244,100.640605 88.9702416,100.640605 L93.2398515,100.640605 C95.5019821,100.640605 97.3543438,98.7926277 97.3543438,96.5358516 C97.3543438,95.7775749 97.1410572,95.0683024 96.7778237,94.4570385 C98.1687108,93.791612 99.4548936,93.0836291 100.646713,92.3098773 C102.565,91.0628474 104.158833,89.7229672 105.495429,88.2425221 L106.555398,87.9910528 C106.784197,87.9394693 106.954826,87.8982026 107.124163,87.8504879 C109.397927,87.2082739 111.387309,86.5609016 113.202184,85.8722625 C115.307905,85.072719 116.9961,84.2628588 118.516252,83.3227504 C121.85645,81.2568331 124.467595,78.5151726 126.276006,75.1725649 C126.772382,74.255669 127.202834,73.2639772 127.593213,72.1433267 C127.977129,71.1451869 127.935764,70.2772953 127.761257,69.5976833 C128.172318,69.2288616 128.56399,68.853592 128.933687,68.4705849 C132.753456,64.505107 134.78808,59.8045649 134.978099,54.4966277 C135.016879,53.4056377 134.996197,52.3455977 134.976807,51.3203766" mask="url(#b)"/><path fill="#FFF" fill-rule="nonzero" d="M88.6154103,42.8439258 C88.4861457,43.0399429 88.4706339,43.2449872 88.4331472,43.4397147 C87.9988181,45.73002 87.5670743,48.0216148 87.1353306,50.3119201 C86.9453116,51.3216662 86.754,52.3314123 86.5652737,53.3424479 C86.4928855,53.7331926 86.5200311,53.7731698 86.9259219,53.8428074 C87.3796407,53.9201826 87.8346521,53.9872411 88.2883708,54.0633267 C89.2177833,54.218077 89.1156643,54.2477375 89.2888789,53.3437375 C89.6159183,51.6311669 89.9377872,49.9173067 90.259656,48.2034465 C90.5479161,46.6701284 90.8374688,45.1368103 91.1205583,43.6022026 C91.1425333,43.4848502 91.1231436,43.3584708 91.1231436,43.2462767 C90.6694248,43.0902368 89.1932231,42.8516633 88.6154103,42.8439258 M104.090969,49.7599772 C104.118114,49.6426248 104.142675,49.5884622 104.140089,49.5368787 C104.134919,49.4272639 104.119407,49.3176491 104.10131,49.2093238 C103.917754,48.0822254 103.338649,47.1833837 102.444138,46.5011926 C100.786965,45.2386876 98.8945316,44.7305906 96.8366391,44.9923766 C95.153614,45.2064479 93.8338223,46.0640228 92.9793833,47.5509158 C92.3343529,48.6715663 92.0086061,49.8876462 92.0305811,51.1836805 C92.0370444,51.5486334 92.078409,51.9187447 92.1585531,52.2746705 C92.4351793,53.5062254 93.1112332,54.501786 94.0923516,55.2742482 C95.5995768,56.4619572 97.3420637,56.9661854 99.2500093,56.8694665 C100.829623,56.7882225 102.035661,56.0170499 102.939221,54.7455178 C103.082705,54.5443424 103.06073,54.4244108 102.839687,54.2954522 C102.233436,53.9472639 101.623307,53.6068131 101.011886,53.2676519 C100.969228,53.2431498 100.907181,53.2547561 100.870987,53.2508873 C100.836086,53.2650728 100.812818,53.2676519 100.802477,53.2805478 C100.688724,53.4236919 100.573679,53.5655464 100.462511,53.7112696 C99.8704794,54.4772839 99.0923064,54.860291 98.1215293,54.8357889 C97.5424238,54.8203138 96.9878787,54.6745906 96.4746982,54.4153837 C95.3604373,53.8531241 94.7451378,52.9568616 94.755479,51.6866191 C94.7645275,50.586602 95.0114229,49.5355892 95.5090916,48.5555036 C96.0830265,47.4284051 97.0253654,46.8919372 98.2908659,46.9319144 C98.8311919,46.948679 99.3534209,47.0737689 99.8394558,47.3007361 C100.686139,47.6940599 101.270415,48.3182197 101.438459,49.2699344 C101.444922,49.3060428 101.452678,49.3421512 101.457849,49.3782596 C101.483702,49.5523538 101.596162,49.6271498 101.759035,49.6464936 C101.832716,49.6555207 101.905104,49.6658374 101.978785,49.6709957 C102.529452,49.7058146 103.080119,49.7432126 103.632079,49.772873 C103.77427,49.7819001 103.919047,49.7651355 104.090969,49.7599772 M77.4107544,41.3415578 C77.4094618,41.3492953 77.4094618,41.3557432 77.4081691,41.3634807 C76.619655,41.2925535 75.8324336,41.2203367 75.0439195,41.1545678 C74.7634153,41.1300656 74.6755154,41.2009929 74.6444919,41.4782539 C74.6082978,41.7890442 74.592786,42.1011241 74.5656405,42.4119144 C74.2954775,45.483709 74.0240218,48.5555036 73.7551514,51.6285877 C73.7034456,52.2114807 73.7150794,52.2243766 74.2760878,52.2733809 C75.7975322,52.4062083 77.3176839,52.5532211 78.8404209,52.6641255 C79.5720586,52.7169986 80.3101595,52.7556862 81.0443824,52.6460713 C81.7979951,52.5338773 82.5192916,52.3288331 83.1578587,51.8955321 C84.0433212,51.2971641 84.6379384,50.4692496 84.9998793,49.4814265 C85.4510128,48.248582 85.5350348,46.9667332 85.3010658,45.6835949 C85.0296102,44.1889643 84.2152432,43.0567076 82.8618428,42.3280913 C82.2025933,41.9721655 81.4903453,41.7967817 80.7561224,41.7090899 C79.6418615,41.5775521 78.5263079,41.4640685 77.4107544,41.3415578 M40.5612938,51.5537917 C40.4242733,51.4622311 40.3467145,51.4209643 40.2807896,51.3655121 C38.6895423,50.0269215 37.1008803,48.6870414 35.5109257,47.3484508 C34.9201864,46.8506705 34.3216913,46.3619173 33.7361227,45.857689 C33.548689,45.6964907 33.3651333,45.6590927 33.128579,45.7222825 C32.6309103,45.8551098 32.1267783,45.9685934 31.6252317,46.0833666 C30.9013499,46.2484337 30.9517631,46.2406961 31.1133439,46.9215977 C31.7376919,49.548485 32.3685032,52.1727932 32.9967291,54.7983909 C33.150554,55.4418944 33.2992083,56.085398 33.4582038,56.727612 C33.5280067,57.004873 33.610736,57.0538773 33.8964108,56.989398 C34.4354442,56.8681769 34.9731849,56.7405078 35.509633,56.60897 C35.9646444,56.4980656 35.9775709,56.4761427 35.8651107,56.0041541 C35.3713199,53.9304993 34.8749438,51.8581341 34.381153,49.7857689 C34.3565928,49.6851812 34.3462516,49.5807247 34.3139354,49.3898659 C34.4574192,49.4827161 34.5336853,49.5201141 34.5970249,49.5742767 C35.7384314,50.5311498 36.8785452,51.490602 38.018659,52.4500542 C39.0178744,53.2895749 40.0196751,54.127806 41.0163052,54.972485 C41.1946903,55.1233666 41.3666122,55.2226648 41.6135076,55.1607646 C42.2740498,54.994408 42.9397625,54.8461056 43.6003046,54.6823281 C43.8575412,54.6178488 43.9027838,54.5353153 43.8549559,54.2890043 C43.8265177,54.1458602 43.7903236,54.0027161 43.7567148,53.859572 C43.2771431,51.8594237 42.7988641,49.8579857 42.320585,47.8578374 C42.0258617,46.6249929 41.7337237,45.3921484 41.4377078,44.1593039 C41.3588564,43.8330385 41.2955167,43.7891926 40.9801111,43.8614094 C40.4048836,43.9916576 39.8322414,44.130933 39.2608918,44.2727874 C39.1587728,44.2985792 39.0644096,44.3579001 38.9506568,44.408194 C38.9661685,44.5319943 38.9687538,44.6403195 38.9933141,44.7434864 C39.1393831,45.3702254 39.2893301,45.9956748 39.439277,46.6211241 C39.7986326,48.120913 40.1605735,49.6219914 40.5173438,51.1230699 C40.5444894,51.2378431 40.5419041,51.3603538 40.5612938,51.5537917 M67.1885095,47.1885421 C67.4767696,47.1137461 67.6305945,47.0699001 67.7870046,47.0325021 C68.3118189,46.9087019 68.808195,46.7152639 69.2528653,46.409632 C70.126694,45.8073951 70.5687789,44.9614265 70.5015613,43.915572 C70.4059055,42.4054665 69.3459358,41.5556291 68.4010115,41.2835264 C68.0494118,41.1816491 67.6823003,41.1094322 67.3177741,41.0836405 C66.6210379,41.0359258 65.9204238,41.0023966 65.2211023,41.0140029 C63.5277359,41.0397946 61.8343696,41.0952468 60.1410033,41.1403823 C59.4403892,41.1584365 59.4378039,41.1597261 59.4559009,41.8586819 C59.5412156,45.0903852 59.6278228,48.323378 59.7131375,51.5550813 C59.7157228,51.6840399 59.7144301,51.8129986 59.7260639,51.9406676 C59.7480389,52.1895578 59.824305,52.2643538 60.0673225,52.2785392 C60.1410033,52.282408 60.2146841,52.2785392 60.288365,52.2772496 C60.8416175,52.2643538 61.3935773,52.2553267 61.9455372,52.2372725 C62.377281,52.2243766 62.4276942,52.170214 62.4238162,51.7601255 C62.4225236,51.5589501 62.4108898,51.356485 62.4057192,51.15402 C62.3785736,50.1081655 62.351428,49.0610214 62.3268678,48.0138773 C62.3229898,47.8720228 62.2855031,47.7159829 62.4936191,47.5767076 C62.7650748,47.5651013 63.0934069,47.5470471 63.4230316,47.5393096 C64.2180089,47.5173866 64.9095746,47.7559601 65.4524859,48.3581969 C66.054859,49.0287817 66.6598173,49.6954979 67.2531418,50.3738203 C67.639643,50.8161484 68.0132177,51.2726619 68.3790365,51.7330442 C68.5522511,51.9509843 68.746148,52.0644679 69.0369934,52.051572 C69.8099957,52.0180428 70.582998,52.0103053 71.3560004,51.9858031 C71.4387297,51.983224 71.5201664,51.9355093 71.6352119,51.8981113 C71.5718723,51.7730214 71.5369708,51.6698545 71.4736312,51.587321 C71.2719784,51.325535 71.0612771,51.0701969 70.8531611,50.8135692 C70.272763,50.0991384 69.6988281,49.3821284 69.1119668,48.6741455 C68.6724672,48.1441255 68.1489455,47.7146933 67.533646,47.4000342 C67.4547946,47.3600571 67.3811138,47.3084736 67.1885095,47.1885421 M51.5009572,41.6704023 C50.7499298,41.6562168 50.0066584,41.7787275 49.2698501,41.9463738 C48.5485536,42.1114408 47.8492321,42.3435663 47.2197135,42.7356006 C45.6426853,43.7182653 44.6809567,45.0981227 44.5297171,46.9822083 C44.4624995,47.8114123 44.515498,48.6328787 44.7197361,49.4401598 C45.0260932,50.6523709 45.6362221,51.6724337 46.6406081,52.4436063 C47.462731,53.0755036 48.3998993,53.4314294 49.4159191,53.5861797 C50.6116167,53.769301 51.7995584,53.6919258 52.9758663,53.4198231 C54.0487625,53.1735121 55.0389294,52.7518174 55.8933684,52.0477033 C56.8964618,51.2210785 57.5285657,50.1739344 57.7470229,48.8882168 C57.9111889,47.9158688 57.8659463,46.955127 57.6293921,45.9956748 C57.1562836,44.0857974 56.0058286,42.7858944 54.163808,42.0895178 C53.3080764,41.7671213 52.4174432,41.6613752 51.5009572,41.6704023 M30.8703264,44.4868588 C31.0060542,44.4713837 31.1159291,44.4739629 31.2154629,44.4430128 C33.8033403,43.653786 36.4209485,42.980622 39.0592391,42.3822539 C41.1054977,41.9180029 43.1608049,41.4975977 45.2290386,41.1429615 C46.9870372,40.8411983 48.7540844,40.5819914 50.5211315,40.3292325 C51.8874584,40.134505 53.2563705,39.9539629 54.6291606,39.813398 C56.6792972,39.6019058 58.7346044,39.4355492 60.7924969,39.305301 C64.7673835,39.0538317 68.7422701,39.0112753 72.7171566,39.2201883 C74.738855,39.3259344 76.7579682,39.4884223 78.7757886,39.6534893 C79.9133171,39.7463395 81.0456751,39.8920628 82.1793257,40.0248902 C83.0014485,40.1216091 83.8235714,40.2299344 84.643109,40.3447076 C85.7909787,40.5046163 86.9414337,40.6554979 88.0841328,40.8489358 C89.6081624,41.1055635 91.1270215,41.3918516 92.6458806,41.680719 C94.5796791,42.0469615 96.4992585,42.4828417 98.411082,42.9561198 C100.250517,43.4113438 102.079611,43.9052553 103.889316,44.4662254 C103.986264,44.4958859 104.096139,44.4868588 104.19438,44.4958859 C104.312011,44.2766562 104.269354,44.0703224 104.261598,43.8730157 C104.177576,41.8728673 104.116822,39.8714294 103.991435,37.8738602 C103.849244,35.6196633 103.652762,33.3680456 103.466621,31.1177175 C103.359331,29.8178146 103.221018,28.5204907 103.105972,27.2218773 C102.979293,25.7955949 102.851321,24.3680228 102.745324,22.9404508 C102.647083,21.621204 102.555305,20.3019572 102.499721,18.9801312 C102.424748,17.1631041 102.460942,15.3434979 102.542379,13.5264708 C102.550135,13.3291641 102.603133,13.1241198 102.475161,12.9061797 C102.323922,12.8507275 102.155878,12.7772211 101.980078,12.7282168 C101.395802,12.5670185 100.810233,12.4058203 100.220786,12.2626762 C98.557151,11.8577461 96.8870523,11.4850556 95.2014419,11.1923195 C93.586927,10.9124793 91.9749973,10.6223224 90.3566045,10.3734322 C89.0833482,10.1774151 87.8049212,10.0213752 86.523909,9.87694151 C84.7503986,9.67705563 82.9755956,9.47845934 81.1969147,9.32757775 C79.5100116,9.18314408 77.8166453,9.10318973 76.1271569,8.99099572 C73.7189573,8.83108702 71.3068798,8.80013695 68.8948023,8.75887019 C66.3353631,8.71502425 63.775924,8.78982026 61.2190701,8.8800913 C58.991841,8.95875606 56.7671972,9.08126676 54.5477239,9.27470471 C53.3740013,9.37658203 52.2002787,9.47845934 51.0278487,9.59710128 C49.9290996,9.70800571 48.8316431,9.82922682 47.7354793,9.96334379 C46.8409682,10.0742482 45.9477498,10.1993381 45.055824,10.3373238 C43.6377913,10.5552639 42.218466,10.7744936 40.8056039,11.0208046 C39.6641974,11.2194009 38.5240836,11.4360514 37.3930183,11.6900999 C35.9581812,12.0124964 34.5311,12.3761598 33.1040188,12.7320856 C32.9139998,12.7798003 32.7084691,12.8171983 32.566278,12.9603424 C32.566278,13.4361997 32.548181,13.8952924 32.5701559,14.351806 C32.6451294,15.8748074 32.672275,17.3990984 32.5895456,18.9233894 C32.5029383,20.5186077 32.4008193,22.113826 32.2844812,23.706465 C32.1810695,25.1172725 32.0556828,26.5255007 31.9277109,27.933729 C31.8049095,29.2877946 31.6549625,30.639281 31.5386244,31.9933466 C31.4067745,33.5292439 31.291729,35.06901 31.1792688,36.6074864 C31.1146365,37.5050385 31.0551748,38.4025906 31.0138101,39.3014322 C30.9414219,40.8979401 30.8845455,42.4944479 30.8244723,44.0922454 C30.8212058,44.2147561 30.8522294,44.3385563 30.8703264,44.4868588 M103.102094,59.7632981 C102.919831,59.6885021 102.789274,59.6188645 102.650961,59.5788873 C101.040324,59.1236633 99.4361503,58.6413581 97.8151721,58.2286904 C96.1929014,57.8160228 94.5577041,57.4536491 92.9199216,57.1093295 C91.5523021,56.8217518 90.1743414,56.5767304 88.7963807,56.3433153 C87.5812935,56.1369815 86.3597429,55.9641769 85.1394851,55.7900827 C84.2462667,55.6637033 83.3517556,55.5476405 82.4546593,55.4509215 C81.2111338,55.3180942 79.965023,55.1955835 78.7176196,55.0885478 C77.561994,54.9892496 76.4063684,54.8938203 75.2481576,54.8332097 C73.6129603,54.7468074 71.9751778,54.6849073 70.3373953,54.6307447 C67.2802874,54.5288673 64.2244722,54.6049529 61.1725349,54.7584137 C59.4261701,54.8473951 57.6810979,54.9737746 55.938611,55.1233666 C54.3253888,55.2626419 52.7134592,55.4264194 51.1079928,55.6353324 C49.3021663,55.8713267 47.5002177,56.1485877 45.7034397,56.4477718 C44.2337012,56.6927932 42.7717185,56.9816605 41.3110285,57.2769757 C39.5258843,57.6367703 37.7536666,58.058465 35.9956679,58.5381912 C34.8077262,58.8631669 33.6275404,59.2178031 32.4434766,59.5621227 C32.2870665,59.6072582 32.1177298,59.6343395 32.0104402,59.8213295 C32.0169034,59.8716234 32.0207814,59.9425506 32.0350005,60.0134779 C32.3297238,61.5648502 32.7020058,63.0981683 33.1402128,64.6160114 C33.9183858,67.3060884 34.929235,69.9007361 36.2580751,72.3702939 C37.9294664,75.4743281 39.9602133,78.3294722 42.2249292,81.0259971 C44.4275981,83.6490157 46.8151153,86.0953609 49.3564574,88.3921141 C52.9228678,91.6160799 56.7077354,94.5653638 60.6839147,97.2683367 C62.7689527,98.685592 64.900526,100.028051 67.1070728,101.251869 C67.4134299,101.420805 67.6551547,101.454334 67.9692677,101.263475 C68.9904581,100.643184 70.042672,100.071897 71.0573991,99.4412896 C75.0490901,96.9627047 78.8430062,94.2120171 82.4637078,91.2188873 C86.0288256,88.270893 89.3716082,85.0972211 92.3873514,81.5856776 C94.1996412,79.477204 95.8749104,77.2681427 97.3536975,74.9120685 C99.0315521,72.2387561 100.397879,69.42101 101.388046,66.4227218 C101.999467,64.5721655 102.495843,62.6932382 102.906905,60.7898088 C102.976708,60.4687019 103.029706,60.1450157 103.102094,59.7632981 M67.5504504,108.88622 C67.4483314,108.841084 67.3604315,108.810134 67.28158,108.764999 C65.0931303,107.515389 62.8697791,106.326391 60.7420837,104.971036 C56.3742328,102.188108 52.2015713,99.1433951 48.2693421,95.7749957 C46.1429394,93.9515207 44.183288,91.9578203 42.3154144,89.8751384 C39.6965136,86.9529358 37.310289,83.8501912 35.1619112,80.568194 C33.3470362,77.7955835 31.733814,74.9120685 30.4127297,71.8699344 C29.4160996,69.5744708 28.6198296,67.2106591 27.9709213,64.7952639 C27.4952276,63.0195036 27.1113117,61.2243994 26.8075399,59.4125307 C26.4300873,57.1660713 26.1676801,54.9041369 26.0086846,52.6305963 C25.8122024,49.8425107 25.7281805,47.0518459 25.7889348,44.258602 C25.8432259,41.7245649 25.9337112,39.1905278 26.131486,36.6616491 C26.3008226,34.5196462 26.4714519,32.3776434 26.653715,30.2356405 C26.7622973,28.9550813 26.9006104,27.6758117 27.0169486,26.3952525 C27.2741851,23.5594522 27.530129,20.7236519 27.6038099,17.8762454 C27.6257848,17.0496205 27.6025172,16.2229957 27.5753716,15.3963709 C27.5146173,13.5058374 27.4396438,11.6153039 27.3698409,9.72348074 C27.3646703,9.57775749 27.3698409,9.43332382 27.3698409,9.26438802 C27.5172026,9.20248787 27.6451745,9.13542939 27.782195,9.09545221 C29.6345568,8.55124679 31.4804553,7.9760913 33.3470362,7.48089016 C34.7676542,7.10304137 36.2115398,6.80256776 37.6528402,6.51112126 C39.1497243,6.20806847 40.6543643,5.93983452 42.1602969,5.68578602 C43.3210931,5.49105849 44.4896451,5.33630813 45.6569044,5.17639943 C46.5682199,5.05001997 47.4821207,4.9339572 48.3960214,4.82950071 C49.5671587,4.69538374 50.7370034,4.557398 51.910726,4.45552068 C53.5976291,4.30979743 55.2871174,4.17954922 56.9778985,4.07251355 C58.4657341,3.97837375 59.9561549,3.91389444 61.4465758,3.85715264 C63.9310415,3.76301284 66.4167998,3.70369187 68.9025582,3.75269615 C71.2784416,3.80041084 73.6530324,3.86617974 76.0250379,3.96934665 C77.938154,4.05188017 79.8486848,4.18470756 81.757923,4.32914123 C83.0247162,4.42457061 84.2876313,4.56771469 85.5505465,4.70699001 C86.940141,4.86045078 88.3310282,5.01520114 89.7167447,5.20477033 C91.0843642,5.39047076 92.4493984,5.60454208 93.8105547,5.83408845 C95.007545,6.03526391 96.2006572,6.26738944 97.3924769,6.49822539 C99.7425074,6.95344936 102.06927,7.50152354 104.357254,8.20692725 C105.289252,8.49321541 106.225127,8.7666077 107.158418,9.05031669 C107.331632,9.10190014 107.499676,9.1715378 107.694866,9.24246505 C107.698744,9.42042796 107.709085,9.58162625 107.703914,9.74282454 C107.640575,11.7442625 107.566894,13.7457004 107.51131,15.7471384 C107.466067,17.4016776 107.49192,19.0536377 107.621185,20.7043081 C107.746572,22.316291 107.857739,23.9282739 107.99476,25.5389672 C108.10722,26.8749786 108.254582,28.2084108 108.378676,29.5431327 C108.491136,30.7501854 108.598425,31.9585278 108.699252,33.1668702 C108.793615,34.3017061 108.891856,35.4365421 108.961659,36.5726676 C109.061193,38.1859401 109.140044,39.8005021 109.220188,41.4150642 C109.34816,44.0226077 109.344282,46.6314408 109.268016,49.2402739 C109.212432,51.0934094 109.109021,52.9478345 108.887978,54.7906534 C108.72769,56.1215064 108.591962,57.4575178 108.386431,58.7806334 C108.089123,60.7046961 107.694866,62.6119943 107.199782,64.4960799 C106.631018,66.6651641 105.94333,68.7955606 105.099233,70.8743738 C104.15043,73.2098146 103.023243,75.4601427 101.743523,77.631806 C98.0917984,83.8334265 93.6386328,89.4018602 88.4060016,94.3500029 C86.6531736,96.0071213 84.7749589,97.5185164 82.868306,98.9925136 C79.5759365,101.538157 76.1672289,103.917444 72.5891847,106.04784 C70.9927668,106.998265 69.3601549,107.88808 67.7443473,108.804976 C67.6965194,108.832057 67.6422283,108.847532 67.5504504,108.88622 M23.6070776,10.8562534 C23.7272936,10.9826328 23.6962701,11.156727 23.7066113,11.3140565 C23.7919259,12.6513575 23.8681921,13.9912377 23.9522141,15.3298282 C24.1125022,17.9206071 24.000042,20.5075173 23.831998,23.0944274 C23.7337569,24.5967954 23.6329305,26.1004531 23.5282262,27.6028211 C23.433863,28.9775201 23.3226954,30.3509295 23.2386734,31.7256285 C23.1275059,33.541366 23.0059972,35.3571036 22.9400722,37.1741307 C22.845709,39.7984388 22.7487606,42.4253261 22.8224414,45.053503 C22.8857811,47.2754602 22.9465354,49.4974174 23.1766264,51.7103475 C23.2490146,52.4054345 23.2981352,53.1018111 23.3744013,53.7956086 C23.4028395,54.0496571 23.3653528,54.2688867 23.1908455,54.4584559 C23.0318501,54.6299709 22.9542913,54.8737027 22.7112739,55.0052405 C22.641471,54.8840194 22.5690828,54.7782733 22.5186696,54.6635001 C20.7322328,50.5136114 18.9341621,46.368881 17.1684076,42.2099652 C16.2570922,40.062804 15.4336767,37.8795344 14.7046243,35.6627355 C14.1410306,33.9514545 13.6562884,32.2195401 13.321493,30.4489381 C12.989283,28.6899424 12.8522625,26.914182 12.9996242,25.128105 C13.1392299,23.432299 13.5709737,21.8022619 14.263832,20.2431521 C15.2087562,18.1140451 16.5634493,16.275095 18.233548,14.660533 C19.7498218,13.1942733 21.4548219,11.979483 23.2916719,10.947814 C23.371816,10.903968 23.4584233,10.873018 23.5424453,10.8394887 C23.5566644,10.8343304 23.5773467,10.8472262 23.6070776,10.8562534 M112.367393,55.0430254 C112.098523,54.7631852 111.918845,54.5065575 111.766313,54.2396131 C111.700388,54.1235504 111.701681,53.9559041 111.712022,53.8153392 C111.736582,53.4852051 111.792166,53.1589398 111.823189,52.8300953 C112.005453,50.9279555 112.138595,49.0232365 112.210983,47.1146488 C112.323444,44.1769712 112.313102,41.2392936 112.189008,38.301616 C112.120498,36.6689997 112.054573,35.0363835 111.956332,33.4050568 C111.849042,31.6086631 111.702973,29.8148485 111.580172,28.0197444 C111.458663,26.2233506 111.350081,24.4282465 111.22728,22.6318528 C111.083796,20.5233792 111.019164,18.4123264 111.09543,16.3012736 C111.145843,14.8698328 111.257011,13.4409712 111.343618,12.01082 C111.365593,11.6278128 111.392738,11.2448057 111.421177,10.8256902 C111.533637,10.8527715 111.626707,10.8566402 111.697803,10.8966174 C114.776886,12.6130568 117.453956,14.7834305 119.438167,17.7314248 C120.695912,19.6000354 121.542595,21.6362922 121.920048,23.8634077 C122.146261,25.1929712 122.194089,26.5264034 122.098433,27.8701524 C121.938145,30.0985575 121.428842,32.2560354 120.78769,34.3877215 C119.955226,37.151305 118.924987,39.8426716 117.800385,42.4966402 C116.247917,46.1655133 114.657962,49.8189113 113.083519,53.4787572 C112.909012,53.8836873 112.734505,54.2886174 112.55612,54.6909683 C112.513462,54.7889769 112.455293,54.8805375 112.367393,55.0430254 M115.605472,61.8938237 C115.487841,61.2902973 115.39477,60.6777438 115.244824,60.0780862 C115.088413,59.4565056 114.90098,58.8400833 114.68123,58.2378465 C114.469236,57.6523743 114.200366,57.0888251 113.941836,56.4801404 C113.947007,56.3047566 114.078857,56.1435583 114.174513,55.9694642 C115.641666,53.2961518 117.108819,50.624129 118.581143,47.9546853 C120.07932,45.2362374 121.574911,42.5164999 122.901166,39.7077809 C123.811189,37.7811389 124.641068,35.8209678 125.248611,33.7743943 C125.604089,32.575079 125.862618,31.35642 125.980249,30.10939 C126.07849,29.0596668 126.035833,28.0202602 125.80962,26.9885912 C125.795401,26.9202431 125.800571,26.8467367 125.794108,26.7268051 C125.907861,26.7745198 125.994468,26.7938636 126.0591,26.8415783 C126.886394,27.4489735 127.523668,28.2304628 128.062702,29.093196 C128.937823,30.4949763 129.498831,32.0244257 129.872406,33.6248023 C130.410147,35.9331618 130.545875,38.2724713 130.330003,40.6298351 C130.178763,42.2869535 129.728922,43.8731447 129.098111,45.4103315 C128.144138,47.7354556 126.843736,49.863273 125.361071,51.8853444 C123.484149,54.4413044 121.351283,56.7702973 119.04391,58.9432502 C118.067963,59.8627252 117.049357,60.7383544 116.047557,61.6307481 C115.927341,61.7364942 115.825222,61.8822174 115.605472,61.8938237 M19.4667323,61.9687486 C19.2767133,61.8191566 19.1603752,61.7327544 19.0505003,61.6399041 C16.1239496,59.1600297 13.3938812,56.4880068 10.980511,53.5039041 C9.40348288,51.5553392 7.98674282,49.4997387 6.84533637,47.263596 C6.06716345,45.7354362 5.43376689,44.1531138 5.06148483,42.4753621 C4.85078353,41.5236474 4.70988511,40.561616 4.68403219,39.5841096 C4.64913075,38.2429398 4.67498367,36.9030596 4.85983205,35.5696274 C5.14292153,33.5359498 5.67161376,31.5770682 6.64497623,29.7548827 C7.20339932,28.7090282 7.89496495,27.7624719 8.82179216,27.0054847 C8.94330089,26.9061866 9.04541993,26.7527258 9.27421828,26.7875447 C9.26516975,26.9100553 9.26904769,27.0351452 9.24578006,27.1537872 C8.99500673,28.4317672 9.03249347,29.7123264 9.2186345,30.991596 C9.53921071,33.1890511 10.2708484,35.265285 11.1188242,37.304121 C12.072797,39.5957158 13.1780093,41.8163835 14.3620731,43.9957843 C16.0890482,47.1771937 17.8470468,50.3418385 19.5895337,53.5142208 C20.0678127,54.383402 20.5292873,55.2616103 21.012737,56.1282123 C21.1420016,56.3616274 21.154928,56.5576445 21.0321267,56.7987971 C20.2901478,58.2508713 19.8312585,59.7945061 19.5869484,61.4039098 C19.5623881,61.562529 19.5197308,61.7198585 19.4667323,61.9687486 M130.832325,47.6334494 C130.884031,47.799806 130.920225,47.8810499 130.933151,47.9661626 C131.099903,49.0752068 131.218826,50.1894094 131.240801,51.3113495 C131.260191,52.3210956 131.280873,53.3321312 131.244679,54.3405877 C131.084391,58.8219001 129.344489,62.6300485 126.248602,65.8436976 C124.939152,67.201632 123.435804,68.323572 121.839387,69.3217118 C118.417753,71.4611355 114.85522,73.3323252 111.127229,74.8875663 C111.014769,74.935281 110.895845,74.9688103 110.682559,75.0436063 C110.78597,74.8695121 110.826042,74.7727932 110.889382,74.6967076 C111.229348,74.2866191 111.58224,73.8855578 111.918328,73.4728902 C113.039052,72.0994807 114.002074,70.6254836 114.724663,69.003184 C115.264989,67.7896833 115.672172,66.5362054 115.864777,65.2182482 C115.875118,65.1460314 115.900971,65.0738146 115.903556,65.0015977 C115.91519,64.6779116 116.098746,64.4767361 116.346934,64.2871669 C118.92447,62.3205478 121.363693,60.1953096 123.641335,57.8882397 C125.348921,56.1589044 126.950509,54.336719 128.325884,52.3275435 C129.285028,50.9270528 130.117492,49.4607932 130.674622,47.8513894 C130.691427,47.8036748 130.735377,47.7662767 130.832325,47.6334494 M24.345437,74.9207087 C24.0649328,74.985188 23.9124006,74.8600981 23.7482345,74.7917501 C21.044019,73.6646516 18.4315814,72.354432 15.8902392,70.898489 C14.3894772,70.038335 12.9029342,69.1562579 11.5029986,68.1349056 C9.22794155,66.475208 7.34067833,64.4699013 5.96659559,62.0003435 C4.85362735,59.9989056 4.16981759,57.8646402 3.93197072,55.5859412 C3.76780468,54.0100668 3.7600488,52.4316131 3.87250901,50.8531595 C3.93326337,49.9930054 4.02891918,49.1341409 4.11164852,48.2752765 C4.12974557,48.0779698 4.15172055,47.8793735 4.28615574,47.6511167 C4.35208069,47.7633107 4.40637182,47.8316588 4.43351739,47.909034 C5.30217553,50.3295874 6.71891559,52.4251652 8.32050403,54.4072593 C10.4792229,57.0754134 12.9326651,59.4572793 15.5386395,61.6831053 C16.6011946,62.590974 17.702529,63.4524177 18.7961075,64.324178 C19.0093941,64.4944034 19.1515852,64.6710767 19.1890719,64.950917 C19.499307,67.2683036 20.3847695,69.3703292 21.6257097,71.3343692 C22.234546,72.3002693 22.924819,73.2068485 23.6719684,74.0708713 C23.8981815,74.3313678 24.1437842,74.5789683 24.345437,74.9207087 M105.465956,84.3702813 C105.613318,84.1433141 105.689584,84.0208034 105.771021,83.9021615 C106.984815,82.1573512 107.788841,80.2461843 108.13527,78.1467378 C108.146904,78.074521 108.162416,78.0023041 108.175342,77.9300873 C108.207659,77.7482556 108.313655,77.6541158 108.497211,77.603822 C109.081487,77.4439133 109.665763,77.2775566 110.242283,77.0918562 C114.977246,75.564986 119.413607,73.4152456 123.587561,70.7200103 C123.754312,70.611685 123.924942,70.5123869 124.10462,70.402772 C124.211909,70.580735 124.124009,70.7187207 124.081352,70.8412314 C123.781458,71.7104126 123.428566,72.5563812 122.991651,73.3649518 C121.461158,76.1943041 119.293391,78.4175509 116.56203,80.1056194 C115.087121,81.0186465 113.511385,81.7227606 111.892992,82.3366037 C110.001851,83.0549033 108.074516,83.6622984 106.129084,84.2116622 C105.954576,84.2606665 105.776191,84.2967749 105.465956,84.3702813 M10.8927404,70.3275892 C15.9146702,73.6147447 21.1511794,76.1088046 26.8426999,77.684679 C26.9422336,78.1463509 27.0301335,78.6118916 27.1464717,79.0709843 C27.2628098,79.5326562 27.3869038,79.9943281 27.5446067,80.4431041 C27.7087727,80.9099344 27.901377,81.3690271 28.1107856,81.8165136 C28.3137311,82.2472354 28.5425294,82.6689301 28.7842542,83.0790185 C29.0246864,83.4852382 29.2987273,83.8734037 29.5792315,84.3028359 C29.3245803,84.3441027 29.1345613,84.2615692 28.9497129,84.206117 C27.7178212,83.8347161 26.4846369,83.4710528 25.2630864,83.0699914 C23.6201333,82.5309444 22.0082037,81.9132325 20.4492726,81.1588245 C17.4619676,79.7119087 14.9594048,77.6937061 13.0656784,74.9520456 C12.1621188,73.6444051 11.4744311,72.229729 10.9715918,70.7234922 C10.9444462,70.6422482 10.9366903,70.5545563 10.8927404,70.3275892 M43.0513178,92.3486939 C42.9621252,92.335798 42.9065415,92.3370876 42.8587136,92.3190334 C40.3290053,91.3402374 37.8988307,90.1680034 35.6754795,88.5985769 C34.2251307,87.575935 32.9014611,86.4165969 31.7833223,85.0328708 C30.3562411,83.2700063 29.399683,81.2866225 29.0261083,79.0453215 C28.8296261,77.8640605 28.7856761,76.6711932 28.9485495,75.4783258 C28.9976701,75.1146625 29.0403274,74.7497096 29.0920332,74.3873358 C29.1023744,74.3189877 29.1359832,74.2545084 29.1566655,74.1951874 C29.3337581,74.1719749 29.3505624,74.3099606 29.3945124,74.3937837 C30.6470864,76.7704913 32.0741677,79.0401632 33.6240503,81.2337495 C36.3360216,85.0715583 39.3776178,88.6308165 42.7346195,91.9205512 C42.8393239,92.0237181 42.937565,92.1320434 43.0370987,92.2403686 C43.0474399,92.2506853 43.0422693,92.2751874 43.0513178,92.3486939 M91.976807,92.3768068 C92.3232362,91.8867641 92.733005,91.5798425 93.0755562,91.2136 C93.4142294,90.8512262 93.7697071,90.5043275 94.1122583,90.144533 C94.467736,89.7731321 94.8193357,89.3952833 95.1670575,89.0161449 C95.5147793,88.6370066 95.8599157,88.255289 96.2011743,87.8697027 C96.530799,87.4983019 96.8565458,87.1243218 97.1784147,86.746473 C97.5119174,86.3544388 97.8428348,85.961115 98.1698742,85.5626328 C98.495621,85.1641506 98.8174899,84.7617997 99.1354808,84.3581592 C99.4418379,83.9674146 99.7456097,83.5753803 100.044211,83.1794773 C100.354446,82.7680993 100.660803,82.3554317 100.963282,81.9388953 C101.264469,81.5210693 101.561777,81.1019538 101.855208,80.6789695 C102.137005,80.2701706 102.414924,79.8587926 102.687672,79.4448354 C102.970762,79.0154031 103.251266,78.5833917 103.524014,78.1475116 C103.798055,77.712921 104.065633,77.273172 104.32804,76.8308439 C104.581399,76.4039909 104.827001,75.973269 105.071311,75.5412576 C105.323377,75.0976399 105.56898,74.6488639 105.850777,74.1407669 C105.928336,74.2697255 105.995553,74.3342049 106.007187,74.4064217 C106.657388,78.2867869 105.871459,81.8138054 103.397335,84.9217084 C102.055568,86.6084873 100.421664,87.9677113 98.6210077,89.137366 C96.9043737,90.2541478 95.0778649,91.160727 93.1854311,91.9383475 C92.879074,92.064727 92.5714242,92.1859481 92.2624818,92.3058796 C92.2004348,92.3303817 92.1319246,92.3394088 91.976807,92.3768068 M27.180339,75.246974 C27.0989023,75.1953906 27.0174656,75.1592822 26.9580039,75.1025404 C24.48905,72.7619412 22.856438,69.9338785 22.0782651,66.6299583 C21.7990535,65.4461181 21.7395918,64.2364862 21.8404182,63.0165375 C21.9994137,61.0976331 22.5992014,59.3218728 23.5105169,57.6389626 C23.5764419,57.5177415 23.6113433,57.3617016 23.7742167,57.316566 C23.9254563,57.3887829 23.8983107,57.5345061 23.9202857,57.6531481 C24.06894,58.4462437 24.2020825,59.243208 24.3584927,60.0363036 C24.7643836,62.1086688 25.2943684,64.1513735 25.9355209,66.1644177 C26.4706763,67.8460382 27.0795126,69.4992879 27.8021018,71.1086916 C27.9649752,71.4697757 27.9753163,71.7895932 27.8602708,72.1648628 C27.6094975,72.9914876 27.4414535,73.8387458 27.3277007,74.6950311 C27.3031404,74.8717044 27.3225301,75.0625632 27.180339,75.246974 M111.323194,57.2328719 C111.417557,57.3798847 111.492531,57.4817621 111.553285,57.5913769 C112.300434,58.9312571 112.83559,60.3523812 113.108338,61.8637763 C113.316454,63.024404 113.356526,64.1940588 113.220798,65.3714511 C112.953221,67.6978648 112.069051,69.7908633 110.865597,71.7742471 C110.106814,73.0251458 109.16706,74.1212942 108.114847,75.1297506 C108.074775,75.1671486 108.030825,75.2006779 107.985582,75.231628 C107.972655,75.2406551 107.95068,75.2367863 107.897682,75.2432342 C107.875707,75.1929404 107.834342,75.1361986 107.825294,75.0742984 C107.667591,73.9833084 107.474987,72.9013455 107.138899,71.8490431 C107.076852,71.6581843 107.12985,71.4944068 107.202238,71.3203127 C107.535741,70.5259275 107.870536,69.7302528 108.183357,68.9281301 C109.009358,66.805471 109.681534,64.6338077 110.199885,62.4170088 C110.508827,61.0964725 110.771234,59.7643298 111.046568,58.4360559 C111.115078,58.1123698 111.15515,57.7848148 111.214612,57.4598391 C111.226246,57.3953598 111.271488,57.3373284 111.323194,57.2328719"/><path fill="#FFF" fill-rule="nonzero" d="M74.6553501,60.190796 C74.9268058,58.9386077 74.539012,57.456873 74.1887049,56.9191155 C74.1887049,56.9191155 74.5235002,56.9268531 74.6126928,56.9307218 C74.9074161,56.9397489 75.0715821,56.9423281 75.3663054,56.9642511 C76.6137089,57.0558117 77.8636976,57.1370556 79.1098084,57.2531184 C80.2460442,57.3575749 81.3796948,57.4968502 82.5120527,57.6322568 C83.4078564,57.7380029 84.3023675,57.8514864 85.1942933,57.9804451 C86.2865792,58.1390642 87.3788651,58.3067104 88.467273,58.4885421 C89.4109047,58.6471612 90.3493657,58.8277033 91.290412,59.0056662 C91.8501277,59.1114123 92.4085508,59.227475 92.9669739,59.346117 L93.3728648,59.4621797 C93.2190399,59.6569073 93.0729709,59.8129472 92.9540475,59.944485 C91.0461019,62.0619857 89.157546,64.1962511 87.2198696,66.2866705 C82.0932354,71.8202853 76.7455588,77.1346705 71.1742543,82.2246676 C69.3955734,83.8495464 67.5794057,85.4331583 65.7722865,87.027087 C65.5266838,87.2437375 65.241009,87.4191213 64.9643828,87.5970842 C64.7304138,87.7466762 64.4770552,87.8240514 64.1887951,87.8524223 C63.8837307,87.8807932 63.5864221,88.0045934 63.2878208,88.0935749 C63.0784122,88.1567646 62.878052,88.2702482 62.651839,88.1748188 C62.465698,87.8433951 62.465698,87.8433951 61.9654439,87.5403424 C62.2110467,86.6543966 62.4450156,85.7697404 62.7074228,84.8928217 C62.8056639,84.5626876 62.9737079,84.2506077 63.108143,83.9307903 C63.1947503,83.7283252 63.2955767,83.5310185 63.3615017,83.3221056 C63.5437648,82.7430813 63.7376617,82.1692154 64.028507,81.6353267 C64.1202849,81.4663909 64.1655275,81.2987447 64.1396746,81.1078859 C64.0996026,80.811281 64.1758687,80.5365991 64.2495495,80.2477318 C64.4537876,79.4468987 64.8415814,78.7595492 65.3224457,78.0967019 C65.8640644,77.351321 66.2130788,76.4924565 66.6099212,75.6632525 C66.8322563,75.1990014 67.0494208,74.7334608 67.2549515,74.2627618 C67.3583632,74.0254779 67.5238219,73.8887817 67.7629614,73.7959315 C68.4066992,73.5444622 68.4041139,73.5380143 68.6626431,72.9319087 C68.8953194,72.3877033 69.0607781,71.8202853 69.1331662,71.2373923 C69.1771162,70.8866248 69.3309411,70.6261284 69.542935,70.3617632 C70.8911648,68.6865906 72.2316388,67.0023909 73.5721127,65.3207703 C73.698792,65.1634408 73.8099596,64.9932154 73.9418095,64.8397546 C74.6062296,64.0634237 74.6333751,62.6268245 73.8875184,61.8066476 C73.9495654,61.6763994 74.0827079,61.4300884 74.1499255,61.2869444 C73.6781097,61.7125078 73.3846791,61.5848388 73.2579997,61.356582 C73.2062939,60.7969016 73.0175676,60.7840057 72.5897017,61.1528274 C72.534118,61.2005421 72.4798268,61.2508359 72.4229504,61.2985506 C72.1682991,61.5100428 71.8942582,61.5242282 71.5982422,61.3888217 C71.1833029,61.1979629 70.8717752,60.9000685 70.6287577,60.5170613 C70.5124196,60.3339401 70.4154711,59.9573809 70.4154711,59.9573809 C69.8854862,59.5060257 69.228822,58.569786 69.0905089,57.9907618 C69.0905089,57.9907618 68.9896825,58.576234 69.0013163,58.7954636 C69.0155354,59.0933581 69.0103649,59.3693295 68.7634695,59.607903 C68.626449,59.7394408 68.5553535,59.944485 68.6316196,60.1482397 C65.1802546,60.3558631 65.3935412,60.8007703 65.2539355,60.8665392 C64.7278285,61.1141398 63.5605692,61.886602 63.1727753,62.3095863 C62.8250536,62.6887247 62.4825024,63.0652839 62.0352468,63.3438345 C61.8064485,63.485689 61.6267707,63.7113666 61.4341664,63.9073837 C61.2014901,64.1459572 60.961058,64.3716348 60.6559935,64.5160685 C60.3987569,64.636 60.1945189,64.8113837 60.040694,65.0512468 C59.9954514,65.122174 59.9178926,65.1711783 59.7860427,65.2962682 C59.8054324,65.1337803 59.7989692,65.0641427 59.8222368,65.0048217 C60.9222786,62.2412382 62.1089277,59.5163424 63.3757208,56.8572154 C65.343128,56.6985963 68.5295005,56.7295464 69.458913,56.8172382 C69.3929881,57.0042282 69.2714794,57.4272126 69.2688941,57.4091583 C69.2688941,57.4246334 69.7652701,58.5272297 70.6998532,59.2932439 C71.3332498,58.928291 71.40176,58.9889016 72.1153006,59.4234922 C72.764209,59.8181056 73.4622378,60.0012268 74.2236063,59.7884451 C74.2934092,59.7691013 74.3683827,59.7626534 74.4407709,59.7600742 C74.4743797,59.7600742 74.5079885,59.7807076 74.5674502,59.8000514 C74.7199824,60.0708645 74.4213812,60.8059287 74.4123327,60.8368787 C74.4045768,60.8652496 74.4200885,60.8807247 74.433015,60.8600913 C74.5066958,60.7685307 74.6139854,60.384234 74.6553501,60.190796 M50.9491266,86.0797569 C50.8250326,86.0126984 50.7526444,85.9907755 50.7035238,85.9456399 C50.2588536,85.5316827 49.8232319,85.1086984 49.3759764,84.69861 C49.1950059,84.5335429 49.1381295,84.3465529 49.1601045,84.1079795 C49.2337853,83.3226214 49.2867838,82.5346842 49.3643426,81.7493261 C49.4367307,81.0181307 49.527216,80.2895144 49.6151159,79.5596086 C49.735332,78.5756542 49.8503775,77.5916999 49.9861053,76.6103247 C50.1541493,75.3916656 50.3338271,74.1755857 50.523846,72.9595058 C50.6725003,71.9987641 50.8327885,71.0393118 51.009881,70.0824388 C51.2826293,68.6019937 51.5605482,67.1228382 51.8591494,65.6488411 C52.1060448,64.4250237 52.3749152,63.2063646 52.6541267,61.9902847 C52.9617765,60.6478254 53.7205597,57.503814 53.7205597,57.503814 C55.9891535,57.2162362 58.6015912,57.0189295 58.7696351,57.0292462 C57.5442067,60.4298853 56.0809314,65.162667 55.8598889,65.9016 C55.6375538,66.6392434 55.417804,67.3781763 55.2071027,68.1196884 C54.9951087,68.8612006 54.7934559,69.6052919 54.5918031,70.3493832 C54.3953209,71.0754203 54.201424,71.8014573 54.0101124,72.5300736 C53.8149229,73.2754545 53.6184407,74.0208354 53.4335923,74.7687954 C53.2474513,75.5180451 53.0716514,76.2685843 52.8958515,77.0191235 C52.7213443,77.7696628 52.5481297,78.520202 52.3800858,79.2720308 C52.2120418,80.0251492 52.050461,80.7782676 51.8888803,81.531386 C51.7272995,82.285794 51.5670114,83.040202 51.4093086,83.7933204 C51.2528984,84.5412805 51.1262191,85.2943989 50.9491266,86.0797569 M50.0353551,57.9937278 C49.8867008,59.0228177 49.6566098,60.0802785 49.4937364,61.0913141 C49.330863,62.1062185 49.1485999,63.1185438 48.9934824,64.1334482 C48.8396575,65.131588 48.7000518,66.132307 48.5720798,67.133026 C48.4402299,68.1530887 48.3225991,69.1744411 48.2114315,70.1957934 C48.1015566,71.2184354 48.0033155,72.2410773 47.9076597,73.2650088 C47.8132966,74.2889404 47.7176408,75.3128719 47.6426673,76.3393826 C47.5689865,77.3452599 47.5185733,78.355006 47.4616968,79.3634625 C47.4035278,80.3886836 47.3505293,81.4151943 47.2962382,82.4378362 C47.1876559,82.5126322 47.1230236,82.4391258 47.0622692,82.3733569 C46.3073639,81.5441529 45.5576292,80.7097906 44.7975534,79.8857449 C44.6023638,79.6755424 44.5816815,79.4369689 44.5816815,79.1726037 C44.5803888,76.9325923 44.5493653,74.6912913 44.6592402,72.4512799 C44.7445549,70.727103 44.7936754,69.0016365 44.8983797,67.2774596 C44.9927429,65.7196394 45.1375193,64.1656879 45.2641986,62.6104468 C45.3262456,61.8599076 45.3947558,61.1106579 45.4684367,60.3614083 C45.5149719,59.8855509 45.5938233,59.1350117 45.653285,58.6604439 C45.653285,58.6604439 47.5146953,58.2916223 50.0353551,57.9937278 M35.0927547,61.1637889 C35.7494189,60.8375235 38.5803137,60.0121883 42.3897416,59.3390243 C42.3949122,59.9825278 42.3212313,60.5422083 42.3238166,61.1251013 C42.3276946,61.6938088 42.3095975,62.2625164 42.2953784,62.831224 C42.2798667,63.4179857 42.2540137,64.0047475 42.2410873,64.5927989 C42.2281608,65.1795606 42.2216976,65.7663224 42.2191123,66.3543738 C42.2152344,66.9411355 42.216527,67.5278973 42.2204049,68.1159486 C42.2242829,68.6846562 42.2307461,69.2533638 42.2423799,69.8220713 C42.256599,70.4088331 42.2811593,70.9955949 42.2953784,71.5823566 C42.3095975,72.1691184 42.3095975,72.7571698 42.3302799,73.3439315 C42.3509622,73.9126391 42.3987901,74.4800571 42.4207651,75.047475 C42.4440327,75.6290785 42.4724709,76.2106819 42.4698856,76.818077 C42.1299197,76.6027161 41.7860759,76.1255692 40.751959,74.5948302 C37.9844039,70.496525 36.1294568,66.0190813 35.0927547,61.1637889"/><path fill="#FFF" fill-rule="nonzero" d="M62.2286267 73.7607258C62.3372089 74.0263806 62.2803325 74.2623749 62.2596502 74.4945004 62.1549459 75.7131595 61.8162726 76.8724976 61.3599685 78.0021752 61.2022657 78.3929198 61.0264659 78.7772165 60.868763 79.1692508 60.5055295 80.0719612 60.1435886 80.9746716 59.7906962 81.8799612 59.5554347 82.4796188 59.3369775 83.0844348 59.0034748 83.6376673 58.6208516 84.2708542 58.4734899 84.9569141 58.4786605 85.6893991 58.4825385 86.3316131 58.4644414 86.9751167 58.4541002 87.6173307 58.4360032 88.6309455 58.5070987 89.6355332 58.7656279 90.6207772 58.783725 90.6904148 58.783725 90.7652108 58.7953588 90.8580611 58.6725574 90.9599384 58.5420002 91.0579469 58.425662 91.1688514 58.3067386 91.2810454 58.3041533 91.4512708 58.42954 91.5583064 58.553634 91.6640525 58.7009956 91.7414277 58.8393088 91.8304091 59.0060601 91.9361552 59.0409615 92.0186887 58.9672807 92.1940725 58.925916 92.292081 58.8651617 92.3823521 58.8160411 92.4713335 58.6014619 92.4919669 58.4890017 92.3552708 58.3649077 92.2585518 57.1860145 91.3481039 56.0084139 90.4363663 54.8385693 89.5143121 54.3331447 89.11583 53.8471098 88.6941352 53.353319 88.2814676 53.2563705 88.2002237 53.1684706 88.1073735 53.0508398 87.9951795 53.1322765 87.9049084 53.1930309 87.8197957 53.2705896 87.7514476 53.4903394 87.5567201 53.7243084 87.3774676 53.9388876 87.1775817 54.3111697 86.8281039 54.5541871 86.40383 54.6498429 85.8983121 54.6912076 85.6829512 54.7532546 85.4701695 54.792034 85.253519 54.8618369 84.8705118 54.9872236 84.5081381 55.1772425 84.1689769 55.4047482 83.766626 55.5702069 83.3371937 55.6632774 82.8858385 55.7615185 82.4112708 55.9554154 81.9805489 56.2010182 81.5665917 56.6599075 80.7928399 57.1213822 80.0203777 57.5699303 79.240178 57.9486756 78.582489 58.4411738 78.0124919 58.9233308 77.4347572 59.2064202 77.095596 59.5063141 76.7706203 59.7725992 76.4198528 60.0841269 76.0110539 60.3917767 75.5958071 60.6567691 75.1573478 61.0109541 74.5731652 61.5060375 74.1527601 62.0709239 73.7968342 62.1006547 73.7774904 62.1420194 73.7800696 62.2286267 73.7607258M65.7129541 60.733196C65.8150731 60.605527 67.3701263 60.3385826 67.7398231 60.4030619 67.7811877 60.4520662 67.8884774 60.5345997 67.9363053 60.642925 68.097886 61.0117466 68.2452477 61.3870163 68.3874387 61.764865 68.5490195 62.1930077 68.6834547 62.6340462 68.8618398 63.0557409 69.0415176 63.482594 69.3129733 63.8514157 69.6813774 64.146731 69.9761007 64.3827252 70.2889211 64.4588108 70.6599105 64.3530648 71.0709719 64.2357124 71.465229 64.0835412 71.8103654 63.8346511 71.9150698 63.7585655 72.341643 63.3497666 72.341643 63.3497666 72.1645505 63.2968936 72.0637241 63.2298351 72.0637241 63.2298351 72.1490387 63.2762602 72.3649106 63.3136582 72.3649106 63.3136582 72.6622192 63.3265541 72.8767984 63.1227994 73.0564762 62.8429592 73.2232276 62.5811732 73.4171245 62.3361518 73.6136067 62.0640491 73.7286522 62.1620576 73.7971624 62.2935954 73.824308 62.4251332 73.9587432 63.071216 73.9096226 63.706982 73.6523861 64.3143772 73.5386332 64.5839007 73.3809304 64.8340805 73.2322761 65.0868394 73.134035 65.253196 72.987966 65.3589421 72.77985 65.3524942 72.5807825 65.3447566 72.4450546 65.4505027 72.3054489 65.5859093 72.0546755 65.8270619 71.7948537 66.0656354 71.5078863 66.2603629 70.6844707 66.8174642 69.876567 67.3900405 69.1488072 68.0709421 69.0285912 68.1831361 68.8889854 68.2772759 68.7571355 68.376574 68.0267905 68.922069 67.2098382 69.0355526 66.3463506 68.8111646 64.9140988 68.4397638 63.7352056 67.6544057 62.7618432 66.553099 62.7385755 66.5273073 62.7308197 66.4873301 62.7049667 66.4292987 62.7838181 66.2242545 62.9828856 66.1185084 63.1638561 66.0050248 63.8502511 65.574303 64.5599138 65.1758208 65.3303308 64.9243515 65.7930981 64.7747595 66.0761876 64.4858922 66.2920595 64.0835412 66.7005356 63.3201061 66.8104106 62.5244314 66.5596372 61.690069 66.451055 61.3289849 66.2687919 61.0156154 65.9236554 60.823467 65.8835834 60.8015441 65.7504408 60.7822003 65.7129541 60.733196M74.7586325 15.2577404C74.709512 15.2267903 74.665562 15.1906819 74.6164415 15.1674693 74.4496901 15.0900942 74.2842314 15.0088502 74.1136022 14.9430813 72.5598416 14.3563195 70.9466194 14.1383795 69.2933251 14.1577233 68.442764 14.1667504 67.6038367 14.2621797 66.7817138 14.4788302 65.6066986 14.788331 64.5286318 15.2912696 63.6470472 16.141107 62.0842381 17.6486334 61.5658871 19.4798459 62.0570925 21.5780029 62.3065732 22.6470699 62.9425551 23.5046448 63.7685559 24.2203652 64.3554172 24.7297518 64.9978623 25.159184 65.703647 25.4828702 66.371945 25.7885021 67.0596327 26.0502882 67.734394 26.3443138 68.2734274 26.5790185 68.8163387 26.8098545 69.3346897 27.085826 69.6384616 27.2470243 69.9163805 27.4727019 70.1710317 27.7074066 70.991862 28.4656833 70.9388635 29.9732097 69.841407 30.6592696 69.5583175 30.8372325 69.2519604 30.9571641 68.9287989 31.0396976 68.1480407 31.2382939 67.358234 31.2202397 66.5684272 31.128679 65.2602694 30.9777974 64.0102807 30.6141341 62.8171684 30.0557432 62.7228053 30.0118973 62.614223 29.9964223 62.4384231 29.947418 62.1023352 31.1867104 61.7791736 32.4002111 61.4934989 33.6330556 61.6046664 33.7155892 61.6835178 33.7955435 61.7791736 33.840679 62.0286543 33.9567418 62.282013 34.0702254 62.5405422 34.1643652 63.8280176 34.6350642 65.163321 34.878796 66.5283552 34.9845421 67.4513045 35.0554693 68.3690832 35.0051755 69.2829839 34.8800856 70.1606906 34.7614437 71.013837 34.5370556 71.8256187 34.1695235 72.5171843 33.8561541 73.1557514 33.4576719 73.7025407 32.9263623 74.997772 31.6703053 75.5406834 30.1228017 75.4501982 28.341883 75.4230526 27.8092839 75.33386 27.2857118 75.1503043 26.7789044 74.7728516 25.742077 74.0993831 24.934796 73.2371881 24.2706591 72.4874534 23.6955036 71.656282 23.2634922 70.7863313 22.9036976 70.1749097 22.6496491 69.5531469 22.4188131 68.9494812 22.1492896 68.4802507 21.939087 68.0213614 21.7018031 67.5779838 21.4425963 67.3440148 21.3046106 67.128143 21.116331 66.9497578 20.9125763 66.4042612 20.2897061 66.4352847 19.3599144 66.9988784 18.7512297 67.2418958 18.4894437 67.5392044 18.3114807 67.8727071 18.1928388 68.4182037 17.9994009 68.9805047 17.9246049 69.5557322 17.9413695 70.8380371 17.9787675 72.0776846 18.2186305 73.2578705 18.734465 73.3884277 18.7912068 73.5280335 18.8286049 73.6560055 18.8737404 73.8990229 18.4649415 74.439349 16.6930499 74.7586325 15.2577404M86.070578 15.6510642C85.9477767 15.894796 85.844365 16.0869444 85.7512945 16.2829615 83.5072609 21.0118745 81.2632274 25.7394979 79.0204865 30.4671213 78.4219914 31.7283367 77.8222036 32.9895521 77.2250012 34.2507675 77.1577836 34.392622 77.0556645 34.5293181 77.090566 34.6969643 77.5494553 34.8671897 81.1119878 35.3972097 81.6755815 35.3830243 81.8371622 35.2721198 81.8824049 35.087709 81.9560857 34.9226419 82.5235573 33.6472411 83.0897363 32.3718402 83.6572079 31.0964394 83.7373519 30.9158973 83.7929357 30.7185906 83.9829547 30.5573923 84.8981481 30.6863509 85.8288532 30.7972553 86.7518025 30.9520057 87.6902635 31.1093352 88.6455289 31.1738146 89.5956238 31.4110984 89.6899869 32.0313894 89.7817648 32.6284679 89.8709574 33.2268359 90.0260749 34.280428 90.1811924 35.33402 90.3311394 36.387612 90.3608702 36.5991041 90.4629893 36.7267732 90.6723979 36.7590128 90.9438536 36.8015692 91.2191872 36.8338088 91.4919355 36.873786 92.6191229 37.0427218 93.7463102 37.2155264 94.8760828 37.3780143 94.9911283 37.3947789 95.1152224 37.3599601 95.2780958 37.344485 95.2419017 37.0685136 95.2173414 36.8350984 95.1811473 36.6016833 95.0596386 35.8214836 94.9342519 35.0425735 94.8114505 34.2636633 94.5904081 32.8489872 94.3745362 31.4330214 94.1522011 30.0196348 93.9802791 28.931224 93.8006013 27.8441027 93.6312647 26.7569815 93.4580501 25.6505164 93.2938841 24.5427618 93.1219622 23.4362967 92.9422844 22.275669 92.7561433 21.116331 92.5738803 19.9557033 92.4174701 18.9575635 92.2649378 17.9607133 92.1059424 16.9625735 92.0426027 16.5640913 91.9973601 16.5163766 91.5862987 16.4480285 91.150677 16.3771013 90.7111773 16.3229387 90.2742629 16.2584593 89.3642401 16.125632 88.45551 15.9902254 87.5441945 15.857398 87.0723787 15.7890499 86.6005629 15.7245706 86.070578 15.6510642M39.1216739 17.2037261C39.0001651 17.4771184 39.0712607 17.6757147 39.0996989 17.8717318 39.1746724 18.3991726 39.2625723 18.9240342 39.3375458 19.451475 39.508175 20.6507903 39.6723411 21.8513951 39.8429704 23.0507104 40.0213555 24.3041883 40.1971554 25.5589558 40.388467 26.8111441 40.5616816 27.9537175 40.6870682 29.1040285 40.9804989 30.2272582 41.2610031 31.2989044 41.6371631 32.3292839 42.2201464 33.2771298 43.4455749 35.274699 45.2539867 36.3295806 47.5742863 36.499806 49.2495556 36.6236063 50.8847528 36.3772953 52.4514398 35.7763481 55.0380245 34.7833666 56.5672248 32.9108873 57.0480891 30.1834123 57.1967434 29.3438916 57.1954508 28.5030813 57.1825243 27.6571127 57.1644273 26.5506476 56.9433848 25.4686847 56.7973158 24.3776947 56.639613 23.2131983 56.453472 22.0525706 56.2880133 20.8906534 56.0669708 19.345729 55.8523916 17.799515 55.635227 16.2545906 55.5861065 15.910271 55.5421565 15.5633723 55.4852801 15.2190528 55.4400375 14.9469501 55.3573081 14.8914979 55.0690481 14.9095521 54.9953672 14.9147104 54.9216864 14.9224479 54.8492982 14.9327646 53.7195256 15.0952525 52.589753 15.2551612 51.461273 15.4215178 51.2828878 15.4473096 51.0941615 15.4524679 50.917069 15.5969016 50.917069 15.6871726 50.9054352 15.7954979 50.9183616 15.8999544 50.9558484 16.1914009 51.0062616 16.4815578 51.0476262 16.7717147 51.2247187 18.0071384 51.3992259 19.2438516 51.5763185 20.4792753 51.6952419 21.3149272 51.8193359 22.1505792 51.9408446 22.9862311 52.0714019 23.8940999 52.2084224 24.8019686 52.3299311 25.711127 52.4359281 26.4939058 52.541925 27.2766847 52.6156059 28.0620428 52.6905793 28.8731926 52.625947 29.679184 52.3803443 30.4593837 52.0959622 31.3633837 51.5427097 32.0442853 50.6546618 32.4221341 50.0703858 32.6710243 49.4550863 32.7806391 48.8216897 32.7458203 47.8871067 32.6955264 47.1283234 32.2931755 46.5479254 31.5594009 46.2725918 31.2112126 46.0567199 30.8282054 45.8835053 30.4194066 45.6017085 29.7565592 45.4194454 29.0666305 45.3121557 28.3560685 45.1919397 27.556525 45.0820648 26.7569815 44.964434 25.9574379 44.792512 24.7774665 44.6141269 23.597495 44.4447903 22.416234 44.2211625 20.8532553 44.003998 19.2902767 43.7816628 17.7260086 43.7390055 17.4177974 43.6937629 17.1082967 43.6420571 16.8013752 43.6162041 16.6517832 43.5153778 16.5731184 43.371894 16.5821455 43.2801162 16.5873039 43.1896309 16.6079372 43.0991457 16.6208331 42.1878303 16.7485021 41.2765148 16.873592 40.366492 17.0051298 39.9489673 17.0644508 39.5340279 17.1366676 39.1216739 17.2037261M99.7752113 14.7096662C99.7752113 14.9366334 99.7829672 15.118465 99.7739187 15.3002967 99.6679217 17.3778203 99.7519437 19.451475 99.9018907 21.5212611 100.058301 23.7006619 100.245734 25.8787732 100.435753 28.0555949 100.602505 29.9590243 100.804158 31.8572953 100.964446 33.7607247 101.09371 35.2979116 101.188073 36.8376776 101.290192 38.3774437 101.344484 39.2027789 101.385848 40.0281141 101.427213 40.8534494 101.436261 41.0327019 101.476334 41.2196919 101.362581 41.4298944 101.216512 41.4041027 101.054931 41.3886277 100.901106 41.3460713 99.0745972 40.8392639 97.2364545 40.3788816 95.3828001 39.9855578 93.7450176 39.6373695 92.1033571 39.3136833 90.4578187 39.0041826 89.2104153 38.7694779 87.9578412 38.5592753 86.7039746 38.3684165 85.3570374 38.1633723 84.0075149 37.9841198 82.6566998 37.8113153 81.6342168 37.6797775 80.6091485 37.5675835 79.5840802 37.4618374 78.7425676 37.3754351 77.8984698 37.3083766 77.0543719 37.2387389 76.3020519 37.1768388 75.5497319 37.120097 74.7974119 37.0685136 72.6296445 36.9189215 70.4592918 36.8312297 68.2863538 36.8080171 66.499917 36.7886733 64.7134802 36.8170442 62.9309213 36.9215007 61.3500152 37.0143509 59.7704017 37.1097803 58.1907882 37.2271327 56.9252878 37.3199829 55.6584946 37.4283081 54.3968721 37.5675835 53.0072776 37.7210442 51.6202684 37.9080342 50.2345519 38.0963138 49.1047792 38.2497746 47.9737139 38.4083937 46.8491119 38.5966733 45.4336645 38.8339572 44.0195097 39.0802682 42.6131108 39.3652668 40.9016475 39.7134551 39.1953547 40.0925934 37.4929399 40.4846277 36.4174583 40.7335178 35.3536107 41.0314123 34.2845924 41.3048046 34.1100852 41.3486505 33.9317 41.3821797 33.7222914 41.4273153 33.6951458 41.3112525 33.6537811 41.228719 33.6581374 41.147475 33.7571928 39.4052439 33.847678 37.6630128 33.9691867 35.9233609 34.0764764 34.3835949 34.2122042 32.8476976 34.3492247 31.3105107 34.5211466 29.3903167 34.7215067 27.4727019 34.8830875 25.5512183 35.1170564 22.7876348 35.3549033 20.0240514 35.3665371 17.247572 35.3691224 16.5679601 35.3432695 15.8883481 35.3316357 15.2100257 35.3290504 15.0475378 35.3316357 14.8863395 35.3316357 14.6967703 35.7310633 14.5884451 36.0981748 14.4723823 36.4730421 14.3885592 38.2310407 13.9913666 39.9916246 13.6044907 41.7715982 13.310465 43.1689486 13.0783395 44.5650063 12.8358973 45.964942 12.6205364 46.8749648 12.4812611 47.7888656 12.3780942 48.7027663 12.2684793 49.6166671 12.1575749 50.5305678 12.0569872 51.4457612 11.957689 53.9353975 11.6855863 56.431497 11.5037546 58.9314744 11.3670585 62.738317 11.1581455 66.5490375 11.0743224 70.3597581 11.1542767 73.1402397 11.2123081 75.9194287 11.2948417 78.6908618 11.5282568 80.5794176 11.6881655 82.4705588 11.8351783 84.3565294 12.0260371 85.7280268 12.1653124 87.0943537 12.3664879 88.4645585 12.540582 90.4358437 12.7907618 92.3967877 13.1144479 94.3473906 13.4897175 95.9916364 13.8069558 97.621663 14.1899629 99.2568603 14.5484679 99.4171484 14.5832867 99.5722659 14.6451869 99.7752113 14.7096662M54.96499 48.0449563C54.9507709 48.2138922 54.9494783 48.4911532 54.9016504 48.7606767 54.6806079 50.019313 53.9787011 50.9065484 52.7791256 51.3617723 51.8264455 51.7228565 50.8453271 51.8079692 49.8603308 51.4855726 48.8611154 51.1580177 48.1268925 50.5261204 47.7584884 49.5279806 47.3758651 48.4924428 47.2504785 47.4259549 47.4766915 46.3362545 47.697734 45.2723458 48.3285453 44.5192274 49.3161269 44.0781889 50.1563468 43.7029193 51.0482725 43.5778294 51.9582954 43.7145255 53.3194516 43.9182802 54.2411083 44.6610819 54.6638035 45.9867766 54.8279696 46.5026111 54.9701606 47.4104799 54.96499 48.0449563M62.3118731 45.6872057C62.2963613 45.6382014 62.2640452 45.5711429 62.2562893 45.5027949 62.2110467 45.056598 62.2032908 43.3969004 62.2446555 43.061608 62.3338481 43.0332371 62.4333818 42.9752057 62.5342082 42.9726265 63.7273205 42.9339389 64.9204328 42.8952514 66.1148377 42.8810659 66.3656111 42.8771971 66.6293109 42.9378077 66.8658651 43.0267892 67.3467294 43.2073312 67.6505012 43.5516508 67.6970365 44.0881187 67.746157 44.6490887 67.5703572 45.1120502 67.0584693 45.3828633 66.8219151 45.5079532 66.5465815 45.586618 66.2790038 45.6265951 65.9002585 45.6846265 65.5124647 45.698812 65.1272562 45.7129974 64.3736435 45.7400787 63.6213235 45.7555538 62.8677109 45.7697392 62.6893257 45.7723184 62.5005994 45.8174539 62.3118731 45.6872057M82.6468757 46.6295064C82.6029258 47.3839144 82.5525126 48.2260143 82.2939834 49.0384536 82.2500334 49.177729 82.1905717 49.3131355 82.1324026 49.4472525 81.8066558 50.1977917 81.2404768 50.6465678 80.4299878 50.7652097 80.104241 50.8129244 79.7694456 50.8451641 79.4424062 50.8232411 78.599601 50.7690785 77.7580884 50.6852553 76.9165758 50.6040114 76.6296084 50.5756405 76.5714393 50.5034237 76.5921217 50.2106876 76.6309011 49.6626134 76.6813143 49.1145392 76.7291422 48.5677546 76.8739185 46.9235321 77.0199875 45.2805991 77.1660565 43.6376662 77.1699345 43.6015578 77.1699345 43.5641598 77.175105 43.5280514 77.2022506 43.3449301 77.2888579 43.2636862 77.4607798 43.2623966 77.5163636 43.261107 77.5706547 43.2701341 77.6262385 43.2740029 78.3216821 43.3346134 79.0184183 43.3849073 79.7112766 43.4609929 80.038316 43.4958117 80.3666481 43.5590014 80.6833464 43.6505621 81.8389719 43.9832753 82.5008067 44.7970043 82.609389 45.9924508 82.6261934 46.175572 82.631364 46.3586933 82.6468757 46.6295064"/><path fill="#FFF" fill-rule="nonzero" d="M88.2824247 19.6903064C88.3573981 19.7496274 88.3806658 19.7586545 88.3819584 19.7702608 88.6379023 22.3984377 89.0347447 25.0098499 89.3941003 27.625131 89.3979782 27.656081 89.3734179 27.6921894 89.3527356 27.7515104 89.1523754 27.8366231 88.9339183 27.7773021 88.7219243 27.7476417 87.7214163 27.6083663 86.7209082 27.4600639 85.7216929 27.3104719 85.5420151 27.2833906 85.3662152 27.2318071 85.1568065 27.185382 85.1865374 27.0551338 85.1955859 26.9480981 85.2356579 26.8552479 85.6350856 25.9499583 86.0345132 25.0420896 86.4455746 24.1419583 87.0569962 22.8059469 87.5856884 21.4376959 88.1156733 20.0694448 88.1609159 19.953382 88.2164997 19.8398984 88.2824247 19.6903064M90.3175 79.1724978 87.7140644 77.466672 85.1740641 79.1093191 86.1424231 76.4377611 83.566174 74.7486969 86.7534731 74.7538544 87.7308942 72.0577985 88.7121991 74.7564331 91.8982036 74.7615906 89.3193654 76.4287356 90.3175 79.1724978ZM80.4940941 87.5623762 78.3126973 86.1337631 76.1856736 87.5095123 76.9973863 85.2711799 74.8392922 83.8580392 77.5087523 83.8619073 78.3269379 81.6042345 79.1490073 83.864486 81.8171728 83.8683541 79.6577841 85.2647331 80.4940941 87.5623762ZM70.6965802 94.9723394 68.6718297 93.6455859 66.6962739 94.9233436 67.4497296 92.8461815 65.4456927 91.5323216 67.9248469 91.5361897 68.6847757 89.4396872 69.4472936 91.5387685 71.9251532 91.5426365 69.9198217 92.8384453 70.6965802 94.9723394ZM97.2863184 60.5773196C97.174983 60.6843366 97.0390503 60.8081154 96.9134743 60.9383409 94.0485301 63.9038735 91.0955531 66.78044 88.1011491 69.6144576 83.7953178 73.6888414 79.3833295 77.6446039 74.8962545 81.5191366 71.7464988 84.2371116 68.5656727 86.9189845 65.3421249 89.5492829 63.7575375 90.8412236 62.1612988 92.1151133 60.5728277 93.4006071 60.4330111 93.514071 60.2530621 93.5927221 60.1948052 93.784837 61.0129908 94.5532967 66.3790975 97.988157 67.4820946 98.4381443 67.9636848 98.1596421 68.4776401 97.8746932 68.9799439 97.5704037 74.869068 93.9859775 80.3426262 89.8574405 85.351424 85.125482 88.5167149 82.1354516 91.4062565 78.9030212 93.8854108 75.3173056 95.4052683 73.1176541 96.7309361 70.8096961 97.7627303 68.3431467 98.6663594 66.1860441 99.3421393 63.9567373 99.876808 61.6835922 99.9052892 61.5623921 99.9195298 61.4282985 99.9350649 61.3122559 99.3447285 61.0440686 98.1148608 60.732043 97.2863184 60.5773196L97.2863184 60.5773196ZM90.667581 97.5367691 90.667581 95.424882 91.5084246 95.424882 91.5084246 95.174265 89.4904 95.174265 89.4904 95.424882 90.3312436 95.424882 90.3312436 97.5367691 90.667581 97.5367691ZM92.1298481 97.5367691 92.1298481 95.6100512 92.7640844 97.3787367 93.0892106 97.3787367 93.7426662 95.6148401 93.7426662 97.5367691 94.0565812 97.5367691 94.0565812 95.174265 93.6401634 95.174265 92.9642853 97.0020131 92.3076265 95.174265 91.8415589 95.174265 91.8415589 97.5367691 92.1298481 97.5367691Z"/></g></svg>