<svg xmlns="http://www.w3.org/2000/svg" viewBox="0 0 114.23 32"><title>w1-h-cp</title><path d="M34.33,25.21v.23h0a1.19,1.19,0,0,1-.36.86,1.17,1.17,0,0,1-.85.36h-.06a1.24,1.24,0,0,1-1.23-1.23V23.38a1.23,1.23,0,0,1,1.23-1.23h.06a1.17,1.17,0,0,1,.85.36,1.18,1.18,0,0,1,.36.85v.2a.16.16,0,0,1-.15.15H33.7a.17.17,0,0,1-.16-.15V23.5c0-.34-.19-.61-.45-.61a.56.56,0,0,0-.49.56.54.54,0,0,0,0,.06v1.87a.58.58,0,0,0,0,.06.56.56,0,0,0,.48.56c.27,0,.47-.27.47-.62v-.14c0-.1,0-.15.14-.15h.5a.14.14,0,0,1,.14.14h0Z" transform="translate(0 0)" style="fill:#fff"/><path d="M38.77,24.64l.64,1.82v0c0,.07,0,.11-.12.11h-.47q-.09,0-.15-.15l-.56-1.6c0-.07-.06-.11-.11-.11h-.23c-.09,0-.14,0-.14.15v1.56a.16.16,0,0,1-.15.15H37c-.09,0-.14,0-.14-.15V22.34A.12.12,0,0,1,37,22.2h1.16a1.18,1.18,0,0,1,.81.31,1.1,1.1,0,0,1,.35.8s0,0,0,0v.25a1.1,1.1,0,0,1-.55,1s0,0,0,.08Zm-.15-1v-.35a.44.44,0,0,0-.44-.43h-.43c-.08,0-.13,0-.13.15V24a.12.12,0,0,0,.14.14h.42a.44.44,0,0,0,.44-.43h0Z" transform="translate(0 0)" style="fill:#fff"/><path d="M43.44,22.35l.87,4.09a.12.12,0,0,1,0,0,.13.13,0,0,1-.13.13h-.5c-.07,0-.12-.06-.14-.16l-.14-.65c0-.09-.06-.14-.14-.14h-.68a.15.15,0,0,0-.15.14l-.12.65c0,.1-.08.16-.16.16h-.49a.13.13,0,0,1-.13-.13.14.14,0,0,1,0,0l.81-4.09c0-.1.07-.15.15-.15h.79c.08,0,.13,0,.15.15Zm-.23,2.41-.26-1.44c0-.08,0-.11-.06-.11s0,0-.06.11l-.23,1.44c0,.1,0,.16.12.16h.36a.13.13,0,0,0,.12-.13v0Z" transform="translate(0 0)" style="fill:#fff"/><path d="M48.86,22.35v.39a.16.16,0,0,1-.16.16H47.65a.16.16,0,0,0-.16.15v.75a.14.14,0,0,0,.16.15h.8a.16.16,0,0,1,.16.15v.38a.16.16,0,0,1-.16.16h-.82a.13.13,0,0,0-.15.15v1.67a.14.14,0,0,1-.14.14h-.47a.16.16,0,0,1-.16-.16V22.35a.16.16,0,0,1,.16-.15H48.7c.11,0,.16,0,.16.15Z" transform="translate(0 0)" style="fill:#fff"/><path d="M53.77,22.34v.37a.13.13,0,0,1-.15.15h-.68a.16.16,0,0,0-.15.14v3.45c0,.1,0,.15-.14.15h-.47a.13.13,0,0,1-.13-.13V23a.12.12,0,0,0-.14-.14h-.7a.13.13,0,0,1-.13-.13v-.39h0a.13.13,0,0,1,.13-.13h2.4c.12,0,.16,0,.16.14Z" transform="translate(0 0)" style="fill:#fff"/><path d="M58.68,25.5s0,0,0,0a1.1,1.1,0,0,1-.35.81,1.26,1.26,0,0,1-.84.32h-.11a1.21,1.21,0,0,1-1-.47,2.08,2.08,0,0,1-.33-.71.2.2,0,0,1,0-.07.13.13,0,0,1,.1-.12l.41-.14h.06a.14.14,0,0,1,.13.1c.13.47.34.69.65.69h0a.45.45,0,0,0,.45-.45v0c0-.19-.15-.42-.45-.68l-.83-.7a1.26,1.26,0,0,1-.45-.88s0,0,0-.05a1,1,0,0,1,.35-.77,1.16,1.16,0,0,1,.76-.28h.06a1.13,1.13,0,0,1,.9.45,1.61,1.61,0,0,1,.28.53v.06h0a.13.13,0,0,1-.1.13l-.36.12h0a.14.14,0,0,1-.13-.1c-.17-.39-.36-.58-.58-.58a.4.4,0,0,0-.31.15.51.51,0,0,0-.13.34h0c0,.15.15.35.47.6.5.4.79.65.86.72a1.37,1.37,0,0,1,.46.94Z" transform="translate(0 0)" style="fill:#fff"/><path d="M62.86,24.86Z" transform="translate(0 0)" style="fill:#fff"/><path d="M64.52,22.34h0a.13.13,0,0,0-.13-.13h-.76c-.08,0-.12,0-.14.14l-.58,2.37c0,.23-.1.19-.14,0l-.67-2.35c0-.11-.08-.16-.16-.16h-.67a.12.12,0,0,0-.14.14v4.12c0,.1,0,.15.14.15h.45c.1,0,.15,0,.15-.15V24s0-.06.06-.06,0,0,.06.06l.62,2.5c0,.1.07.15.14.15h.2c.08,0,.13,0,.15-.15L63.73,24a.06.06,0,0,1,.06-.05h0s0,0,0,.05v2.49c0,.1,0,.15.15.15h.43a.13.13,0,0,0,.13-.13V22.34Z" transform="translate(0 0)" style="fill:#fff"/><path d="M67.84,25.74A.15.15,0,0,1,68,25.6h.68c.08,0,.13,0,.14.15l.14.7c0,.1.07.16.14.16h.5a.14.14,0,0,0,.11-.05.12.12,0,0,0,0-.07.19.19,0,0,0,0,0l-.87-4.1c0-.1-.07-.15-.15-.15h-.79c-.08,0-.13,0-.15.15L67,26.45a.1.1,0,0,0,0,0,.13.13,0,0,0,0,.08.13.13,0,0,0,.1,0h.48c.08,0,.14-.06.16-.16Zm.16-1,.23-1.44a.19.19,0,0,1,0-.11h0s0,0,0,.06l0,.05.26,1.45a.11.11,0,0,1,0,0,.13.13,0,0,1,0,.08.14.14,0,0,1-.11,0H68.1a.13.13,0,0,1-.09,0,.15.15,0,0,1,0-.08.17.17,0,0,1,0-.06Z" transform="translate(0 0)" style="fill:#fff"/><path d="M74.77,22.35c0-.1,0-.15-.15-.15h-.43a.16.16,0,0,0-.16.15v2.27c0,.05,0,.06,0,.06a.08.08,0,0,1-.06,0l-1-2.29c0-.1-.1-.15-.18-.15h-.43c-.09,0-.14,0-.14.15v4.11c0,.1,0,.15.14.15h.45c.1,0,.15,0,.15-.15V24.12s0-.06,0-.06,0,0,0,0L74,26.48c0,.09.09.14.16.14h.44a.13.13,0,0,0,.13-.13V22.35Z" transform="translate(0 0)" style="fill:#fff"/><path d="M72.92,24.06Z" transform="translate(0 0)" style="fill:#fff"/><path d="M79.84,25.5s0,0,0,0a1.1,1.1,0,0,1-.35.81,1.26,1.26,0,0,1-.84.32h-.11a1.21,1.21,0,0,1-1-.47,2.1,2.1,0,0,1-.33-.71.2.2,0,0,1,0-.07.13.13,0,0,1,.1-.12l.41-.14h.06a.14.14,0,0,1,.13.1c.13.47.34.69.65.69h0a.45.45,0,0,0,.45-.45v0c0-.19-.15-.42-.45-.68l-.83-.7a1.26,1.26,0,0,1-.45-.88s0,0,0-.05a1,1,0,0,1,.35-.77,1.16,1.16,0,0,1,.76-.28h.06a1.13,1.13,0,0,1,.9.45,1.63,1.63,0,0,1,.28.53v.06h0a.13.13,0,0,1-.1.13l-.36.12h0a.14.14,0,0,1-.13-.1c-.17-.39-.36-.58-.58-.58a.4.4,0,0,0-.31.15.51.51,0,0,0-.13.34c0,.15.15.35.47.6.5.4.79.65.86.72a1.37,1.37,0,0,1,.46.94Z" transform="translate(0 0)" style="fill:#fff"/><path d="M84.76,22.35v4.09c0,.1,0,.16-.15.16h-.47a.17.17,0,0,1-.15-.16v-1.5a.16.16,0,0,0-.16-.16h-.59a.14.14,0,0,0-.15.16v1.5a.17.17,0,0,1-.15.16h-.47a.14.14,0,0,1-.15-.16V22.33a.14.14,0,0,1,.14-.14H83a.14.14,0,0,1,.14.14V23.9c0,.1,0,.15.15.15h.59c.11,0,.16,0,.16-.15V22.35a.16.16,0,0,1,.15-.15h.49a.14.14,0,0,1,.14.14v0Z" transform="translate(0 0)" style="fill:#fff"/><path d="M88.15,22.35v4.11a.14.14,0,0,1-.14.14h-.49a.14.14,0,0,1-.15-.16V22.33a.14.14,0,0,1,.14-.14H88a.14.14,0,0,1,.14.14v0Z" transform="translate(0 0)" style="fill:#fff"/><path d="M93.22,23.38v.25h0a1.17,1.17,0,0,1-.34.83,1.12,1.12,0,0,1-.81.34h-.42a.13.13,0,0,0-.13.13v1.52a.13.13,0,0,1-.15.15H90.9c-.09,0-.14,0-.14-.15V22.34a.12.12,0,0,1,.14-.14h1.19a1.11,1.11,0,0,1,.81.35,1.14,1.14,0,0,1,.33.8s0,0,0,0Zm-.78.32v-.37a.44.44,0,0,0-.44-.43h-.31a.16.16,0,0,0-.16.14v1a.16.16,0,0,0,.16.14H92a.45.45,0,0,0,.45-.45Z" transform="translate(0 0)" style="fill:#fff"/><path d="M100,23.38v.25h0a1.17,1.17,0,0,1-.34.83,1.12,1.12,0,0,1-.81.34H98.4a.13.13,0,0,0-.13.13v1.52a.13.13,0,0,1-.15.15h-.47c-.09,0-.14,0-.14-.15V22.34a.12.12,0,0,1,.14-.14h1.19a1.11,1.11,0,0,1,.81.35,1.13,1.13,0,0,1,.33.8S100,23.37,100,23.38Zm-.78.32v-.37a.44.44,0,0,0-.44-.43h-.31a.16.16,0,0,0-.16.14v1a.16.16,0,0,0,.16.14h.3a.45.45,0,0,0,.45-.45Z" transform="translate(0 0)" style="fill:#fff"/><path d="M103.77,22.35l.87,4.09a.12.12,0,0,1,0,0,.13.13,0,0,1-.13.13H104c-.07,0-.12-.06-.14-.16l-.14-.67c0-.09-.07-.14-.14-.14h-.68a.15.15,0,0,0-.15.14l-.11.67c0,.1-.08.16-.16.16H102a.13.13,0,0,1-.13-.13.14.14,0,0,1,0,0l.81-4.09c0-.1.07-.15.15-.15h.79c.08,0,.13,0,.15.15Zm-.23,2.41-.26-1.44c0-.08,0-.11-.06-.11s0,0-.06.11l-.23,1.44c0,.1,0,.16.12.16h.36a.13.13,0,0,0,.12-.13v0Z" transform="translate(0 0)" style="fill:#fff"/><path d="M109.27,22.34l-.95,2.44a.33.33,0,0,0,0,.13v1.56a.13.13,0,0,1-.13.13h-.51a.13.13,0,0,1-.13-.13V24.92a.34.34,0,0,0,0-.14l-1-2.44v0c0-.07,0-.1.13-.1h.54c.06,0,.11,0,.15.14l.58,1.49c0,.06,0,.09.08.09s.06,0,.08-.09l.47-1.49c0-.09.08-.14.14-.14h.54c.08,0,.12,0,.12.1h0a.09.09,0,0,1,0,0Z" transform="translate(0 0)" style="fill:#fff"/><path d="M114.23,25.5s0,0,0,0a1.1,1.1,0,0,1-.35.81,1.26,1.26,0,0,1-.84.32h-.11a1.2,1.2,0,0,1-1-.47,2.1,2.1,0,0,1-.33-.71.2.2,0,0,1,0-.07.13.13,0,0,1,.1-.12l.41-.14h.06a.14.14,0,0,1,.13.1c.13.47.34.69.65.69h0a.45.45,0,0,0,.45-.45v0c0-.19-.15-.42-.45-.68l-.83-.7a1.27,1.27,0,0,1-.45-.88s0,0,0-.05a1,1,0,0,1,.35-.77,1.16,1.16,0,0,1,.76-.28h.06a1.13,1.13,0,0,1,.9.45,1.6,1.6,0,0,1,.27.53v.06h0a.13.13,0,0,1-.1.13l-.36.12h0a.14.14,0,0,1-.13-.1c-.17-.39-.36-.58-.58-.58a.4.4,0,0,0-.31.15.51.51,0,0,0-.13.34h0c0,.15.15.35.47.6.5.4.79.65.86.72A1.37,1.37,0,0,1,114.23,25.5Z" transform="translate(0 0)" style="fill:#fff"/><path d="M46,8.34h-1a.27.27,0,0,0-.27.27v9.24s0,0,0,0a.27.27,0,0,0,.27.27H46a.27.27,0,0,0,.27-.27s0,0,0,0V8.6A.27.27,0,0,0,46,8.34h0Z" transform="translate(0 0)" style="fill:#fff"/><path d="M54.52,8.34h-1a.27.27,0,0,0-.27.27v5.08c0,.1,0,.26-.09.26s-.12,0-.19-.19l-2.2-5.1c0-.08-.14-.32-.37-.32h-1a.23.23,0,0,0-.23.27v9.28a.21.21,0,0,0,0,0,.23.23,0,0,0,.23.23h1a.26.26,0,0,0,.26-.26h0V12.66c0-.17.06-.19.15-.19s.08,0,.14.14l2.29,5.27c0,.08.12.27.29.27h1a.24.24,0,0,0,.24-.25V8.63a.2.2,0,0,0,0,0,.26.26,0,0,0-.26-.26h0Z" transform="translate(0 0)" style="fill:#fff"/><path d="M60.32,8.34H57.91a.27.27,0,0,0-.27.27v9.24s0,0,0,0a.27.27,0,0,0,.27.27h2.42a2.49,2.49,0,0,0,1.82-.79,2.69,2.69,0,0,0,.78-1.9V11a2.64,2.64,0,0,0-.77-1.87,2.46,2.46,0,0,0-1.82-.8h0Zm1.05,2.89V15.3h0a1.43,1.43,0,0,1-.42,1,1.32,1.32,0,0,1-1,.42H59.6a.42.42,0,0,1-.4-.42h0V10.18a.41.41,0,0,1,.4-.4H60a1.32,1.32,0,0,1,1,.42,1.4,1.4,0,0,1,.42,1v0Z" transform="translate(0 0)" style="fill:#fff"/><path d="M85.51,13.83a.34.34,0,0,1,0-.12v0a.1.1,0,0,1,0-.08,7.9,7.9,0,0,0,.78-.82,2.61,2.61,0,0,0,.39-1.37s0-.05,0-.08v-.52s0-.06,0-.09A2.39,2.39,0,0,0,85.94,9a2.44,2.44,0,0,0-1.73-.71H81.68a.23.23,0,0,0-.23.23v9.35a.21.21,0,0,0,0,0,.23.23,0,0,0,.23.23h1a.24.24,0,0,0,.25-.25V14.32a.37.37,0,0,1,.36-.37h.51c.08,0,.2,0,.29.28l1.23,3.62c0,.1.1.29.26.29H86.7a.2.2,0,0,0,.16-.08.17.17,0,0,0,0-.17Zm-.27-3.08v.83a1,1,0,0,1-1,1h-.89a.38.38,0,0,1-.36-.38h0V10.1a.32.32,0,0,1,0,0,.36.36,0,0,1,.33-.36h.92a1,1,0,0,1,1,1v0Z" transform="translate(0 0)" style="fill:#fff"/><path d="M93.07,6.31h-.25a3,3,0,0,0-2.17,1,3.19,3.19,0,0,0-.89,2.21s0,.05,0,.08V16s0,0,0,.06a3.26,3.26,0,0,0,.89,2.25,2.67,2.67,0,0,0,2.13.85h.35a2.68,2.68,0,0,0,2-.95,3.32,3.32,0,0,0,.94-2.31V9.55a3.25,3.25,0,0,0-1-2.3,2.75,2.75,0,0,0-2.07-.93h0Zm1.4,9.29v0A2.22,2.22,0,0,1,94,17a1.27,1.27,0,0,1-1.05.56,1.37,1.37,0,0,1-1.1-.55,2.22,2.22,0,0,1-.45-1.34V9.86a2.24,2.24,0,0,1,.45-1.35A1.4,1.4,0,0,1,93,7.9,1.28,1.28,0,0,1,94,8.5a2.24,2.24,0,0,1,.45,1.35V15.6Z" transform="translate(0 0)" style="fill:#fff"/><path d="M40.09,18.83l.07-.37,2-11.89v0h0A.25.25,0,0,0,42,6.29H40.8a.25.25,0,0,0-.23.2l0,.17-.79,4.84-.31,2.09a.43.43,0,0,1-.4.35c-.14,0-.24-.12-.27-.35l-.67-3.53-.72-3.56a.23.23,0,0,0-.23-.22H36a.23.23,0,0,0-.2.18l0,0,0,.16-.73,3.65-.62,3.3c0,.23-.13.35-.27.35h0a.4.4,0,0,1-.39-.34l-.65-3.55-.7-3.54a.25.25,0,0,0-.24-.23H31.1a.25.25,0,0,0-.24.25v0h0v.08l2.24,12v.05l0,.19a.25.25,0,0,0,.23.15h1.26a.25.25,0,0,0,.2-.15.57.57,0,0,0,.08-.23l1.42-7.42c.06-.3.13-.4.25-.4s.19.1.25.4l1.5,7.58a.26.26,0,0,0,.23.21h1.3a.23.23,0,0,0,.2-.18Z" transform="translate(0 0)" style="fill:#fff"/><path d="M105.41,6.48h-1.09a.26.26,0,0,0-.26.26h0v6.55c0,.33-.09.53-.26.53s-.3-.15-.39-.38L100.7,6.8c-.09-.22-.2-.33-.34-.33H99.23c-.25,0-.26.27-.26.27v12a.26.26,0,0,0,.26.27h1.08a.26.26,0,0,0,.26-.26h0V12c0-.27,0-.43.25-.43a.44.44,0,0,1,.35.3L104,18.76c.08.17.15.27.25.27h1.12a.26.26,0,0,0,.26-.26h0v-12h0a.26.26,0,0,0-.26-.26h0Z" transform="translate(0 0)" style="fill:#fff"/><path d="M67.56,13.58A9.55,9.55,0,0,1,66,12.05a2.58,2.58,0,0,1-.3-2.48,2.08,2.08,0,0,1,1.72-1.33,2.85,2.85,0,0,1,1.92.31,3.15,3.15,0,0,1,1.23,1.94c0,.16,0,.26-.2.31s-.84.2-.84.2l-.09,0a.25.25,0,0,1-.25-.25h0a2.22,2.22,0,0,0-.53-1,1.15,1.15,0,0,0-1-.18.84.84,0,0,0-.65.56,1.14,1.14,0,0,0,.2,1.11,5,5,0,0,0,.87.86c.17.14.34.28.48.43a10.67,10.67,0,0,1,1.83,1.73,2.69,2.69,0,0,1,.41,2.1,2.6,2.6,0,0,1-2,1.87,3.08,3.08,0,0,1-.61.06,3,3,0,0,1-1.6-.46,3.18,3.18,0,0,1-1.18-2l-.07-.26s-.08-.23.21-.31l.89-.24h.07a.24.24,0,0,1,.24.2,3,3,0,0,0,.43,1.08,1.31,1.31,0,0,0,1,.52,1.33,1.33,0,0,0,.41-.06,1.08,1.08,0,0,0,.62-1.42c-.18-.6-1.59-1.74-1.61-1.77Z" transform="translate(0 0)" style="fill:#fff"/><path d="M113.91,17.4h-3.1a.61.61,0,0,1-.6-.6h0v-3a.61.61,0,0,1,.6-.61h2.25a.28.28,0,0,0,.26-.25V11.89a.27.27,0,0,0-.26-.25h-2.24a.61.61,0,0,1-.6-.61h0V8.75s0,0,0-.05a.76.76,0,0,1,.15-.45h0l0,0,.07-.06h0l.05,0a1,1,0,0,1,.35-.06h2.88a.29.29,0,0,0,.28-.25v-1h0a.29.29,0,0,0-.28-.28h-4.91a.27.27,0,0,0-.23.26h0V18.81a.3.3,0,0,0,.25.21h5a.28.28,0,0,0,.26-.23c0-.13,0,0,0,0V17.67h0a.26.26,0,0,0-.24-.26Z" transform="translate(0 0)" style="fill:#fff"/><path d="M77.9,8.93a2.6,2.6,0,0,0-1.84-.75h-.25A2.64,2.64,0,0,0,74,8.93a2.52,2.52,0,0,0-.73,1.78v5a2.55,2.55,0,0,0,2.55,2.55h.31a2.52,2.52,0,0,0,1.8-.76,2.58,2.58,0,0,0,.74-1.81v-5a2.52,2.52,0,0,0-.74-1.79ZM77,15.43h0a2.3,2.3,0,0,1,0,.29s0,0,0,0v.07a.58.58,0,0,1,0,.1h0a1.29,1.29,0,0,1-.24.47,1,1,0,0,1-.8.39,1.07,1.07,0,0,1-.82-.39,1.51,1.51,0,0,1-.29-.9s0-.06,0-.09V11.09s0,0,0-.08a1.55,1.55,0,0,1,.3-.92A1.08,1.08,0,0,1,76,9.67h0a.86.86,0,0,1,.32.06,1,1,0,0,1,.44.35A1.61,1.61,0,0,1,77,11s0,0,0,.07Z" transform="translate(0 0)" style="fill:#fff"/><path d="M13.68,6.33v.57h0a1.05,1.05,0,0,1,.72.28,1.16,1.16,0,0,1,.22.68s0,.07,0,.11a3.17,3.17,0,0,1,0,.49c0,.19,0,.38-.07.59l-1.42,9.64L11.61,6.91h.6V6.33H9v.57h.64L10,9.1,8.39,18.76,7,6.91h.63V6.33H4.59v.57h.48l2,16.38H8.54l1.75-11.6,1.4,11.59h1.5l1.64-11.5.4-2.52a6.69,6.69,0,0,1,.47-2,.8.8,0,0,1,.68-.4V6.33Z" transform="translate(0 0)" style="fill:#fff"/><path d="M25.6,3.65V2.59l-.87-.41A25.13,25.13,0,0,0,18.6.39,36.51,36.51,0,0,0,13,0h-.47A36,36,0,0,0,7,.39,24.54,24.54,0,0,0,.87,2.18L0,2.59v1s0,4.37,0,6v.22A76.22,76.22,0,0,0,.54,18l0,.25a22.32,22.32,0,0,0,2.28,7.23,11.17,11.17,0,0,0,4.66,4.38,23.25,23.25,0,0,0,4.7,2l.58.16.41-.12a23.91,23.91,0,0,0,5-2.12,11,11,0,0,0,4.54-4.32A22.24,22.24,0,0,0,25,18.2l0-.23a73.44,73.44,0,0,0,.51-8.16V9.54c0-1.28,0-4.24,0-5.89ZM24,9.51v.23a73,73,0,0,1-.49,7.95l0,.25a20.79,20.79,0,0,1-2.1,6.71,9.63,9.63,0,0,1-4.06,3.78A22.06,22.06,0,0,1,13,30.29,18.9,18.9,0,0,1,8.2,28.37a9.5,9.5,0,0,1-4-3.72,21,21,0,0,1-2.1-6.71l0-.24a73.08,73.08,0,0,1-.49-8V9.51c0-1.48,0-5.4,0-5.9A23.18,23.18,0,0,1,7.3,2a35.34,35.34,0,0,1,5.26-.37H13A35.68,35.68,0,0,1,18.31,2,23.46,23.46,0,0,1,24,3.6c0,.51,0,4.43,0,5.9Z" transform="translate(0 0)" style="fill:#fff"/><path d="M19.18,22.71V6.33h-.95A3.15,3.15,0,0,1,16.5,8.55l0,.68c.31-.14.62-.31.62-.31V22.71h-.63v.57h3.16v-.57Z" transform="translate(0 0)" style="fill:#fff"/></svg>