<svg xmlns="http://www.w3.org/2000/svg" viewBox="0 0 851.84 160.56"><title>logo</title><g id="Layer_2" data-name="Layer 2"><g id="Layer_1-2" data-name="Layer 1"><polygon points="41.71 158.5 0 158.5 91.7 0 112.52 35.84 41.71 158.5" style="fill:#fff"/><path d="M183.93,160.56h-7c-62.61,0-94.37-52.11-70.47-94.61h0l11.44-19.86Z" style="fill:#fff"/><path d="M287.74,85.11h-36L246,100.17H230.33L261.16,21.7h17.18l30.82,78.47H293.51ZM255.63,73h28.24L269.74,35.58Z" style="fill:#fff"/><path d="M312.68,21.7H325v78.47H312.68Z" style="fill:#fff"/><path d="M336.33,21.7h12.35V51.23a22.47,22.47,0,0,1,18.24-9.29c14.59,0,25.18,11.53,25.18,29.88,0,18.71-10.71,29.76-25.18,29.76a22.84,22.84,0,0,1-18.24-9.18v7.77H336.33Zm26.94,68.94c9.88,0,16.12-7.77,16.12-18.82s-6.23-18.94-16.12-18.94c-5.76,0-11.88,3.53-14.59,7.76V83.11C351.39,87.35,357.51,90.64,363.27,90.64Z" style="fill:#fff"/><path d="M434.68,94.05c-4.24,4.82-10.82,7.53-18.35,7.53-9.29,0-19.77-6.24-19.77-18.82,0-13.06,10.47-18.47,19.77-18.47,7.65,0,14.24,2.47,18.35,7.29V63.11c0-6.59-5.41-10.59-13.29-10.59-6.35,0-11.88,2.35-16.82,7.18l-5.06-8.59a33.79,33.79,0,0,1,23.88-9.18C436,41.93,447,47.23,447,62.52v37.65H434.68Zm0-15.41c-2.82-3.88-8.12-5.88-13.53-5.88-6.94,0-12.12,4-12.12,10.24s5.18,10.12,12.12,10.12c5.41,0,10.71-2,13.53-5.88Z" style="fill:#fff"/><path d="M496.68,64.64c0-8.82-4.47-11.76-11.41-11.76a18.7,18.7,0,0,0-14.59,7.65v39.65H458.33V43.35h12.35v7.76a26.89,26.89,0,0,1,20-9.18c12.24,0,18.35,6.59,18.35,18.23v40H496.68Z" style="fill:#fff"/><path d="M516.8,71.7C516.8,55.46,528,41.93,546,41.93c18.24,0,29.3,13.53,29.3,29.76s-11.06,29.88-29.3,29.88C528,101.58,516.8,88.05,516.8,71.7Zm45.65,0c0-10-5.88-18.82-16.47-18.82S529.62,61.7,529.62,71.7,535.5,90.64,546,90.64,562.45,81.82,562.45,71.7Z" style="fill:#fff"/><path d="M589.27,61c0-24.12,18-40.59,41.18-40.59,15.88,0,25.65,8.23,31.53,17.65l-11.77,6a23.3,23.3,0,0,0-19.77-11.41c-15.53,0-27.06,11.88-27.06,28.35s11.53,28.35,27.06,28.35a23,23,0,0,0,19.77-11.41l11.77,6c-6,9.41-15.65,17.65-31.53,17.65C607.27,101.58,589.27,85.11,589.27,61Z" style="fill:#fff"/><path d="M668,21.7h12.35v78.47H668Z" style="fill:#fff"/><path d="M690.09,28.76a7.65,7.65,0,1,1,7.65,7.65A7.71,7.71,0,0,1,690.09,28.76Zm1.53,14.59H704v56.82H691.62Z" style="fill:#fff"/><path d="M753.62,64.64c0-8.82-4.47-11.76-11.41-11.76a18.7,18.7,0,0,0-14.59,7.65v39.65H715.27V43.35h12.35v7.76a26.89,26.89,0,0,1,20-9.18c12.24,0,18.35,6.59,18.35,18.23v40H753.62Z" style="fill:#fff"/><path d="M775.74,28.76a7.65,7.65,0,1,1,7.65,7.65A7.71,7.71,0,0,1,775.74,28.76Zm1.53,14.59h12.35v56.82H777.27Z" style="fill:#fff"/><path d="M826.79,41.93c11.06,0,17.77,4.71,21.77,10.12l-8.12,7.53a15.17,15.17,0,0,0-13.06-6.71c-10.35,0-17.18,7.76-17.18,18.82S817,90.64,827.38,90.64a15.45,15.45,0,0,0,13.06-6.71l8.12,7.53c-4,5.41-10.71,10.12-21.77,10.12-17.29,0-29.41-12.59-29.41-29.88S809.5,41.93,826.79,41.93Z" style="fill:#fff"/><path d="M229.05,123.49a.65.65,0,0,1,.64-.65H234a4.51,4.51,0,0,1,3.25,1.14,3.16,3.16,0,0,1,.88,2.26v0c0,1.88-1.27,3-3.06,3.32l2.84,3.66a.7.7,0,0,1,.21.47.67.67,0,0,1-.65.64.75.75,0,0,1-.61-.34l-3.22-4.18h-3.29v3.87a.65.65,0,1,1-1.29,0Zm4.8,5.18c1.72,0,2.94-.88,2.94-2.35v0c0-1.41-1.08-2.26-2.92-2.26h-3.53v4.64Z" style="fill:#fff"/><path d="M242.5,133.62V123.49a.65.65,0,0,1,.64-.65h7.11a.59.59,0,1,1,0,1.18h-6.46v3.91h5.72a.6.6,0,0,1,.59.59.59.59,0,0,1-.59.59h-5.72v4h6.54a.59.59,0,1,1,0,1.18h-7.19A.65.65,0,0,1,242.5,133.62Z" style="fill:#fff"/><path d="M254.57,128.59v0a5.74,5.74,0,0,1,5.74-5.92,6.09,6.09,0,0,1,3.91,1.23.65.65,0,0,1-.38,1.18.68.68,0,0,1-.41-.16,4.85,4.85,0,0,0-3.17-1,4.47,4.47,0,0,0-4.35,4.69v0a4.42,4.42,0,0,0,4.53,4.75,5.39,5.39,0,0,0,3.3-1.14v-2.84h-3.07a.58.58,0,0,1,0-1.16h3.68a.65.65,0,0,1,.64.65v3.48a.92.92,0,0,1-.44.78,7,7,0,0,1-4.15,1.39A5.61,5.61,0,0,1,254.57,128.59Z" style="fill:#fff"/><path d="M269.52,133.62V123.49a.65.65,0,0,1,.64-.65h7.11a.59.59,0,1,1,0,1.18h-6.46v3.91h5.72a.6.6,0,0,1,.59.59.59.59,0,0,1-.59.59h-5.72v4h6.54a.59.59,0,0,1,0,1.18h-7.19A.65.65,0,0,1,269.52,133.62Z" style="fill:#fff"/><path d="M282.09,123.42a.65.65,0,0,1,.64-.64h.18a.79.79,0,0,1,.65.38l6.95,8.86v-8.63a.63.63,0,1,1,1.26,0v10.33a.58.58,0,0,1-.59.61h-.06a.88.88,0,0,1-.67-.39l-7.09-9.07v8.86a.63.63,0,1,1-1.26,0Z" style="fill:#fff"/><path d="M296.63,133.62V123.49a.65.65,0,0,1,.64-.65h7.11a.59.59,0,1,1,0,1.18h-6.45v3.91h5.72a.6.6,0,0,1,.59.59.59.59,0,0,1-.59.59h-5.72v4h6.54a.59.59,0,0,1,0,1.18h-7.19A.65.65,0,0,1,296.63,133.62Z" style="fill:#fff"/><path d="M309.21,123.49a.65.65,0,0,1,.64-.65h4.28a4.51,4.51,0,0,1,3.25,1.14,3.16,3.16,0,0,1,.88,2.26v0c0,1.88-1.27,3-3.06,3.32l2.84,3.66a.7.7,0,0,1,.21.47.67.67,0,0,1-.65.64.75.75,0,0,1-.6-.34l-3.22-4.18H310.5v3.87a.65.65,0,1,1-1.29,0Zm4.8,5.18c1.72,0,2.94-.88,2.94-2.35v0c0-1.41-1.08-2.26-2.93-2.26H310.5v4.64Z" style="fill:#fff"/><path d="M322,133.42l4.64-10.15a.84.84,0,0,1,.82-.57h.07a.82.82,0,0,1,.8.57l4.64,10.13a.87.87,0,0,1,.08.33.62.62,0,0,1-.62.62.7.7,0,0,1-.64-.47l-1.19-2.63h-6.28l-1.19,2.66a.65.65,0,0,1-.62.44.59.59,0,0,1-.59-.59A.74.74,0,0,1,322,133.42Zm8.09-3.35-2.63-5.85-2.63,5.85Z" style="fill:#fff"/><path d="M338.71,124H335.4a.6.6,0,0,1-.6-.59.61.61,0,0,1,.6-.6h7.94a.61.61,0,0,1,.6.6.6.6,0,0,1-.6.59H340v9.67a.65.65,0,0,1-1.31,0Z" style="fill:#fff"/><path d="M348,123.41a.65.65,0,1,1,1.29,0v10.3a.65.65,0,1,1-1.29,0Z" style="fill:#fff"/><path d="M358,133.87l-4.41-10.18a.59.59,0,0,1-.07-.29.66.66,0,0,1,.65-.64.72.72,0,0,1,.67.49l4,9.48,4-9.51a.76.76,0,0,1,.64-.46.64.64,0,0,1,.64.62.68.68,0,0,1,0,.26l-4.43,10.23a.79.79,0,0,1-.75.54h-.07A.77.77,0,0,1,358,133.87Z" style="fill:#fff"/><path d="M368.08,133.62V123.49a.65.65,0,0,1,.64-.65h7.11a.59.59,0,1,1,0,1.18h-6.45v3.91h5.72a.6.6,0,0,1,.59.59.59.59,0,0,1-.59.59h-5.72v4h6.54a.59.59,0,0,1,0,1.18h-7.19A.65.65,0,0,1,368.08,133.62Z" style="fill:#fff"/><path d="M386.69,128.59v0a5.83,5.83,0,1,1,11.67,0v0a5.83,5.83,0,1,1-11.67,0Zm10.33,0v0a4.55,4.55,0,0,0-4.51-4.72,4.49,4.49,0,0,0-4.48,4.69v0a4.55,4.55,0,0,0,4.51,4.72A4.49,4.49,0,0,0,397,128.59Z" style="fill:#fff"/><path d="M402.71,123.49a.65.65,0,0,1,.64-.65h4.28a4.51,4.51,0,0,1,3.25,1.14,3.16,3.16,0,0,1,.88,2.26v0c0,1.88-1.27,3-3.06,3.32l2.84,3.66a.7.7,0,0,1,.21.47.67.67,0,0,1-.65.64.75.75,0,0,1-.6-.34l-3.22-4.18H404v3.87a.65.65,0,1,1-1.29,0Zm4.8,5.18c1.72,0,2.94-.88,2.94-2.35v0c0-1.41-1.08-2.26-2.93-2.26H404v4.64Z" style="fill:#fff"/><path d="M419.07,124h-3.32a.6.6,0,0,1-.6-.59.61.61,0,0,1,.6-.6h7.94a.61.61,0,0,1,.61.6.6.6,0,0,1-.61.59h-3.32v9.67a.65.65,0,0,1-1.31,0Z" style="fill:#fff"/><path d="M428.26,123.41a.65.65,0,1,1,1.29,0v4.51h6.6v-4.51a.65.65,0,1,1,1.29,0v10.3a.65.65,0,1,1-1.29,0v-4.58h-6.6v4.58a.65.65,0,1,1-1.29,0Z" style="fill:#fff"/><path d="M441.8,128.59v0a5.83,5.83,0,1,1,11.67,0v0a5.83,5.83,0,1,1-11.67,0Zm10.33,0v0a4.55,4.55,0,0,0-4.51-4.72,4.49,4.49,0,0,0-4.48,4.69v0a4.55,4.55,0,0,0,4.51,4.72A4.49,4.49,0,0,0,452.13,128.59Z" style="fill:#fff"/><path d="M457.83,123.49a.65.65,0,0,1,.64-.65h3.64c2.58,0,4.28,1.37,4.28,3.63v0c0,2.47-2.06,3.74-4.49,3.74h-2.78v3.47a.65.65,0,1,1-1.29,0Zm4.12,5.57c1.9,0,3.14-1,3.14-2.52v0c0-1.63-1.23-2.48-3.07-2.48h-2.89v5Z" style="fill:#fff"/><path d="M470.37,133.62V123.49a.65.65,0,0,1,.64-.65h7.11a.59.59,0,1,1,0,1.18h-6.46v3.91h5.72a.6.6,0,0,1,.59.59.59.59,0,0,1-.59.59h-5.72v4h6.54a.59.59,0,0,1,0,1.18H471A.65.65,0,0,1,470.37,133.62Z" style="fill:#fff"/><path d="M483,123.49a.65.65,0,0,1,.64-.65h3.33c3.6,0,6.08,2.47,6.08,5.69v0a5.73,5.73,0,0,1-6.08,5.72h-3.33a.65.65,0,0,1-.64-.65Zm4,9.59a4.43,4.43,0,0,0,4.74-4.49v0a4.45,4.45,0,0,0-4.74-4.53h-2.68v9.05Z" style="fill:#fff"/><path d="M497.47,123.41a.65.65,0,1,1,1.29,0v10.3a.65.65,0,1,1-1.29,0Z" style="fill:#fff"/><path d="M503.24,128.59v0a5.76,5.76,0,0,1,5.78-5.92,5.92,5.92,0,0,1,4.09,1.49.7.7,0,0,1,.26.52.66.66,0,0,1-.65.64.78.78,0,0,1-.42-.15,4.68,4.68,0,0,0-3.29-1.31,4.49,4.49,0,0,0-4.43,4.69v0a4.51,4.51,0,0,0,4.43,4.72,4.69,4.69,0,0,0,3.4-1.39.59.59,0,0,1,.41-.18.64.64,0,0,1,.62.62.61.61,0,0,1-.21.46,5.86,5.86,0,0,1-4.25,1.68A5.7,5.7,0,0,1,503.24,128.59Z" style="fill:#fff"/><path d="M517,132.9a.58.58,0,0,1-.24-.49.62.62,0,0,1,.62-.64.57.57,0,0,1,.39.15,5.21,5.21,0,0,0,3.61,1.36c1.54,0,2.55-.82,2.55-1.95v0c0-1.06-.57-1.67-3-2.17-2.63-.57-3.84-1.42-3.84-3.3v0c0-1.8,1.59-3.12,3.76-3.12a5.83,5.83,0,0,1,3.64,1.13.66.66,0,0,1,.28.52.62.62,0,0,1-.62.62.6.6,0,0,1-.38-.11,4.79,4.79,0,0,0-3-1c-1.49,0-2.44.82-2.44,1.85v0c0,1.08.59,1.68,3.11,2.22s3.73,1.49,3.73,3.24v0c0,2-1.63,3.24-3.91,3.24A6.68,6.68,0,0,1,517,132.9Z" style="fill:#fff"/><path d="M536.39,121.69a.53.53,0,1,1,1.06,0v14.22a.53.53,0,1,1-1.06,0Z" style="fill:#fff"/><path d="M548.77,132.9a.58.58,0,0,1-.24-.49.62.62,0,0,1,.62-.64.57.57,0,0,1,.39.15,5.21,5.21,0,0,0,3.61,1.36c1.54,0,2.55-.82,2.55-1.95v0c0-1.06-.57-1.67-3-2.17-2.63-.57-3.84-1.42-3.84-3.3v0c0-1.8,1.59-3.12,3.76-3.12a5.83,5.83,0,0,1,3.64,1.13.66.66,0,0,1,.28.52.62.62,0,0,1-.62.62.6.6,0,0,1-.38-.11,4.79,4.79,0,0,0-3-1c-1.49,0-2.44.82-2.44,1.85v0c0,1.08.59,1.68,3.11,2.22s3.73,1.49,3.73,3.24v0c0,2-1.63,3.24-3.91,3.24A6.68,6.68,0,0,1,548.77,132.9Z" style="fill:#fff"/><path d="M561.26,123.49a.65.65,0,0,1,.64-.65h3.64c2.58,0,4.28,1.37,4.28,3.63v0c0,2.47-2.06,3.74-4.49,3.74h-2.78v3.47a.65.65,0,1,1-1.29,0Zm4.12,5.57c1.9,0,3.14-1,3.14-2.52v0c0-1.63-1.23-2.48-3.07-2.48h-2.89v5Z" style="fill:#fff"/><path d="M573.3,128.59v0a5.83,5.83,0,1,1,11.67,0v0a5.83,5.83,0,1,1-11.67,0Zm10.33,0v0a4.55,4.55,0,0,0-4.51-4.72,4.49,4.49,0,0,0-4.48,4.69v0a4.55,4.55,0,0,0,4.51,4.72A4.49,4.49,0,0,0,583.63,128.59Z" style="fill:#fff"/><path d="M589.33,123.49a.65.65,0,0,1,.64-.65h4.28A4.51,4.51,0,0,1,597.5,124a3.16,3.16,0,0,1,.88,2.26v0c0,1.88-1.27,3-3.06,3.32l2.84,3.66a.7.7,0,0,1,.21.47.67.67,0,0,1-.65.64.75.75,0,0,1-.6-.34l-3.22-4.18h-3.29v3.87a.65.65,0,1,1-1.29,0Zm4.8,5.18c1.72,0,2.94-.88,2.94-2.35v0c0-1.41-1.08-2.26-2.93-2.26h-3.53v4.64Z" style="fill:#fff"/><path d="M605.68,124h-3.32a.6.6,0,0,1-.6-.59.61.61,0,0,1,.6-.6h7.94a.61.61,0,0,1,.6.6.6.6,0,0,1-.6.59H607v9.67a.65.65,0,0,1-1.31,0Z" style="fill:#fff"/><path d="M614.22,132.9a.58.58,0,0,1-.24-.49.62.62,0,0,1,.62-.64.57.57,0,0,1,.39.15,5.21,5.21,0,0,0,3.61,1.36c1.54,0,2.55-.82,2.55-1.95v0c0-1.06-.57-1.67-3-2.17-2.63-.57-3.84-1.42-3.84-3.3v0c0-1.8,1.59-3.12,3.76-3.12a5.83,5.83,0,0,1,3.64,1.13.66.66,0,0,1,.28.52.62.62,0,0,1-.62.62.6.6,0,0,1-.38-.11,4.79,4.79,0,0,0-3-1c-1.49,0-2.44.82-2.44,1.85v0c0,1.08.59,1.68,3.11,2.22s3.73,1.49,3.73,3.24v0c0,2-1.63,3.24-3.91,3.24A6.68,6.68,0,0,1,614.22,132.9Z" style="fill:#fff"/><path d="M633.25,123.42a.65.65,0,0,1,.64-.64H634a.71.71,0,0,1,.61.34l4.09,6.14,4.09-6.14a.69.69,0,0,1,.6-.34h.15a.65.65,0,0,1,.64.64V133.7a.65.65,0,0,1-.64.65.67.67,0,0,1-.65-.65v-8.53l-3.66,5.38a.63.63,0,0,1-.54.33.66.66,0,0,1-.56-.33l-3.64-5.36v8.53a.63.63,0,1,1-1.26,0Z" style="fill:#fff"/><path d="M649.07,133.62V123.49a.65.65,0,0,1,.64-.65h7.11a.59.59,0,1,1,0,1.18h-6.45v3.91h5.72a.6.6,0,0,1,.59.59.59.59,0,0,1-.59.59h-5.72v4h6.54a.59.59,0,0,1,0,1.18H649.7A.65.65,0,0,1,649.07,133.62Z" style="fill:#fff"/><path d="M661.64,123.49a.65.65,0,0,1,.64-.65h3.33c3.6,0,6.08,2.47,6.08,5.69v0a5.73,5.73,0,0,1-6.08,5.72h-3.33a.65.65,0,0,1-.64-.65Zm4,9.59a4.43,4.43,0,0,0,4.74-4.49v0a4.45,4.45,0,0,0-4.74-4.53h-2.68v9.05Z" style="fill:#fff"/><path d="M676.17,123.41a.65.65,0,1,1,1.29,0v10.3a.65.65,0,1,1-1.29,0Z" style="fill:#fff"/><path d="M681.93,128.59v0a5.76,5.76,0,0,1,5.78-5.92,5.91,5.91,0,0,1,4.09,1.49.7.7,0,0,1,.26.52.66.66,0,0,1-.65.64.78.78,0,0,1-.43-.15,4.68,4.68,0,0,0-3.28-1.31,4.49,4.49,0,0,0-4.43,4.69v0a4.52,4.52,0,0,0,4.43,4.72,4.69,4.69,0,0,0,3.4-1.39.59.59,0,0,1,.41-.18.64.64,0,0,1,.62.62.61.61,0,0,1-.21.46,5.86,5.86,0,0,1-4.25,1.68A5.71,5.71,0,0,1,681.93,128.59Z" style="fill:#fff"/><path d="M696.24,123.41a.65.65,0,1,1,1.29,0v10.3a.65.65,0,1,1-1.29,0Z" style="fill:#fff"/><path d="M702.51,123.42a.65.65,0,0,1,.64-.64h.18a.79.79,0,0,1,.65.38l6.94,8.86v-8.63a.63.63,0,1,1,1.26,0v10.33a.58.58,0,0,1-.59.61h-.07a.88.88,0,0,1-.67-.39l-7.09-9.07v8.86a.63.63,0,1,1-1.26,0Z" style="fill:#fff"/><path d="M717.05,133.62V123.49a.65.65,0,0,1,.64-.65h7.11a.59.59,0,0,1,0,1.18h-6.46v3.91h5.72a.6.6,0,0,1,.59.59.59.59,0,0,1-.59.59h-5.72v4h6.54a.59.59,0,0,1,0,1.18h-7.19A.65.65,0,0,1,717.05,133.62Z" style="fill:#fff"/><path d="M736.49,121.69a.53.53,0,1,1,1.06,0v14.22a.53.53,0,1,1-1.06,0Z" style="fill:#fff"/><path d="M748.6,123.7a.93.93,0,0,1-.07-.29.68.68,0,0,1,.67-.65.73.73,0,0,1,.67.54l3.15,9.09,3-9.12a.65.65,0,0,1,.64-.51h.08a.66.66,0,0,1,.64.51l3,9.12,3.17-9.12a.66.66,0,0,1,.62-.51.68.68,0,0,1,.65.64,1.06,1.06,0,0,1-.08.31l-3.66,10.17a.72.72,0,0,1-.67.56h-.1a.72.72,0,0,1-.67-.56l-3-8.79-3,8.79a.72.72,0,0,1-.67.56h-.1a.7.7,0,0,1-.67-.56Z" style="fill:#fff"/><path d="M768.9,133.62V123.49a.65.65,0,0,1,.64-.65h7.11a.59.59,0,0,1,0,1.18h-6.46v3.91h5.72a.6.6,0,0,1,.59.59.59.59,0,0,1-.59.59h-5.72v4h6.54a.59.59,0,0,1,0,1.18h-7.19A.65.65,0,0,1,768.9,133.62Z" style="fill:#fff"/><path d="M781.48,123.41a.65.65,0,1,1,1.29,0v9.67h5.93a.6.6,0,0,1,.59.6.59.59,0,0,1-.59.59h-6.59a.65.65,0,0,1-.64-.65Z" style="fill:#fff"/><path d="M793.22,123.41a.65.65,0,1,1,1.29,0v9.67h5.93a.6.6,0,0,1,.59.6.59.59,0,0,1-.59.59h-6.59a.65.65,0,0,1-.64-.65Z" style="fill:#fff"/><path d="M805,123.42a.65.65,0,0,1,.64-.64h.18a.79.79,0,0,1,.65.38l6.95,8.86v-8.63a.63.63,0,1,1,1.26,0v10.33a.58.58,0,0,1-.59.61H814a.89.89,0,0,1-.67-.39l-7.09-9.07v8.86a.63.63,0,1,1-1.26,0Z" style="fill:#fff"/><path d="M819.51,133.62V123.49a.65.65,0,0,1,.64-.65h7.11a.59.59,0,0,1,0,1.18H820.8v3.91h5.72a.6.6,0,0,1,.59.59.59.59,0,0,1-.59.59H820.8v4h6.54a.59.59,0,1,1,0,1.18h-7.19A.65.65,0,0,1,819.51,133.62Z" style="fill:#fff"/><path d="M831.68,132.9a.58.58,0,0,1-.25-.49.62.62,0,0,1,.62-.64.57.57,0,0,1,.39.15,5.21,5.21,0,0,0,3.61,1.36c1.54,0,2.55-.82,2.55-1.95v0c0-1.06-.57-1.67-3-2.17-2.63-.57-3.84-1.42-3.84-3.3v0c0-1.8,1.59-3.12,3.76-3.12a5.83,5.83,0,0,1,3.64,1.13.66.66,0,0,1,.28.52.62.62,0,0,1-.62.62.6.6,0,0,1-.38-.11,4.79,4.79,0,0,0-3-1c-1.49,0-2.43.82-2.43,1.85v0c0,1.08.59,1.68,3.1,2.22s3.73,1.49,3.73,3.24v0c0,2-1.63,3.24-3.91,3.24A6.68,6.68,0,0,1,831.68,132.9Z" style="fill:#fff"/><path d="M843.6,132.9a.58.58,0,0,1-.24-.49.62.62,0,0,1,.62-.64.57.57,0,0,1,.39.15,5.21,5.21,0,0,0,3.61,1.36c1.54,0,2.55-.82,2.55-1.95v0c0-1.06-.57-1.67-3-2.17-2.63-.57-3.84-1.42-3.84-3.3v0c0-1.8,1.59-3.12,3.76-3.12a5.83,5.83,0,0,1,3.64,1.13.66.66,0,0,1,.28.52.62.62,0,0,1-.62.62.6.6,0,0,1-.38-.11,4.79,4.79,0,0,0-3-1c-1.49,0-2.44.82-2.44,1.85v0c0,1.08.59,1.68,3.11,2.22s3.73,1.49,3.73,3.24v0c0,2-1.63,3.24-3.91,3.24A6.68,6.68,0,0,1,843.6,132.9Z" style="fill:#fff"/></g></g></svg>