<?xml version="1.0" encoding="utf-8"?>
<!-- Generator: Adobe Illustrator 24.1.0, SVG Export Plug-In . SVG Version: 6.00 Build 0)  -->
<svg version="1.1" id="Layer_1" xmlns="http://www.w3.org/2000/svg" xmlns:xlink="http://www.w3.org/1999/xlink" x="0px" y="0px"
	 viewBox="0 0 15 15" style="enable-background:new 0 0 15 15;" xml:space="preserve">
<style type="text/css">
	.st0{fill:#595977;stroke:#595977;stroke-width:0.25;stroke-miterlimit:10;}
</style>
<path class="st0" d="M14.4,13.2l-3-2.9c0.9-1.1,1.3-2.4,1.3-3.8c0-3.4-2.8-6.2-6.2-6.1C3.1,0.3,0.3,3,0.3,6.4c0,3.4,2.8,6.2,6.2,6.1
	c1.4,0,2.7-0.5,3.8-1.3l3,3c0.1,0.1,0.3,0.2,0.5,0.2c0.2,0,0.4-0.1,0.5-0.2c0.1-0.1,0.2-0.3,0.2-0.5C14.6,13.5,14.6,13.3,14.4,13.2z
	 M6.5,1.7c2.6,0,4.7,2.1,4.8,4.7c0,1.3-0.5,2.5-1.4,3.3c-0.9,0.9-2.1,1.4-3.4,1.3c-1.3,0-2.5-0.5-3.4-1.3C2.3,8.9,1.7,7.7,1.7,6.4
	c0-1.3,0.5-2.5,1.4-3.3S5.3,1.7,6.5,1.7z"/>
</svg>
