<svg xmlns="http://www.w3.org/2000/svg" width="130" height="62" viewBox="0 0 130 62"><g fill="#FFF" fill-rule="evenodd"><path d="M-4.56060116e-23,14.6655556 C-4.56060116e-23,15.6942222 0.764666667,16.3217778 1.36822222,16.7971111 C3.07577778,18.142 8.13888889,19.862 10.1004444,20.3971111 C11.17,20.6888889 10.8731111,20.7293333 11.904,22.0933333 C12.8895556,23.3975556 15.1655556,26.4413333 15.1655556,27.998 C15.1655556,28.5568889 14.7515556,28.748 14.3322222,28.748 C13.2555556,28.748 11.4728889,26.7633333 10.8115556,26.1022222 C9.58155556,24.872 9.46666667,24.6608889 8.56155556,23.6857778 C8.19,23.2855556 8.21511111,23.2266667 7.74933333,22.9148889 C7.52311111,23.2526667 7.28133333,23.4295556 6.83666667,24.1686667 C6.58622222,24.5846667 5.36933333,26.7226667 5.48333333,27.0993333 C5.584,27.432 8.61888889,29.9877778 8.97311111,30.274 L10.8511111,31.6457778 C11.7888889,32.2502222 11.2028889,33.2475556 10.7491111,33.2475556 C9.02777778,33.2475556 8.30088889,32.8257778 6.85866667,31.9715556 C6.38822222,31.6928889 5.92288889,31.3811111 5.49977778,31.0808889 C5.18222222,30.8553333 4.52088889,30.2842222 4.08288889,30.2477778 C4.07355556,30.6742222 3.74955556,32.6626667 3.74955556,33.7475556 C3.74955556,35.49 3.81022222,35.3 6.68355556,35.98 C7.41155556,36.1522222 8.03377778,36.2795556 8.79755556,36.4491111 C9.96066667,36.7073333 10.4157778,36.7453333 10.4157778,37.7473333 C10.4157778,39.2673333 7.392,38.3042222 6.76622222,38.1471111 C3.04666667,37.2133333 3.48488889,36.8284444 4.23044444,39.6828889 C4.35244444,40.1486667 4.51266667,40.5208889 4.92777778,40.6522222 C6.482,41.1426667 9.97022222,40.5235556 10.4066667,40.5855556 C10.9746667,40.6662222 12.3157778,41.6635556 12.6657778,41.6635556 C13.0484444,41.6635556 16.4933333,39.1188889 16.8546667,38.7695556 C18.0875556,37.5782222 17.6968889,38.0544444 18.9415556,36.5237778 C19.3864444,35.9766667 19.6691111,35.4104444 20.0251111,34.774 C20.8164444,33.36 21.0811111,32.6933333 22.4346667,31.434 C22.7664444,31.1251111 23.7773333,30.4406667 24.248,30.3311111 C24.1602222,29.9528889 23.5626667,29.2195556 23.2815556,28.7977778 C22.2331111,27.2251111 21.3364444,25.1122222 21.4982222,23.1648889 C21.8788889,23.1735556 22.1426667,23.302 22.4982222,23.3315556 C22.4982222,26.6031111 24.4304444,30.8311111 28.3311111,30.8311111 C29.9426667,30.8311111 31.3466667,30.4235556 32.5864444,29.7533333 C32.9826667,29.5391111 32.916,29.5137778 33.0684444,28.5686667 C33.4644444,26.1082222 34.6933333,23.6075556 37.0013333,22.5857778 C38.2546667,22.0311111 36.7562222,17.2846667 33.046,15.8668889 C30.56,14.9168889 26.8371111,15.1348889 24.8526667,17.0197778 C24.4828889,17.3711111 24.4973333,17.1891111 24.4146667,17.4986667 C24.0091111,17.4895556 23.9171111,17.3342222 23.6771111,17.1528889 C21.8908889,15.8046667 14.924,11.1493333 13.0533333,10.528 C12.1064444,10.2135556 9.12,9.86644444 8.07044444,9.98311111 C5.71755556,10.2448889 2.09688889,10.4591111 0.586222222,12.9186667 C0.344888889,13.3115556 -4.56060116e-23,14.0486667 -4.56060116e-23,14.6655556 L-4.56060116e-23,14.6655556 Z M5.24955556,11.2491111 C5.83866667,11.2491111 5.76266667,11.2935556 6.29644444,11.6188889 L8.49466667,12.9202222 C8.92422222,13.1775556 11.2395556,14.5084444 11.4157778,14.7488889 L7.25333333,14.7451111 C6.81222222,14.7113333 6.52622222,14.6033333 6.00022222,14.5815556 C5.64222222,14.5666667 5.17888889,14.5091111 4.79533333,14.4531111 L2.23577778,14.1797778 C1.74955556,14.1277778 1.40044444,14.0822222 0.916444444,14.0822222 C1.10155556,13.2877778 1.96444444,12.5931111 2.61688889,12.1995556 C3.21577778,11.8384444 4.64688889,11.2491111 5.24955556,11.2491111 L5.24955556,11.2491111 Z M0.916444444,14.9155556 C1.15688889,15.4535556 1.27288889,15.7071111 1.94977778,16.2155556 C2.79022222,16.8464444 6.11666667,18.4153333 6.58266667,18.4153333 C6.84866667,18.4153333 9.13377778,17.4908889 9.69066667,17.2735556 C10.0433333,17.136 10.2975556,17.0011111 10.6657778,16.9153333 L10.6657778,16.7488889 C10.3813333,16.6726667 10.4497778,16.6411111 10.2128889,16.4517778 C10.0446667,16.3173333 9.95733333,16.2597778 9.78511111,16.1295556 C8.886,15.4502222 9.10711111,15.7195556 8.08222222,15.6657778 L0.916444444,14.9155556 Z M10.6657778,15.6655556 C11.0317778,16.2117778 12.3911111,16.8988889 13.0702222,17.1773333 C14.7102222,17.8495556 16.9333333,19.0586667 18.3626667,19.6344444 C18.7997778,19.8106667 21.4073333,19.9151111 21.9148889,19.9151111 C21.8195556,19.8322222 21.936,19.9222222 21.7711111,19.8091111 L21.304,19.5262222 C20.1182222,18.8988889 14.7528889,15.7371111 14.3175556,15.5966667 C13.7402222,15.4102222 11.5322222,15.6655556 10.6657778,15.6655556 L10.6657778,15.6655556 Z M14.1655556,14.6655556 C14.7715556,14.6655556 15.502,15.2211111 16.1106667,15.5535556 L28.5342222,22.6284444 C28.5415556,22.6137778 28.5671111,22.6788889 28.5951111,22.6788889 L28.6644444,22.5815556 C28.5137778,22.4713333 28.3268889,22.1993333 28.1442222,22.0184444 C27.2408889,21.1224444 26.3404444,20.3715556 25.3504444,19.5626667 L21.7824444,16.8813333 C21.3413333,16.5757778 20.9786667,16.3468889 20.5313333,16.0493333 L17.3477778,13.9828889 C12.5857778,10.9275556 12.6328889,10.9157778 6.916,10.9157778 L12.1813333,14.0666667 C13.5208889,14.8751111 13.1062222,14.6655556 14.1655556,14.6655556 L14.1655556,14.6655556 Z M8.166,18.9153333 L8.166,18.7486667 C8.68511111,18.6277778 9.33733333,18.3137778 9.85644444,18.1057778 C11.9644444,17.2622222 11.3255556,17.2928889 13.6644444,18.3331111 L17.5273333,20.1364444 C18.4237778,20.5706667 18.9502222,20.6157778 19.9148889,20.6655556 C20.9086667,20.7164444 21.6075556,20.7482222 22.5324444,20.8811111 C23.924,21.0808889 23.1526667,20.5297778 24.8355556,21.4942222 C25.4342222,21.8371111 26.0095556,22.2082222 26.6364444,22.5264444 L28.4977778,23.5815556 C26.3755556,23.0871111 22.8784444,22.6357778 20.6324444,22.1144444 C19.72,21.9026667 18.9564444,21.7371111 18.0488889,21.5313333 C16.3471111,21.1457778 14.6986667,20.7146667 13.0326667,20.298 L9.40555556,19.2588889 C9.07555556,19.1566667 8.51022222,18.9437778 8.166,18.9153333 L8.166,18.9153333 Z"/><path d="M41.8300667,22.3316889 C39.4976222,21.7883556 37.0260667,22.9021333 35.5922889,24.6765778 C35.2002889,25.1614667 34.8082889,25.6145778 34.5307333,26.2814667 C33.6418444,28.4183556 33.5069556,30.1103556 34.5802889,32.2479111 C34.9494,32.9834667 35.3665111,33.5801333 35.9345111,34.1434667 C37.6009556,35.7959111 37.6018444,35.4985778 38.3294,35.1610222 C38.7094,34.9845778 38.7282889,34.8301333 39.4814,35.1792444 C40.2765111,35.5481333 40.2254,35.5512444 41.2638444,34.8476889 C41.5087333,34.6814667 41.5167333,34.6643556 41.7282889,34.4790222 C43.9349556,32.5450222 44.9362889,30.2612444 45.0331778,27.3088 C45.0387333,27.1336889 44.9965111,26.8041333 44.9965111,26.4981333 C45.5776222,26.7768 46.0409556,26.7399111 46.4162889,27.2448 C46.7365111,27.6756889 47.0120667,28.1239111 47.3425111,28.5683556 C47.6582889,28.9936889 47.9178444,29.4143556 48.2331778,29.8439111 C48.9727333,30.8503556 48.8211778,30.7970222 49.4129556,30.7476889 C49.4634,30.1428 49.5494,30.2721333 48.9836222,29.5103556 C48.7002889,29.1288 48.4762889,28.7788 48.1865111,28.3910222 C47.6991778,27.7396889 47.1511778,26.7696889 46.5107333,26.3168 L45.2549556,25.7396889 C44.4571778,25.4159111 44.7967333,24.6072444 43.7282889,23.5168 C43.4462889,23.2290222 43.0111778,22.8488 42.5800667,22.7483556 C42.8214,22.3876889 43.4231778,21.8634667 43.7676222,21.5192444 C44.4596222,20.8270222 44.2336222,20.9045778 45.2571778,20.5923556 L48.0680667,19.7370222 C49.0842889,19.3594667 48.9431778,19.3750222 48.5796222,18.8319111 L44.6302889,19.9654667 C43.8956222,20.2179111 43.6245111,20.5748 43.1427333,21.0612444 C42.7222889,21.4854667 42.1438444,21.8630222 41.8300667,22.3316889 M37.1638444,32.2474667 C35.5076222,32.2474667 35.2951778,28.3050222 36.5120667,26.4296889 C39.0656222,22.4945778 40.8438444,27.1076889 38.9705111,30.4712444 C38.6529556,31.0412444 37.9376222,32.2474667 37.1638444,32.2474667 M18.4984889,6.33288889 C18.4984889,8.83466667 20.2196,10.7164444 21.7680444,12.396 C22.4393778,13.1242222 24.5331556,14.7442222 25.3189333,15.3446667 C26.3769333,16.1531111 25.8973778,15.3831111 26.9473778,15.1982222 C28.3409333,14.9528889 30.6136,15.6673333 29.5824889,14.1642222 L25.6296,8.53466667 L21.5336,3.88111111 L18.7600444,1.40511111 C17.9787111,0.781111111 17.5411556,0.463333333 16.6653778,0 C16.3620444,0.452888889 16.0122667,0.468666667 16.2976,1.70088889 C16.6320444,3.14622222 18.5051556,5.11666667 18.5973778,5.32044444 C18.7160444,5.58355556 18.4984889,5.92577778 18.4984889,6.33288889 L18.4984889,6.33288889 Z M21.9149333,5.74955556 L22.9822667,7.34888889 C24.3936,9.54866667 25.9733778,12.3044444 27.3313778,14.3322222 L28.5811556,14.3322222 C28.2309333,13.6706667 25.9962667,10.58 25.4267111,9.82066667 L23.7364889,7.67777778 C23.5869333,7.49266667 22.0189333,5.64577778 21.9844889,5.65218866 L21.9149333,5.74955556 Z M20.1651556,8.99933333 C21.3167111,10.7188889 22.8536,12.3037778 24.4718222,13.6086667 C25.4011556,14.3577778 25.5382667,14.6655556 26.3313778,14.6655556 C26.2947111,14.2248889 25.5380444,13.1642222 25.2749333,12.7222222 L24.6998222,11.7973333 C24.2311556,11.102 24.0691556,11.0724444 23.4891556,10.8417778 L22.0453778,10.0355556 C21.7011556,9.82733333 21.4311556,9.68466667 21.0978222,9.48311111 C20.8878222,9.356 20.3760444,9.05577778 20.1651556,8.99933333 L20.1651556,8.99933333 Z M19.3318222,7.24955556 C19.3318222,5.40288889 19.5818222,5.60422222 19.5818222,5.16622222 C19.5818222,5.00422222 18.5956,4.02555556 18.1656,3.41622222 C17.5827111,2.59088889 17.2891556,2.13844444 17.0820444,1.24977778 C17.4376,1.438 17.8184889,1.75422222 18.1396,2.02555556 C19.6569333,3.30888889 19.2293778,2.84844444 20.5778222,5.08688889 L23.3456,9.76333333 L20.2444889,8.00311111 C19.9784889,7.84955556 19.3318222,7.61911111 19.3318222,7.24955556 L19.3318222,7.24955556 Z M51.9960889,3.41642222 L51.9960889,32.3308667 C51.9960889,37.0588667 52.0794222,41.5197556 52.0794222,46.2466444 C52.6763111,46.2466444 52.9125333,46.3288667 52.9125333,45.9966444 L52.9125333,17.2486444 C52.9125333,12.4650889 52.8292,7.94864444 52.8292,3.16642222 C52.2323111,3.16642222 51.9960889,3.08397778 51.9960889,3.41642222 M8.49935556,41.5801778 L6.33291111,41.5801778 C5.87024444,41.5801778 5.83868889,41.4968444 5.41624444,41.4968444 C5.41624444,42.7481778 5.93491111,43.6312889 6.81291111,44.5164 C7.20202222,44.9086222 8.5238,46.2901778 8.99935556,46.3299556 C9.19113333,45.5057333 9.74113333,44.7912889 10.2698,44.2672889 C10.5458,43.9937333 11.9991333,42.8197333 11.9991333,42.5801778 C11.9991333,42.0915111 11.9371333,41.8915111 11.5026889,41.6599556 C11.2264667,41.5128444 11.0338,41.3339556 10.6331333,41.2739556 C10.0644667,41.1888444 9.23091111,41.5801778 8.49935556,41.5801778 M30.1642667,34.0808222 C29.5327111,34.5034889 28.0324889,35.8308222 28.2356,36.6728222 C28.3102667,36.9837111 28.4460444,37.9841556 28.3536,38.3506 C28.2044889,38.9403778 28.1644889,38.6663778 28.1644889,39.4137111 C28.8416,39.4137111 28.7842667,39.5839333 29.1158222,38.2819333 C29.1878222,37.9990444 29.2116,37.8930444 29.2613778,37.5941556 C29.3878222,36.8346 29.1049333,36.7299333 30.1160444,35.9490444 C30.3413778,35.7752667 30.3658222,35.7563778 30.5596,35.5592667 L31.5120444,34.7617111 C32.1160444,34.3777111 32.2693778,34.2228222 32.6662667,33.4161556 C32.9453778,32.8488222 33.3358222,31.4017111 33.1640444,30.6643778 C32.8796,30.6706 30.9653778,31.2506 30.7707111,31.4372667 C30.1213778,32.0599333 30.1642667,33.2626 30.1642667,34.0808222 M26.4147111,39.6637111 C26.7984889,39.6637111 26.8313778,39.2717111 26.8313778,38.9970444 C26.8313778,38.6561556 25.0813778,37.8072667 25.0813778,36.7472667 C25.0813778,35.9646 25.4373778,35.7297111 25.0462667,33.7826 C24.8416,32.7643778 24.5744889,32.0219333 24.1647111,31.2477111 C23.3456,31.6406 22.3696,31.8792667 22.1260444,32.8819333 C22.0296,33.2803778 22.3382667,33.8892667 22.4669333,34.2788222 C23.4009333,37.1070444 23.4776,35.5183778 24.5807111,37.7477111 C24.8580444,38.3079333 25.6664889,39.6637111 26.4147111,39.6637111 M16.9153556,39.5803778 C17.1595778,40.0419333 19.1895778,42.0743778 19.6675778,42.3301556 C20.3064667,42.6721556 20.4251333,42.2970444 20.9982444,42.1634889 C21.2055778,42.5548222 21.7740222,43.6241556 22.0815778,43.8301556 C22.2338,43.7546 22.1858,43.7657111 22.4149111,43.7468222 C22.4149111,43.0550444 21.5144667,40.8468222 21.2473556,40.2479333 C20.9144667,39.5008222 19.6935778,37.7472667 18.7484667,37.7472667 C18.5309111,37.7472667 16.9451333,39.5359333 16.9153556,39.5803778"/><path d="M37.5805111 36.4972667C37.5805111 37.7061556 37.6847333 37.9970444 38.4969556 37.9970444 39.2640667 37.9970444 40.3445111 36.4666 39.4865111 35.8412667 39.0629556 35.5323778 38.4471778 35.5523778 37.9389556 35.7726 37.6460667 35.8997111 37.5805111 36.1143778 37.5805111 36.4972667M101.658933 25.8315111 101.742489 27.5815111C101.742489 27.9928444 101.6596 27.6546222 101.706489 28.1159556L101.742267 30.1646222C101.7416 30.7968444 101.8136 31.4581778 101.744933 31.8228444 101.714933 31.9806222 101.718489 31.8988444 101.718489 32.0401778L101.770711 40.6139556C101.7156 40.9121778 101.661156 42.0739556 101.741822 42.4975111L101.811378 43.1661778C101.806267 43.4570667 101.742489 43.5181778 101.742489 43.9135111L101.742489 45.7468444C101.742489 46.3048444 101.898489 46.5215111 101.909156 46.9966222 102.307378 47.0895111 102.493378 47.0819556 102.993378 47.0810667 103.318044 47.0804 104.906489 47.1326222 105.135822 46.9746222 105.451156 46.7570667 105.341156 46.1039556 105.355156 45.8439556L105.354711 43.1464C105.3376 42.9244 105.3956 42.7779556 105.403378 42.4946222 105.4136 42.1001778 105.327378 42.2364 105.332711 41.8317333 105.3436 41.0488444 105.3976 40.2241778 105.304933 39.4350667 105.283378 39.2512889 105.306489 39.3997333 105.283378 39.2479556 105.279822 39.2248444 105.269156 39.1675111 105.265156 39.1470667 105.262489 39.1355111 105.256267 39.1119556 105.253822 39.1006222L105.207378 38.9106222C105.178489 38.7152889 105.120267 37.8390667 105.242044 37.5806222 105.489822 37.7621778 105.8356 39.0230667 105.869156 39.1655111 105.906933 39.3250667 105.956267 39.5124 106.015378 39.8066222L107.513822 44.6039556C107.546489 44.8701778 108.032044 46.8210667 108.325156 46.9966222 108.6416 47.1484 110.342267 47.1086222 110.767822 47.1428444 111.076267 47.1675111 111.208267 47.0728444 111.188933 46.5115111 111.183378 46.3568444 111.167156 46.2772889 111.196267 46.0359556 111.223822 45.8048444 111.255822 45.6944 111.238711 45.4139556L111.238711 44.8921778C111.314267 44.6030667 111.272711 43.7172889 111.254267 43.4017333 111.2316 43.0137333 111.222489 42.5184 111.216044 42.1510667L111.303822 36.0768444C111.317378 35.8295111 111.2416 35.7937333 111.2416 35.5808444L111.269156 30.2826222C111.222489 29.9130667 111.208267 29.8590667 111.221156 29.6359556 111.246267 29.2008444 111.320044 28.0308444 111.253822 27.6399556 111.145378 27.0012889 111.371156 26.3148444 110.9916 25.7481778 110.649156 25.7766222 110.805378 25.8315111 110.491822 25.8315111 110.1116 25.8315111 110.526711 25.8150667 110.260044 25.7388444 110.246044 25.7348444 110.221378 25.7277333 110.206933 25.7244L108.241822 25.5815111C107.969822 25.5815111 107.976933 25.7675111 107.960044 26.0044 107.944489 26.2268444 107.958489 26.2395111 107.899822 26.5724 107.843156 26.8941778 107.879156 27.4646222 107.922267 27.9910667L107.956489 32.1308444C107.972711 32.5941778 107.905378 33.8032889 108.004933 34.1272889 108.068933 34.3359556 108.061378 34.3668444 107.991822 34.6644L107.643156 34.2684C107.524489 34.0101778 107.607378 34.1232889 107.568711 33.8381778 107.510044 33.4052889 107.595378 33.7639556 107.455822 33.4506222 107.342711 33.1964 107.217378 33.0048444 107.134489 32.7719556 107.044267 32.5186222 107.023822 32.2455111 106.932044 31.9744L106.005378 29.1057333C105.785822 28.2717333 105.279822 27.0139556 105.076933 26.3310667 104.9436 25.8824 104.8136 25.6879556 104.318933 25.6846222L104.196933 25.6857333C103.698044 25.6737333 103.203378 25.5006222 102.704489 25.6139556 102.464933 25.6686222 102.566933 25.5519556 102.492267 25.8315111 102.187378 25.7501778 102.3176 25.7435111 102.0756 25.5815111L101.865822 25.7048444C101.778933 25.7566222 101.722267 25.7892889 101.658933 25.8315111L101.658933 25.8315111ZM110.824933 35.4975111C110.824933 35.2844 110.956933 35.4841778 110.874711 35.4975111 110.8736 35.4977333 110.824933 35.7299556 110.824933 35.4975111L110.824933 35.4975111ZM101.992267 39.3306222 102.0756 39.3306222 102.0756 38.8306222 101.992267 38.8306222 101.992267 39.3306222ZM101.992267 40.4972889 102.0756 40.4972889 102.0756 39.9139556 101.992267 39.9139556 101.992267 40.4972889ZM101.992267 41.4137333C101.962489 41.2559556 102.097378 41.1175111 102.044933 41.3608444 102.043822 41.3666222 102.047378 41.7046222 101.992267 41.4137333L101.992267 41.4137333ZM57.1624222 10.3327111C57.1624222 11.0396 57.3559778 10.8127111 57.3764222 11.0942667 57.3984222 11.3976 57.1893111 11.4160444 56.8290889 11.4160444 56.7884222 11.9044889 56.8037556 11.4624889 56.7084222 11.7953778L56.6437556 13.2767111C56.7004222 14.4489333 56.5784222 13.7080444 56.8479778 14.4347111 56.9239778 14.6393778 56.8826444 14.6744889 57.1624222 14.7491556L57.1624222 22.8318222C57.1624222 23.3158222 57.2815333 22.5629333 57.2142 23.2684889 57.1139778 24.3220444 57.1533111 24.3316 58.1624222 24.3316 59.2088667 24.3316 63.3148667 24.4298222 64.1484222 24.1516 64.6484222 23.9847111 65.0248667 23.6420444 65.2250889 23.1451556 65.5846444 22.2538222 65.3333111 21.8149333 65.3273111 21.6382667 65.3213111 21.4569333 65.3028667 21.7189333 65.3466444 21.5109333 65.4633111 20.9569333 65.4117556 20.3720444 65.4117556 19.7487111 65.4117556 19.0773778 65.5097556 14.3536 65.2830889 13.9678222 65.1544222 13.7493778 64.9924222 13.7491556 64.8148667 13.3918222 64.7295333 13.2202667 64.7026444 13.0991556 64.3284222 12.9991556L64.3284222 12.8324889C64.9433111 12.6891556 65.2450889 11.6213778 65.2450889 11.0827111L65.1588667 9.07982222C65.0910889 8.69204444 65.0735333 8.96071111 65.1766444 8.5216 65.2824222 8.07204444 65.2859778 5.3276 65.2537556 4.41337778 65.2204222 3.46248889 64.8986444 3.03826667 63.6539778 3.01671111 63.3064222 3.01071111 63.4517556 3.10715556 63.0210889 3.06293333 61.9788667 2.95604444 62.1246444 3.00293333 61.1417556 3.03782222L58.9164222 2.99826667C57.1768667 2.98782222 57.0524222 2.69782222 57.1439778 4.36026667 57.2197556 5.73604444 57.1044222 7.20315556 57.1610889 8.33448889 57.1919778 8.9516 57.3602 8.66648889 57.2497556 9.33093333L57.1624222 10.3327111ZM64.1619778 3.33315556C64.2504222 3.24471111 64.4779778 3.4656 64.2546444 3.37648889 64.2528667 3.37582222 64.0222 3.47271111 64.1619778 3.33315556L64.1619778 3.33315556ZM64.9117556 4.08315556C64.9213111 4.05693333 65.2326444 3.94693333 65.0095333 4.07515556 65.0086444 4.0756 64.8264222 4.31804444 64.9117556 4.08315556L64.9117556 4.08315556ZM60.4955333 5.91626667C60.4955333 6.05026667 60.4706444 6.26248889 60.4702 6.34537778L60.4170889 7.42115556C60.3308667 8.52737778 60.4122 8.32382222 60.4122 8.99937778 60.4122 9.34204444 60.4108667 9.02915556 60.1622 9.16604444 60.4146444 9.51048889 60.3382 9.16248889 60.3808667 9.57626667L60.4955333 11.4993778C60.7153111 11.4084889 60.5337556 11.4344889 60.7664222 11.4860444 61.0928667 11.5584889 60.9373111 11.5644889 61.0388667 11.5936 61.6548667 11.7696 61.8864222 11.5440444 62.0786444 11.4993778 61.9962 11.1447111 61.9999778 10.7931556 61.9448667 10.3762667L61.9679778 8.86893333C61.9706444 8.8196 62.0108667 8.59115556 62.0206444 8.52537778L62.0366444 7.33293333C62.0370889 7.1876 61.9953111 7.25671111 61.9953111 6.9996 61.9953111 6.39582222 62.0706444 6.4476 62.0786444 6.08293333 61.5573111 5.80715556 61.5946444 5.93248889 61.2475333 5.96248889L60.4955333 5.91626667ZM57.4124222 10.4160444C57.4124222 10.2029333 57.5444222 10.4027111 57.4619778 10.4160444 57.4610889 10.4162667 57.4124222 10.6484889 57.4124222 10.4160444L57.4124222 10.4160444ZM56.9124222 11.9160444C56.6968667 11.9427111 56.8870889 11.6342667 56.9095333 11.8124889 56.9097556 11.8138222 56.9122 11.8344889 56.9124222 11.8367111 56.9128667 11.8438222 56.9819778 11.9073778 56.9124222 11.9160444L56.9124222 11.9160444ZM61.8286444 11.7493778C61.9170889 11.6607111 62.1448667 11.8816 61.9215333 11.7924889 61.9195333 11.7918222 61.6890889 11.8889333 61.8286444 11.7493778L61.8286444 11.7493778ZM61.9119778 15.4158222C61.9119778 15.1753778 62.0526444 15.0029333 61.8768667 14.7876 61.6224222 14.4764889 61.6324222 14.9320444 61.0055333 14.6833778 60.8650889 14.6278222 61.0002 14.6171556 60.7575333 14.6678222 60.5408667 14.7129333 60.8059778 14.6767111 60.4955333 14.7491556 60.4875333 15.1093778 60.4097556 15.2062667 60.4093111 15.6627111L60.4050889 18.4916C60.4446444 18.6813778 60.4264222 18.4998222 60.4359778 18.6507111 60.4359778 18.6511556 60.4182 18.9480444 60.4162 18.9938222 60.3717556 19.9556 60.4419778 20.4049333 60.2455333 21.2484889 60.6055333 21.3447111 60.3813111 21.4056 60.6813111 21.4358222L61.3506444 21.3867111C61.8173111 21.3747111 61.3404222 21.4984889 61.7453111 21.4984889 62.0339778 21.4984889 61.9002 21.3569333 62.1619778 21.1651556 62.0268667 20.7916 62.1322 21.1449333 62.0342 20.9591556 61.9206444 20.7449333 61.9628667 19.7756 62.0042 19.4978222 62.0082 19.4713778 62.0130889 19.4502667 62.0182 19.4258222 62.0226444 19.4033778 62.0313111 19.3813778 62.0364222 19.3609333L61.9926444 18.5862667C61.9764222 18.2840444 61.9564222 18.2416 61.9319778 18.0564889 61.8722 17.6098222 61.9953111 17.4193778 61.9953111 16.9156 61.9953111 16.5098222 61.9368667 17.0051556 61.9426444 16.5938222 61.9448667 16.4313778 61.9953111 16.5433778 61.9953111 16.2489333L61.9119778 15.4158222ZM57.4124222 17.0822667C57.4124222 16.8691556 57.5444222 17.0687111 57.4619778 17.0822667 57.4610889 17.0824889 57.4124222 17.3147111 57.4124222 17.0822667L57.4124222 17.0822667ZM62.4953111 19.7487111C62.4953111 19.5356 62.6273111 19.7353778 62.5448667 19.7487111 62.5439778 19.7489333 62.4953111 19.9811556 62.4953111 19.7487111L62.4953111 19.7487111ZM62.1619778 19.9153778C62.1619778 19.7022667 62.2939778 19.9020444 62.2115333 19.9153778 62.2106444 19.9153778 62.1619778 20.1478222 62.1619778 19.9153778L62.1619778 19.9153778ZM87.5766889 28.1647333C87.5766889 28.2680667 87.6044667 28.3422889 87.6071333 28.3734 87.6193556 28.5282889 87.6098 28.5191778 87.6129111 28.6165111 87.6218 28.8982889 87.6522444 28.8040667 87.6484667 29.0785111 87.6362444 29.9845111 87.7764667 30.9667333 87.7715778 31.0465111 87.7278 31.7582889 87.6600222 31.6731778 87.6600222 32.7476222 87.6600222 33.6016222 87.8095778 34.7256222 87.7389111 35.5765111 87.6438 36.7267333 87.6680222 36.5540667 87.7226889 37.7078444 87.7971333 39.2829556 87.7104667 41.2138444 87.7940222 42.6045111 87.8040222 42.7745111 87.7433556 42.8734 87.7433556 42.9136222 87.7433556 43.1767333 87.8178 43.1727333 87.7933556 43.6718444 87.7758 44.0305111 87.6586889 45.7420667 87.7355778 46.0134 87.8522444 46.4269556 88.1031333 46.2094 87.7433556 46.7465111L89.6600222 46.8298444C90.3202444 46.8298444 90.0571333 46.7249556 90.8835778 46.7840667 91.6789111 46.8414 91.6806889 46.7500667 92.0255778 46.7920667L94.5538 46.8082889C95.6389111 46.6434 96.0702444 46.2029556 96.2535778 45.2622889L96.2420222 38.8291778C96.2411333 38.5751778 96.2651333 38.2847333 96.2680222 38.0680667L96.2893556 31.2994C96.3204667 30.8191778 96.2426889 31.3154 96.2426889 30.9145111 96.2426889 30.5578444 96.3755778 30.3196222 96.2746889 29.4762889L96.2449111 28.5009556C96.2126889 27.8500667 96.6191333 26.3860667 95.4906889 25.7502889 94.7853556 25.3527333 94.5962444 25.5814 94.1595778 25.5814 93.8746889 25.5814 93.9760222 25.5345111 93.8166889 25.5302889 93.5386889 25.5229556 93.7638 25.5814 93.4095778 25.5814 92.9684667 25.5814 93.4466889 25.4938444 92.7342444 25.5660667L90.6742444 25.5536222C89.6918 25.4611778 90.1491333 25.5814 89.3266889 25.5814 88.3162444 25.5814 87.3798 25.2007333 87.5811333 26.1602889 87.5913556 26.2096222 87.6418 26.3760667 87.6449111 26.3958444L87.5766889 28.1647333ZM90.9098 28.7480667C90.6918 28.7751778 90.8940222 28.4382889 90.9098 28.6687333 90.9102444 28.6758444 90.9793556 28.7394 90.9098 28.7480667L90.9098 28.7480667ZM92.2431333 28.2480667C92.0511333 28.9676222 91.0669111 27.9142889 91.2642444 29.0409556 91.3693556 29.6427333 91.0722444 29.6362889 91.0766889 30.0680667 91.0798 30.3994 91.2929111 31.0038444 91.3171333 31.2629556L91.2460222 31.8791778C91.3569111 32.5462889 91.2431333 32.8060667 91.2431333 33.4142889L91.2460222 42.2498444C91.2446889 42.8914 91.0571333 42.9402889 91.2678 43.4700667 91.4433556 43.9111778 91.1798 43.6522889 91.5782444 43.8298444 91.6542444 43.8638444 91.7566889 43.8949556 91.7722444 43.9029556 91.8166889 43.9258444 91.5993556 43.8938444 91.9098 43.9967333L91.9098 43.7469556C92.4906889 43.7469556 92.4222444 43.6742889 92.9095778 43.6636222 92.9186889 43.2587333 92.9538 43.2096222 93.0280222 42.7876222L93.1109111 41.9925111C93.0969111 41.7765111 93.1222444 42.0962889 93.0798 41.8298444L93.0640222 41.6318444C93.1744667 40.0582889 92.9929111 40.8789556 92.9929111 40.1636222L93.0300222 38.5814C93.0802444 37.4231778 92.8635778 37.8849556 92.9884667 37.3354 93.1849111 36.4700667 93.0420222 36.4398444 92.9893556 35.4969556 92.9200222 34.2538444 93.0762444 34.9911778 93.0762444 34.4142889 93.0762444 34.2996222 92.9611333 34.3536222 92.9660222 34.0374L93.0420222 29.2118444C93.0549111 29.0405111 93.0704667 29.0085111 92.9786889 28.8522889 92.8175778 28.5780667 92.7886889 28.6914 92.4880222 28.5807333 92.1602444 28.4602889 92.3220222 28.3836222 92.2431333 28.2480667L92.2431333 28.2480667ZM95.8262444 38.0805111C95.8473556 37.9098444 96.2675778 38.1011778 95.9042444 38.0885111 95.8722444 38.0874 95.8031333 38.2674 95.8262444 38.0805111L95.8262444 38.0805111ZM95.8262444 39.1638444C95.8262444 38.9507333 95.9580222 39.1505111 95.8758 39.1638444 95.8746889 39.1640667 95.8262444 39.3965111 95.8262444 39.1638444L95.8262444 39.1638444ZM87.9933556 43.4134C87.9933556 43.2002889 88.1253556 43.4002889 88.0429111 43.4134 88.0420222 43.4136222 87.9933556 43.6460667 87.9933556 43.4134L87.9933556 43.4134ZM92.5764667 44.1634C92.7366889 44.0240667 92.8346889 43.8947333 93.0762444 43.8302889 92.9900222 44.1531778 92.9638 44.1549556 92.5764667 44.1634L92.5764667 44.1634ZM87.9100222 44.4967333C88.0109111 44.3958444 88.2160222 44.6391778 88.0180222 44.5838444L87.9842444 44.5607333C87.9771333 44.5549556 87.7875778 44.6194 87.9100222 44.4967333L87.9100222 44.4967333ZM90.8264667 3.49991111C90.5029111 3.47302222 90.6093556 3.4248 90.2431333 3.41657778 90.3660222 3.24657778 90.3195778 3.26991111 90.5155778 3.30391111 90.8400222 3.35991111 90.6811333 3.30146667 90.8264667 3.49991111M91.9931333 13.9156889C91.9189111 13.7990222 91.9738 13.9201333 91.9282444 13.7294667 91.7920222 13.1601333 91.9484667 12.3623556 91.9795778 11.8179111 91.9998 11.4656889 91.9113556 11.1783556 91.9295778 10.8436889L91.9449111 4.63035556C91.9633556 4.34146667 92.0526889 3.81924444 91.9058 3.56657778 91.7746889 3.34035556 91.3198 3.08324444 91.0764667 3.08324444L89.0766889 3.08324444C88.8140222 3.08324444 88.6271333 3.39457778 88.5766889 3.58324444L88.6462444 3.5808C88.8338 3.57102222 88.6284667 3.46702222 88.9100222 3.58324444 88.8073556 3.8668 88.7511333 3.76457778 88.6286889 4.13524444 88.4829111 4.57568889 88.4933556 4.11124444 88.4933556 4.99991111 88.4933556 5.2568 88.5346889 5.18768889 88.5346889 5.33302222L88.4535778 11.6223556C88.4584667 11.9054667 88.4182444 11.8172444 88.4933556 11.9992444L87.0769111 11.9992444C86.7582444 11.9992444 87.0464667 11.9736889 86.8269111 12.0825778L86.7489111 5.99391111C86.7093556 5.3848 86.4171333 5.57835556 86.5780222 4.95102222L86.6300222 4.62302222C86.6262444 3.94991111 86.7411333 3.18657778 85.8293556 3.16191111L83.4938 3.16657778C83.1184667 3.87546667 83.2211333 4.84013333 83.1971333 5.8568L83.2340222 6.84346667C83.3446889 7.34057778 83.2831333 8.10524444 83.2615778 8.60946667L83.2438 10.6661333C83.2438 11.1190222 83.0891333 11.7310222 83.2820222 12.1270222 83.2920222 12.1476889 83.3315778 12.2103556 83.3424667 12.2283556L83.4104667 12.3325778C82.9058 13.0859111 83.2822444 12.6432444 83.2226889 13.9499111 83.2140222 14.1416889 83.2204667 14.0576889 83.2353556 14.3365778L83.1782444 17.0454667C83.1462444 17.5170222 83.3391333 17.7341333 83.2369111 18.1781333 83.1760222 18.4416889 83.2515778 18.7290222 83.2311333 18.8592444L83.2044667 19.0168C83.1911333 19.2508 83.1320222 19.2576889 83.4104667 19.3321333 83.4104667 19.4543556 83.4315778 19.6036889 83.3778 19.6550222 83.3742444 19.6585778 83.3551333 19.6670222 83.3504667 19.6683556L83.1604667 19.5821333 83.1304667 22.3939111C83.1018 22.8383556 83.0811333 23.3803556 83.1933556 23.8052444 83.2755778 24.1154667 83.3342444 23.8210222 83.2438 24.2483556 83.4922444 24.3061333 83.5769111 24.3754667 83.8155778 24.3808 83.9789111 24.3845778 83.8540222 24.3568 84.1275778 24.3732444L86.1153556 24.3121333C86.4138 24.3443556 86.2413556 24.4056889 86.6602444 24.4150222L86.7435778 23.0816889 86.4935778 23.0816889C86.5198 22.7805778 86.5635778 22.9332444 86.7435778 22.9983556L86.7435778 15.6656889C86.7435778 15.3412444 86.8771333 15.4865778 87.0806889 15.4734667 87.2698 15.4612444 87.2175778 15.4608 87.3480222 15.4350222 87.6731333 15.3708 87.5364667 15.4130222 87.7578 15.4814667 87.9371333 15.5368 87.8782444 15.5119111 87.9542444 15.5032444L88.4933556 15.4990222C88.3355778 15.8403556 88.4949111 16.7832444 88.4833556 17.2248L88.4369111 18.9336889C88.4218 19.2119111 88.4933556 19.1730222 88.4933556 19.4988 88.4933556 19.7803556 88.4460222 19.6836889 88.4433556 19.8408L88.4882444 21.0021333C88.5055778 21.3221333 88.4464667 21.6223556 88.4484667 21.8245778L88.4933556 24.3316889C89.1609111 24.5099111 88.5962444 24.4459111 89.4071333 24.4128 89.5984667 24.4048 89.7931333 24.4163556 89.9826889 24.4283556L90.7066889 24.4430222C90.7518 24.4405778 90.9882444 24.4012444 91.0524667 24.3910222 91.2095778 24.3663556 91.1889111 24.3614667 91.4100222 24.3563556 91.7524667 24.3483556 91.4569111 24.4814667 91.6833556 24.3310222 91.9931333 24.1256889 91.8098 20.8408 91.8446889 20.1923556 91.8580222 19.9523556 91.8580222 20.1268 91.8438 19.8870222L91.9373556 16.3985778C91.9344667 16.0359111 91.7402444 15.4556889 91.7973556 15.1336889 91.9451333 14.2992444 91.8426889 14.4943556 91.8866889 14.0941333 91.9280222 13.7159111 91.7958 14.2263556 91.9222444 14.0068 92.1686889 13.5783556 91.8540222 14.3832444 91.9931333 13.9156889M88.9100222 19.5821333C88.9100222 19.7492444 88.8909111 20.0039111 88.9933556 20.1652444L88.9238 20.2625781C88.9131333 20.2628 88.7464667 20.1596889 88.7575778 19.8663556 88.7582444 19.8492444 88.7609111 19.8223556 88.7633556 19.8061333 88.8015778 19.5505778 88.7833556 19.6239111 88.9100222 19.5821333M86.4935778 23.5816889C86.4935778 23.3685778 86.6255778 23.5683556 86.5431333 23.5816889 86.5420222 23.5819111 86.4935778 23.8143556 86.4935778 23.5816889M57.1624222 32.8309778C57.1624222 33.5274222 57.8237556 33.9143111 56.8290889 33.9143111 56.7884222 34.4025333 56.8037556 33.9609778 56.7084222 34.2936444 56.6206444 34.5989778 56.6742 34.9605333 56.6553111 35.3289778 56.6135333 36.1412 56.6057556 36.3114222 56.8328667 36.8860889 56.8373111 36.8976444 56.8437556 36.9218667 56.8479778 36.9329778 56.9239778 37.1378667 56.8826444 37.1727556 57.1624222 37.2474222L57.1624222 45.3300889C57.1624222 45.8140889 57.2815333 45.0612 57.2142 45.7667556 57.0913111 47.0589778 57.3737556 46.7714222 57.7946444 46.7898667 58.9004222 46.8380889 63.2142 46.9616444 64.1484222 46.6498667 64.2715333 46.6087556 64.6677556 46.3914222 64.7904222 46.2918667 65.6888667 45.5607556 65.3099778 44.1827556 65.3466444 44.0092 65.3473111 44.0063111 65.3699778 43.9767556 65.3942 43.8254222 65.4202 43.6640889 65.4150889 43.4967556 65.4142 43.3329778 65.4119778 42.9707556 65.4117556 42.6089778 65.4117556 42.2469778 65.4117556 41.5758667 65.5097556 36.8520889 65.2830889 36.4660889 65.1148667 36.1803111 65.1295333 36.4456444 64.7808667 35.8080889 64.6855333 35.6338667 64.5450889 35.5554222 64.3284222 35.4974222L64.3284222 35.3307556C64.5882 35.2705333 64.5955333 35.2503111 64.7388667 35.0745333 64.7806444 35.0229778 64.8279778 34.9494222 64.8719778 34.8743111 65.4786444 33.8409778 65.1297556 32.9098667 65.1622 32.1632 65.2095333 31.0705333 65.0182 31.6932 65.1766444 31.0198667L65.1806444 26.2292C64.7846444 25.2932 63.2510889 25.5849778 63.0210889 25.5612 62.1582 25.4727556 61.0579778 25.4956444 60.1946444 25.5607556 59.9270889 25.5809778 59.8348667 25.5414222 59.6230889 25.5265333 56.9722 25.3407556 57.0617556 25.3625333 57.1439778 26.8587556 57.2197556 28.2343111 57.1044222 29.7014222 57.1610889 30.8327556 57.1919778 31.4498667 57.3602 31.1647556 57.2497556 31.8292L57.1624222 32.8309778ZM64.1619778 25.8314222C64.2504222 25.7429778 64.4779778 25.9638667 64.2546444 25.8747556 64.2528667 25.8740889 64.0222 25.9709778 64.1619778 25.8314222L64.1619778 25.8314222ZM64.9117556 26.5814222C64.9213111 26.5552 65.2326444 26.4452 65.0095333 26.5734222 65.0086444 26.5740889 64.8264222 26.8163111 64.9117556 26.5814222L64.9117556 26.5814222ZM60.4955333 28.4145333 60.4170889 29.9194222C60.3308667 31.0256444 60.4122 30.8220889 60.4122 31.4978667 60.4122 31.8305333 60.3833111 31.5532 60.2333111 31.6396444L60.1622 31.6645333C60.4486444 32.0556444 60.3315333 31.4905333 60.4222 32.7432 60.4490889 33.1165333 60.4299778 33.0356444 60.4313111 33.3358667 60.4328667 33.6392 60.4955333 33.6169778 60.4955333 33.9976444 60.7153111 33.9067556 60.5337556 33.9329778 60.7664222 33.9843111 61.2422 34.0898667 60.7344222 34.0774222 61.3139778 34.1203111 62.1704222 34.1836444 61.3495333 34.1676444 62.0786444 33.9976444 61.9179778 33.3078667 61.9293111 31.6432 62.0206444 31.0236444L62.0366444 29.8312C62.0370889 29.6858667 61.9953111 29.7549778 61.9953111 29.4978667 61.9953111 28.8940889 62.0706444 28.9460889 62.0786444 28.5812 61.5573111 28.3054222 61.5946444 28.4307556 61.2475333 28.4607556L60.4955333 28.4145333ZM57.4124222 32.9143111C57.4124222 32.7012 57.5444222 32.9007556 57.4619778 32.9143111 57.4610889 32.9145333 57.4124222 33.1469778 57.4124222 32.9143111L57.4124222 32.9143111ZM56.9124222 34.4143111C56.6968667 34.4409778 56.8870889 34.1325333 56.9095333 34.3107556 56.9097556 34.3120889 56.9122 34.3327556 56.9124222 34.3349778 56.9128667 34.3423111 56.9819778 34.4056444 56.9124222 34.4143111L56.9124222 34.4143111ZM61.8286444 34.2476444C61.9170889 34.1589778 62.1448667 34.3798667 61.9215333 34.2907556 61.9195333 34.2900889 61.6890889 34.3872 61.8286444 34.2476444L61.8286444 34.2476444ZM61.9119778 37.9138667C61.9119778 37.6880889 62.1710889 37.0438667 61.4357556 37.2352 60.7590889 37.4112 61.5002 37.0132 60.4955333 37.2474222 60.4875333 37.6076444 60.4097556 37.7045333 60.4093111 38.1609778L60.2455333 43.7469778C60.6055333 43.8429778 60.3813111 43.9038667 60.6813111 43.9340889 60.8677556 43.9527556 60.5906444 43.9372 60.8853111 43.9032 60.8975333 43.9016444 60.9230889 43.8967556 60.9348667 43.8958667L61.1137556 43.9105333C62.0530889 43.9349778 61.3382 43.9967556 61.7453111 43.9967556 62.0339778 43.9967556 61.9002 43.8552 62.1619778 43.6636444 62.0268667 43.2898667 62.1322 43.6429778 62.0342 43.4574222 61.9119778 43.2265333 61.9662 42.1458667 62.0364222 41.8592 62.0408667 41.8407556 62.0522 41.8185333 62.0564222 41.8018667L61.9319778 40.5549778C61.8722 40.1080889 61.9953111 39.9178667 61.9953111 39.4138667 61.9953111 39.0080889 61.9368667 39.5034222 61.9426444 39.0923111 61.9448667 38.9296444 61.9953111 39.0414222 61.9953111 38.7472L61.9119778 37.9138667ZM57.4124222 39.5805333C57.4124222 39.3674222 57.5444222 39.5669778 57.4619778 39.5805333 57.4610889 39.5805333 57.4124222 39.8132 57.4124222 39.5805333L57.4124222 39.5805333ZM62.4953111 42.2469778C62.4953111 42.0338667 62.6273111 42.2336444 62.5448667 42.2469778 62.5439778 42.2472 62.4953111 42.4796444 62.4953111 42.2469778L62.4953111 42.2469778ZM62.1619778 42.4136444C62.1619778 42.2005333 62.2939778 42.4003111 62.2115333 42.4136444 62.2106444 42.4138667 62.1619778 42.6463111 62.1619778 42.4136444L62.1619778 42.4136444ZM74.5777778 25.9148444C74.8213333 25.9732889 74.6977778 25.9041778 74.8277778 26.0815111L74.5777778 26.0815111 74.5777778 25.9148444ZM66.6617778 28.6648444C66.6617778 28.7110667 66.6633333 28.8006222 66.6562222 28.8257333 66.6135556 28.9730667 66.6288889 28.9181778 66.5784444 28.9979556 66.4828889 28.5472889 66.4406667 28.9066222 66.6617778 28.6648444L66.6617778 28.6648444ZM66.4951111 29.7479556C66.4651111 29.5901778 66.6 29.4515111 66.5477778 29.6950667 66.5464444 29.7008444 66.5502222 30.0388444 66.4951111 29.7479556L66.4951111 29.7479556ZM66.4951111 30.2479556C66.4951111 30.0348444 66.6271111 30.2344 66.5446667 30.2479556 66.5435556 30.2481778 66.4951111 30.4804 66.4951111 30.2479556L66.4951111 30.2479556ZM71.1613333 43.9135111C71.2893333 43.7921778 71.3006667 43.8292889 71.328 43.5801778 70.6935556 43.6330667 70.5555556 43.4821778 69.9115556 43.9135111 69.4424444 43.2128444 69.4391111 43.8417333 69.6151111 42.6646222L69.7446667 38.4972889C69.7446667 38.0481778 69.6035556 38.0844 69.6375556 37.7204L69.6966667 33.0328444C69.7811111 32.2299556 69.6053333 30.9501778 69.654 30.0801778L69.5782222 25.9148444C69.4593333 25.9050667 69.2675556 25.8819556 69.2646667 25.8808444 69.0846667 25.8277333 69.2513333 25.9881778 69.0782222 25.7481778 69.3791111 25.7732889 69.4751111 25.8521778 69.7446667 25.9148444 69.6195556 25.4464 69.1684444 25.6612889 68.7555556 25.5717333 68.1002222 25.4292889 68.2411111 25.6204 67.9446667 25.6044L66.4951111 25.4981778C66.166 25.9892889 66.2451111 26.8132889 66.2451111 27.4981778 66.2451111 27.6508444 66.2893333 27.8248444 66.2917778 27.8630667 66.3226667 28.3432889 66.2451111 27.8470667 66.2451111 28.2481778 66.2451111 28.6650667 66.3371111 28.6379556 66.3166667 28.9852889L66.2451111 31.9144C66.2451111 32.1186222 66.2917778 32.2361778 66.2944444 32.3412889L66.2451111 33.7477333C66.2451111 35.0701778 66.1777778 36.4888444 66.2526667 37.8297333L66.2773333 40.5264C66.208 40.8550667 66.1617778 40.6639556 66.1617778 41.0804 66.1617778 42.6157333 66.0077778 44.3090667 66.3704444 45.7877333 66.4855556 46.2572889 66.572 46.3784 66.9882222 46.6704 67.3851111 46.9488444 68.238 46.8975111 68.6617778 46.8257333 69.07 46.7568444 69.2557778 46.8299556 69.6613333 46.8299556 70.1791111 46.8299556 70.532 46.7355111 70.9111111 46.7452889 71.5031111 46.7606222 72.0488889 46.8446222 72.582 46.7426222 72.9511111 46.6719556 73.4335556 47.1095111 74.3664444 46.5352889 75.5428889 45.8115111 75.2295556 43.8141778 75.1753333 42.6348444L75.2477778 41.5835111C75.2542222 41.0606222 75.2244444 40.5135111 75.2426667 39.9932889L75.3331111 36.1608444C75.2884444 35.6424 75.32 35.0570667 75.356 34.5646222L75.318 31.1724C75.292 30.8557333 75.2935556 30.9488444 75.2837778 30.6412889L75.2991111 28.6997333C75.238 28.4148444 75.0964444 28.3235111 75.0913333 28.0715111 75.0817778 27.6108444 75.1542222 28.0077333 75.2533333 27.5846222 75.3342222 27.2386222 75.1611111 27.2635111 75.1611111 26.9981778 75.1611111 26.5797333 75.312 26.6655111 75.1813333 26.3177333 75.0275556 25.9079556 75.5791111 25.7601778 73.5742222 25.7506222 73.2237778 25.7488444 73.0242222 25.7072889 72.7966667 25.7037333 72.484 25.6986222 72.4526667 25.7521778 72.078 25.6648444 72.1175556 26.1168444 72.1564444 25.8715111 72.1622222 25.8808444L72.2304444 25.9715111C72.232 25.9741778 72.2397778 25.9892889 72.2446667 25.9981778 72.1411111 26.0470667 72.2604444 26.0275111 72.1211111 26.0235111 72.1191111 26.0235111 71.9388889 26.0004 71.9113333 25.9981778 71.9113333 26.4192889 71.8248889 26.4595111 71.8228889 26.9152889L71.9113333 31.4979556C71.9113333 31.8906222 71.8666667 31.4390667 71.8575556 31.7575111L71.8915556 33.5672889C71.9095556 34.4566222 71.8346667 34.9261778 71.9064444 35.8357333 71.9357778 36.2090667 71.9573333 36.6406222 71.9402222 36.8721778L71.97 38.5104C71.9695556 38.6757333 71.9671111 38.4686222 71.9811111 38.6961778 72.0235556 39.3764 71.9177778 39.1275111 71.8086667 39.3959556 71.6831111 39.7052889 71.7953333 39.5246222 71.828 39.9139556 72.2255556 39.9572889 71.9686667 39.7995111 72.1613333 40.1637333L71.8313333 40.0704C71.828 40.5664 71.8962222 41.0475111 71.888 41.3190667 71.8742222 41.7681778 71.88 43.3626222 71.7191111 43.7341778 71.6408889 43.9148444 71.8671111 43.7281778 71.58 43.9197333 71.2571111 44.1352889 71.5406667 43.9319556 71.4526667 43.8581778 71.3806667 43.7977333 71.3 43.8766222 71.1613333 43.9135111L71.1613333 43.9135111ZM119.990956 26.9981778C120.0794 26.9095111 120.307178 27.1304 120.083844 27.0415111 120.081844 27.0406222 119.8514 27.1377333 119.990956 26.9981778L119.990956 26.9981778ZM120.074289 27.4148444 120.056511 27.3601778C120.073844 27.1795111 119.975178 27.2304 120.070067 27.3544 120.137844 27.4428444 120.236956 27.6095111 120.074289 27.4148444L120.074289 27.4148444ZM117.574511 30.1646222 117.574511 30.5812889C118.654733 30.8328444 118.196067 30.5990667 118.912956 30.6915111 119.322289 30.7444 119.884956 30.6455111 120.324289 30.7479556 120.357178 30.3544 120.3574 30.6181778 120.408289 30.4144 120.484511 30.1092889 120.438067 30.3499556 120.447622 30.0699556L120.465622 27.7410667C120.429844 26.7837333 120.874289 26.0572889 119.670067 25.5692889 119.152733 25.3595111 118.7514 25.3552889 118.2534 25.3870667L117.078956 25.4124C116.341178 25.4406222 114.009178 25.2939556 113.4354 25.4399556 112.786067 25.6055111 112.206511 26.3230667 112.160289 27.0001778 112.077844 28.2059556 112.036289 29.8117333 112.142733 30.9388444L112.1954 34.3559556C112.170511 34.6712889 112.241622 34.4964 112.241622 34.7475111 112.241622 35.1452889 112.167844 34.7161778 112.201178 34.9939556 112.242067 35.3346222 112.324956 35.0212889 112.324956 35.2475111 112.324956 35.7706222 112.091844 35.6346222 112.232956 37.0130667 112.271622 37.3901778 112.077844 38.3672889 112.068956 38.8310667 112.060289 39.2870667 112.158289 39.3541778 112.158289 39.8306222 112.158289 40.2730667 112.083844 40.2970667 112.077178 40.6672889 112.067622 41.2086222 112.187178 41.7235111 112.132511 42.2606222L112.201844 45.2857333C112.317844 45.9232889 112.656956 46.3288444 113.201844 46.6206222 113.720289 46.8984 114.2834 46.7659556 114.848733 46.7901778L117.812511 46.7801778C118.588511 46.7595111 118.821622 46.9988444 119.768733 46.5246222 119.9874 46.4148444 119.804289 46.5319556 119.965622 46.3879556 120.566956 45.8519556 120.694733 45.3121778 120.6554 44.4099556L120.657622 43.0804C120.657622 42.6555111 120.497178 42.8892889 120.558511 42.4044 120.7994 40.4901778 120.657622 36.6941778 120.657622 34.5810667 120.657622 34.4139556 120.442511 34.2521778 120.407622 33.8310667L116.824511 33.9144C116.742956 34.2644 116.698067 34.1268444 116.6534 34.5832889L116.574511 36.6641778 117.324511 37.0808444 117.384511 39.7735111C117.3894 39.7948444 117.422956 39.9172889 117.424067 39.9315111 117.434511 40.0628444 117.303844 40.1670667 117.376733 41.0737333 117.428733 41.7170667 117.366067 42.4501778 117.495178 43.0335111 117.508733 43.0948444 117.569844 43.8835111 117.263178 43.8164L116.635178 43.7092889C116.620956 43.7077333 116.597178 43.7039556 116.581844 43.7032889 116.4294 43.6981778 116.512733 43.7470667 116.241178 43.7470667 115.778733 43.7470667 115.747178 43.6637333 115.324733 43.6637333L115.619844 41.0544C115.616733 40.9919556 115.604956 40.8106222 115.605844 40.7955111 115.662067 39.8870667 115.518511 38.6581778 115.580289 37.5897333L115.574733 35.1644C115.574733 34.8090667 115.662733 34.6110667 115.628067 34.2950667L115.4914 29.8312889C115.4914 29.3308444 115.623178 29.6172889 115.504733 29.1568444 115.4154 28.8097333 115.408067 28.8764 115.408067 28.4146222L116.574511 28.4146222C117.252511 28.4146222 117.006956 28.1857333 117.657844 28.4979556 117.630067 28.8306222 117.578289 28.9539556 117.609622 29.2930667 117.643622 29.6564 117.578511 30.0452889 117.907844 30.1646222L117.574511 30.1646222ZM117.657844 42.2470667C117.670733 42.8199556 117.658956 42.5128444 117.832289 42.5079556 117.986733 42.5037333 117.893178 42.7981778 117.962733 42.4959556 117.964956 42.4864 117.982289 42.4999556 117.991178 42.4970667 117.901178 42.3155111 117.966289 42.4675111 117.907844 42.2470667L117.657844 42.2470667ZM117.741178 42.6637333C117.984733 42.7219556 117.861178 42.6528444 117.991178 42.8304L117.741178 42.8304 117.741178 42.6637333ZM117.056733 43.9790667 117.074511 44.2468444 116.824511 44.2468444 117.056733 43.9790667ZM97.2427333 5.08324444C97.2636222 5.33257778 97.3465111 5.57302222 97.3891778 5.76968889L97.8729556 7.86924444C98.0056222 8.38391111 97.9865111 8.86102222 98.1289556 9.36302222 98.3942889 10.2968 98.8469556 13.0979111 99.0514 13.5981333L99.6702889 16.3221333C99.7402889 16.6319111 99.6647333 16.5352444 99.7514 16.9012444 99.8009556 17.1110222 99.8247333 17.3465778 99.8722889 17.6192444L100.823178 21.9176889C100.900733 22.4212444 100.978956 22.8194667 101.127844 23.2794667 101.436511 24.2319111 101.220289 24.2936889 102.399844 24.2665778L103.065844 24.3414667C103.461844 24.4150222 104.058511 24.3316889 104.658956 24.3316889 104.722289 24.0590222 104.849622 23.6928 104.886289 23.4761333 104.946733 23.1210222 104.953844 22.8570222 105.003622 22.5099111 105.055844 22.1470222 105.1854 21.9436889 105.231622 21.6508L105.359622 20.4634667C105.382733 20.2868 105.406289 20.2639111 105.453178 20.0476889L105.838511 17.3452444C105.865844 17.0668 105.948067 16.7401333 106.005844 16.4532444L106.2774 14.8679111C106.349844 14.4650222 106.376289 14.3674667 106.4154 13.9225778L106.9254 10.5994667C107.151178 9.8834667 106.976733 10.0781333 107.055844 9.72235556L107.823622 5.17013333C107.874733 4.98924444 107.894067 4.97746667 107.936956 4.68857778L108.107622 3.6048C108.186511 3.29124444 108.294511 3.28591111 107.991844 3.08324444 107.804511 3.47368889 108.065622 3.42924444 107.741844 3.66657778 107.741844 2.73435556 106.7774 3.15146667 106.156289 3.05324444 105.633178 2.97057778 105.218733 3.0708 104.658956 3.08324444 104.625622 4.57346667 103.696067 9.8199111 103.692511 10.1165778L103.459844 11.4670222C103.338511 11.9730222 103.150511 13.1774667 103.178067 13.7225778 103.1894 13.9456889 103.246511 13.7452444 103.1694 14.0183556 103.090511 14.2956889 102.992289 14.1976889 102.992289 14.3323556 102.992289 14.6723556 103.061844 14.6116889 103.052733 14.8374667 103.043178 15.0765778 102.981178 15.0479111 102.944067 15.2959111 102.8974 15.6065778 102.949178 15.9530222 102.658956 16.1656889L102.148956 13.3048C102.115844 13.1268 102.152956 13.3852444 102.134067 13.1452444L101.652956 10.5143556C101.6354 10.4436889 101.638289 10.5085778 101.624067 10.3545778 101.622511 10.3376889 101.630733 10.2259111 101.618067 10.1150222 101.575622 9.74102222 101.457178 9.63013333 101.413178 9.24524444 101.329178 8.50457778 100.914956 7.09724444 100.908511 6.58346667 100.903178 6.16191111 100.8414 5.97702222 100.741844 5.66702222 100.558956 5.09746667 100.566956 4.31524444 100.401178 3.6988 100.397622 3.68568889 100.391178 3.66235556 100.387844 3.64991111 100.2314 3.05346667 100.2214 3.14924444 99.9285111 3.10168889 99.2082889 2.98502222 99.4151778 3.05968889 98.9689556 3.02902222 98.3567333 2.98724444 97.7425111 2.94746667 97.1594 3.08324444L96.9765111 3.86902222C96.9842889 3.91946667 97.0982889 4.16213333 97.1260667 4.28035556 97.1774 4.49924444 97.1594 4.6848 97.1594 4.91657778L97.4902889 5.08768889C97.3720667 5.14302222 97.5096222 5.17902222 97.2427333 5.08324444L97.2427333 5.08324444ZM101.159178 9.8328C101.159178 9.61968889 101.291178 9.8192444 101.208733 9.8328 101.207622 9.8330222 101.159178 10.0652444 101.159178 9.8328L101.159178 9.8328ZM122.574089 25.7481778C122.574089 25.5350667 122.706089 25.7348444 122.623644 25.7481778 122.622756 25.7484 122.574089 25.9808444 122.574089 25.7481778L122.574089 25.7481778ZM129.323644 28.0815111C129.323644 27.8681778 129.455644 28.0679556 129.3732 28.0815111 129.372311 28.0815111 129.323644 28.3139556 129.323644 28.0815111L129.323644 28.0815111ZM129.656978 40.1637333C129.596533 40.7159556 129.494756 40.1944 129.560311 40.4937333 129.594089 40.6464 129.670756 40.6228444 129.823644 40.6637333 129.823644 38.3192889 129.542533 39.0084 128.173867 36.8137333L126.259422 34.1455111C125.9592 33.8090667 124.729644 32.0157333 124.586089 31.6524 124.377644 31.1252889 124.574089 30.5421778 124.574089 29.9979556 124.574089 29.6246222 124.507422 29.7588444 124.530089 29.4455111 124.546311 29.2192889 124.574089 29.0259556 124.574089 28.7481778 125.252311 28.5899556 125.934756 28.5812889 126.740533 28.5812889L126.752756 29.0752889C126.7512 29.0861778 126.747422 29.1128444 126.7452 29.1252889L126.714089 29.2286222C126.591422 29.6688444 126.663867 29.8615111 126.7032 30.2744 126.732311 30.5792889 126.6572 30.4608444 126.6572 30.8312889 126.6572 31.1468444 126.681867 30.9792889 126.840089 31.0648444 127.208978 31.2644 127.456089 31.0855111 127.8472 31.1357333 128.258756 31.1884 129.4212 31.3304 129.656978 31.0812889 129.786089 30.7684 129.659867 31.0319556 129.661422 30.8997333 129.661422 30.8917333 129.658978 30.8677333 129.659422 30.8592889L129.774978 27.2290667C129.7112 26.5959556 129.906311 25.2397333 127.9492 25.3595111 127.028756 25.4159556 125.903644 25.2732889 124.724311 25.3859556 123.794533 25.4746222 123.020311 25.0757333 122.204089 25.7861778 122.047422 25.9228444 122.081422 25.8066222 121.857422 25.9475111 121.708311 26.0412889 121.738533 26.0355111 121.656533 26.1615111 121.394533 26.5637333 121.178756 28.1381778 121.657422 28.3315111L121.530089 30.4679556C121.622978 30.6177333 121.589644 30.5361778 121.657422 30.6646222 121.458089 31.0415111 121.454311 31.1324 121.456533 31.4815111 121.458978 31.8919556 121.407644 31.4588444 121.407644 31.8312889 121.407644 32.2070667 121.445867 31.7968444 121.4492 32.0788444 121.464756 33.3050667 121.295644 32.5121778 122.035422 33.7028444L122.724756 34.6801778C123.340978 35.6750667 124.0532 36.7152889 124.813422 37.5950667L125.120756 37.9961778C125.292756 38.4030667 125.610533 38.7546222 125.850089 39.1375111 126.013422 39.3984 126.118533 39.5326222 126.299867 39.7712889 126.310311 39.7850667 126.327422 39.8028444 126.337644 39.8168444L126.4612 40.0264C126.635867 40.5815111 126.391644 42.4004 126.459422 43.0159556 126.505867 43.4341778 126.914311 43.2990667 126.551867 43.7370667L125.9372 43.8455111C125.482533 43.9530667 125.752089 43.7232889 124.908756 43.6930667 124.8832 43.6924 124.811422 43.6926222 124.7872 43.6910667L124.621867 43.6748444C124.350089 43.6210667 124.648089 43.6555111 124.324089 43.5801778L124.324089 43.2470667C124.597644 43.1366222 124.498756 43.2384 124.468756 42.7952889 124.431422 42.2444 124.560089 41.6524 124.407422 40.9970667 124.097644 40.8510667 123.996978 41.0981778 123.7052 40.9464 123.505644 40.8426222 123.847867 40.8641778 123.331644 40.8248444 122.656533 40.7737333 122.196978 40.8921778 121.574089 40.7470667 121.366311 41.1804 121.314533 41.5377333 121.398533 41.9239556 121.539644 42.5728444 121.345867 43.2781778 121.495644 44.0352889 121.510533 44.1097333 121.520311 44.0659556 121.497422 44.2561778 121.491644 44.3055111 121.453867 44.5144 121.453867 44.5179556L121.403644 45.5006222C121.351867 45.8284 121.3492 45.7877333 121.446533 46.1179556 121.541644 46.4401778 121.534533 46.4592889 121.751644 46.6526222 122.373422 47.2068444 125.286089 46.8490667 126.168978 46.9006222 127.418311 46.9739556 129.018311 47.1008444 129.520978 46.1939556 129.9212 45.4719556 129.792533 44.6810667 129.774311 43.9032889 129.762311 43.3788444 129.850311 42.7288444 129.7872 41.6379556 129.774978 41.4277333 129.862311 41.0752889 129.741867 40.8857333 129.4992 40.5032889 129.400756 40.9312889 129.427644 40.5488444 129.4432 40.3281778 129.517867 40.2657333 129.656978 40.1637333L129.656978 40.1637333ZM126.823867 41.6637333 126.740533 41.3304C126.899867 41.4452889 126.920089 41.4330667 126.823867 41.6637333L126.823867 41.6637333ZM126.323867 44.1635111C126.719422 44.2068444 126.634089 44.2472889 126.4072 44.4135111 126.348533 44.1928444 126.413644 44.3448444 126.323867 44.1635111L126.323867 44.1635111ZM74.4944444 3.24991111C74.5611111 4.05191111 74.6644444 5.49835556 74.5713333 6.41435556L74.5926667 8.40013333C74.6444444 8.64746667 74.6277778 8.50724444 74.6575556 8.58613333L74.8277778 9.3328C74.8151111 9.33857778 74.7906667 9.32302222 74.7864444 9.33791111 74.782 9.35324444 74.7504444 9.34302222 74.7446667 9.34502222 74.6026667 9.3948 74.5811111 9.30368889 74.5104444 9.59168889 74.4031111 10.0303556 74.468 11.1110222 74.5777778 11.5825778 73.6528889 11.6594667 74.2811111 13.7925778 74.0777778 14.6656889 74.6673333 14.8030222 74.6611111 15.3716889 74.6611111 15.9156889 74.6611111 16.9592444 74.5637778 17.8594667 74.7144444 18.8688 74.7711111 19.2496889 74.5891111 19.5425778 74.6133333 20.6999111L74.6482222 23.7545778C74.7282222 24.4221333 74.8348889 24.3285778 75.4064444 24.3350222 75.7153333 24.3385778 75.7711111 24.3992444 76.0786667 24.4161333L79.6871111 24.3765778C80.0691111 24.3648 79.598 24.4150222 79.994 24.4150222L81.8271111 24.4150222C82.3351111 24.4150222 81.9748889 24.3245778 81.9802222 24.2894667 81.996 24.1785778 81.5475556 24.3023556 81.9937778 24.1650222 81.9937778 22.0836889 82.5726667 21.2485778 80.494 21.2485778 80.1417778 21.2485778 80.0311111 21.3090222 79.8195556 21.3152444 79.5386667 21.3239111 79.542 21.2485778 79.1606667 21.2485778 78.5255556 21.2485778 78.5795556 21.3625778 77.9942222 21.0819111 78.0264444 20.7868 78.2653333 20.6445778 78.156 19.7470222 78.1288889 19.5270222 78.0977778 19.5101333 78.0917778 19.4861333L78.1004444 19.1401333C78.1675556 18.7174667 78.1006667 18.5532444 78.116 18.1390222L78.1088889 15.5674667C78.0708889 15.0965778 77.898 14.8281333 78.5677778 14.8228L80.5793333 14.8343556C81.1455556 14.8365778 81.3397778 14.7490222 81.9104444 14.7490222 81.8033333 14.2888 81.8022222 14.3999111 81.8911111 13.9852444 81.9715556 13.6105778 81.8255556 13.2863556 81.8422222 12.9250222 81.86 12.5432444 81.8817778 12.9452444 81.8764444 12.5921333L81.7911111 11.7036889C81.6406667 11.5219111 81.7346667 11.6183556 81.4857778 11.6001333 80.9804444 11.5630222 78.6115556 11.5108 78.1608889 11.7492444 78.0591111 11.3130222 77.9506667 11.3908 77.7442222 11.0825778 77.8902222 10.8643556 77.7862222 10.9103556 78.0775556 10.8328 77.9733333 10.6156889 77.9715556 10.4148 77.9935556 10.0825778L78.0797778 7.1708C78.0857778 6.84013333 78.0775556 6.49835556 78.0775556 6.16635556L82.1604444 6.16635556 82.1902222 3.78057778C82.2842222 3.44613333 82.182 3.9008 82.3271111 3.49991111 81.8177778 3.1588 81.712 3.12124444 80.9868889 3.0848 80.5715556 3.06391111 80.6084444 3.16813333 80.1622222 3.15924444 79.6944444 3.15013333 79.9637778 3.2108 79.494 3.24991111 79.3791111 2.81946667 78.8935556 3.02991111 78.5546667 3.04057778L77.4135556 3.04146667C76.5231111 2.99791111 76.3788889 3.11146667 76.042 3.0648 74.1433333 2.80124444 75.2933333 3.43591111 74.4944444 3.24991111L74.4944444 3.24991111ZM81.1606667 12.0825778C81.1817778 11.9116889 81.602 12.1030222 81.2386667 12.0905778 81.2066667 12.0892444 81.1375556 12.2692444 81.1606667 12.0825778L81.1606667 12.0825778ZM108.575178 3.24991111C108.610289 3.67257778 108.618956 3.82924444 108.651622 4.25102222 108.686289 4.70146667 108.634067 5.09968889 108.697178 5.55124444 108.776956 6.12524444 108.616956 6.56835556 108.6674 7.24324444 108.670289 7.28146667 108.685844 7.50857778 108.685622 7.51657778L108.766956 8.63546667C108.873622 8.89613333 108.908511 8.99035556 108.908511 9.3328 108.775844 9.39857778 109.061622 9.41813333 108.658511 9.3328L108.632289 9.8374667C108.624733 10.0112444 108.604733 10.2121333 108.597844 10.3174667 108.559622 10.9012444 108.658511 11.0241333 108.658511 11.4994667L108.347622 11.6816889C108.100067 11.9796889 108.158511 13.1630222 108.158511 13.5825778 108.158511 13.9936889 108.213178 13.8112444 108.260511 14.1228 108.287844 14.3023556 108.241844 14.3512444 108.241844 14.6656889 108.933844 15.0319111 108.741844 15.9508 108.741844 16.6656889 108.741844 17.3479111 108.695178 18.0679111 108.774289 18.7416889 108.818511 19.1181333 108.742511 19.3805778 108.696511 19.8634667L108.718067 20.4048C108.795622 21.2021333 108.742511 22.1016889 108.741844 22.9152444 108.741622 23.2796889 108.669622 23.8261333 108.809622 24.1012444 109.010067 24.4956889 109.158067 24.3076889 109.648067 24.3352444 110.891178 24.4052444 112.259178 24.5128 113.565844 24.3994667 113.790511 24.3801333 113.688289 24.3719111 113.8294 24.3750222L114.927844 24.3765778C116.678067 24.4061333 116.030733 24.3965778 116.023844 24.2236889 116.023622 24.2205778 116.020511 24.2023556 116.021178 24.1988 116.022067 24.1943556 116.028067 24.1745778 116.030289 24.1699111 116.035622 24.1563556 116.071622 24.1083556 116.081178 24.0941333L116.157844 23.9983556C116.0734 23.8865778 116.074511 24.1736889 116.074511 23.7483556 116.074511 23.1305778 116.392067 21.6605778 115.706733 21.3608 115.2134 21.1452444 114.394289 21.3005778 113.900289 21.3152444 113.6194 21.3239111 113.622733 21.2485778 113.241622 21.2485778 112.369622 21.2485778 113.0774 21.3794667 112.158289 21.1652444L112.169622 20.8212444C112.276733 20.3919111 112.203178 19.8065778 112.193178 19.4048 112.188733 19.2285778 112.239622 19.0276889 112.245178 18.7512444 112.264067 17.8161333 112.158289 17.3299111 112.158289 16.4990222 112.158289 16.0383556 112.252956 15.8074667 112.200733 15.3823556 112.108511 14.6294667 112.341844 14.8025778 113.319178 14.8321333 114.210289 14.8590222 115.157178 14.7490222 115.9914 14.7490222 115.803844 13.9445778 116.0354 14.2930222 115.996067 13.5870222 115.978733 13.2796889 115.908511 13.2272444 115.923178 12.9248 115.940733 12.5648 115.950956 12.9056889 115.956956 12.6541333 115.966733 12.2428 115.908067 12.7385778 115.908067 12.3325778 115.908067 12.1745778 116.080289 11.9545778 115.871178 11.7032444 115.702067 11.4999111 115.895844 11.6319111 115.624733 11.6010222 115.070511 11.5374667 114.455844 11.5905778 113.9014 11.6079111 113.400511 11.6234667 112.6714 11.5219111 112.241622 11.7492444 112.207622 11.3410222 112.031622 11.3910222 111.824956 11.0825778 111.826289 11.0812444 111.985178 10.9181333 111.990511 10.9119111 112.198289 10.6761333 112.0934 10.5905778 112.077622 10.2472444 112.061844 9.9036889 112.110733 9.8408 112.136956 9.63968889 112.174733 9.35057778 112.132511 9.13902222 112.1334 9.01257778 112.140289 8.12102222 112.158289 7.16613333 112.158289 6.24968889 112.4874 6.11368889 112.534289 6.19857778 112.950733 6.20546667L115.2414 6.16635556C116.424956 6.16635556 116.330289 6.5608 116.297178 4.31746667 116.288956 3.76635556 116.236956 3.97213333 116.407844 3.49991111L116.124733 3.28324444C115.909844 3.14435556 115.316289 3.09724444 115.067622 3.0848 114.652289 3.06391111 114.689178 3.16813333 114.242956 3.15924444 113.775178 3.15013333 114.044511 3.2108 113.574733 3.24991111 113.452067 2.79035556 112.9274 3.06568889 112.025178 3.0468L111.074956 2.99991111C110.577178 2.99991111 110.257622 3.08791111 109.763622 3.05302222 108.218511 2.94368889 109.492733 3.46368889 108.575178 3.24991111M115.4914 11.9992444 115.4914 12.1659111 115.2414 12.1659111C115.372733 11.9768 115.256956 12.0685778 115.4914 11.9992444M114.9914 21.5819111C115.079844 21.4932444 115.3074 21.7141333 115.084289 21.6250222 115.082289 21.6243556 114.851844 21.7214667 114.9914 21.5819111M66.0784222 3.24991111C66.1053111 3.57324444 66.1644222 3.6448 66.1646444 4.08035556L66.1617556 7.16635556C66.1617556 7.52524444 66.2137556 7.31191111 66.1833111 7.69235556 66.1588667 7.9968 66.1330889 8.29613333 66.2453111 8.58191111 66.2513111 8.59746667 66.2635333 8.61946667 66.2699778 8.63546667 66.2773111 8.65257778 66.2893111 8.67391111 66.2962 8.69146667 66.3915333 8.92657778 66.4117556 9.03235556 66.4117556 9.3328 66.2790889 9.39857778 66.5648667 9.41813333 66.1617556 9.3328 66.1617556 9.9194667 66.0237556 11.1212444 66.2450889 11.5825778 65.9884222 11.5283556 66.0215333 11.4685778 65.8564222 11.6874667 65.5462 12.0985778 65.6799778 13.5812444 65.7590889 14.0596889 65.8010889 14.3134667 65.7450889 14.2643556 65.7450889 14.6656889 66.1284222 14.8685778 66.1519778 14.9692444 66.2464222 15.4094667 66.3408667 15.8494667 66.2373111 17.7352444 66.2886444 18.5139111L66.2542 19.5981333C66.1586444 20.1619111 66.2264222 20.7145778 66.2448667 21.3261333L66.2450889 24.0816889 66.5128667 24.3139111C66.8597556 24.4483556 69.1084222 24.4128 69.7444222 24.4148 70.3173111 24.4165778 71.0477556 24.3685778 71.4575333 24.3850222L73.4110889 24.4150222C73.9548667 24.4150222 73.5282 24.2545778 73.5270889 24.2236889L73.6610889 23.9983556C73.5766444 23.8865778 73.5777556 24.1736889 73.5777556 23.7483556 73.5777556 23.4203556 73.6413111 23.2452444 73.6388667 23.0343556 73.6244222 21.7283556 73.8446444 21.2485778 72.0779778 21.2485778 71.7257556 21.2485778 71.6150889 21.3090222 71.4035333 21.3152444 71.1226444 21.3239111 71.1259778 21.2485778 70.7446444 21.2485778 69.8726444 21.2485778 70.5806444 21.3794667 69.6613111 21.1652444 69.6597556 21.1443556 69.6422 20.9788 69.6424222 20.9732444L69.7493111 20.4230222C69.7662 20.0850222 69.7213111 19.7581333 69.7010889 19.4679111 69.6162 18.2496889 69.7470889 17.2896889 69.7475333 16.0814667 69.7477556 15.7105778 69.5606444 15.1345778 69.7310889 14.8925778 69.8855333 14.6736889 69.9188667 14.8323556 70.1613111 14.8323556L70.8224222 14.8321333C71.7135333 14.8590222 72.6604222 14.7490222 73.4944222 14.7490222 73.3413111 14.0254667 73.5213111 14.3963556 73.4977556 13.5796889L73.4110889 12.3325778C73.4110889 12.1745778 73.5833111 11.9545778 73.3744222 11.7032444 73.2250889 11.5239111 73.3193111 11.6181333 73.0695333 11.6001333 73.0528667 11.5988 73.0266444 11.6001333 73.0099778 11.5992444 72.4986444 11.5679111 70.1982 11.5092444 69.7446444 11.7492444 69.7004222 11.2159111 69.4115333 11.4474667 69.4115333 11.0825778 69.4115333 10.7236889 69.4197556 11.0592444 69.5353111 10.8685778 69.6139778 10.7388 69.5924222 10.8503556 69.6257556 10.6996889 69.6477556 10.5992444 69.5886444 10.4850222 69.5806444 10.2488 69.5675333 9.8685778 69.6646444 9.51724444 69.6619778 8.99991111 69.6570889 8.08368889 69.6613111 7.16613333 69.6613111 6.24968889L69.9495333 6.15813333C69.9573111 6.15746667 69.9806444 6.1568 69.9884222 6.1568L72.9204222 6.18902222C73.0857556 6.19146667 72.9399778 6.17413333 73.1766444 6.1748 73.5053111 6.17568889 73.4684222 6.20391111 73.6610889 6.33302222 73.7266444 6.05191111 73.7037556 6.27035556 73.7526444 6.0168 73.8726444 5.39457778 73.7150889 4.25857778 73.7639778 3.84457778 73.7868667 3.65146667 73.8568667 3.64968889 73.9110889 3.49991111 73.4017556 3.1588 73.2962 3.12124444 72.5708667 3.0848 72.1555333 3.06391111 72.1924222 3.16813333 71.7462 3.15924444 71.2782 3.15013333 71.5477556 3.2108 71.0779778 3.24991111 70.9630889 2.81968889 70.4722 3.02791111 69.9559778 3.03746667 69.7615333 3.04124444 69.7357556 3.05591111 69.5384222 3.05213333L68.3282 2.99991111C67.8995333 2.99991111 68.2173111 3.04191111 67.9977556 3.0828 67.7055333 3.13702222 67.1913111 2.99991111 66.7450889 2.99991111 66.4562 2.99991111 66.4577556 3.22835556 66.4559778 3.23035556 66.4304222 3.25946667 66.7068667 3.2928 66.3315333 3.30657778 66.2850889 3.30835556 66.2050889 3.27946667 66.0784222 3.24991111L66.0784222 3.24991111ZM72.9766444 11.8981333 72.9944222 12.1659111 72.7446444 12.1659111 72.9766444 11.8981333ZM81.3273556 25.4982889C81.3182444 25.5167333 81.2529111 25.6654 81.2495778 25.6711778 81.1004667 25.9369556 81.0266889 25.9016222 81.0144667 26.1609556 80.9984667 26.5038444 81.0633556 26.1396222 81.0484667 26.5614 81.0442444 26.6809556 80.9940222 26.7867333 80.9940222 26.9982889 80.9940222 27.4276222 81.0764667 27.5874 81.0622444 27.9054L81.0773556 28.8314 81.3273556 28.8314C81.3273556 29.1665111 81.3580222 29.2029556 81.1966889 29.3354 81.1746889 29.3534 81.0998 29.3909556 81.0773556 29.4147333 80.9709111 29.6811778 81.0955778 34.6914 81.1026889 35.1765111 81.1035778 35.2507333 81.0795778 35.5178444 81.0758 35.7422889 81.0691333 36.1574 81.0769111 36.5825111 81.0782444 36.9985111L81.0418 39.0580667C81.0364667 39.3671778 80.9940222 39.3178444 80.9940222 39.4971778 80.9940222 39.8660667 81.0420222 39.4394 81.0495778 39.8456222L81.0520222 43.0169556C81.0329111 43.2340667 81.0198 43.2602889 81.0349111 43.4636222L81.0378 45.7758444C81.0055778 46.0900667 80.9933556 46.6116222 81.2893556 46.7842889 81.5735778 46.9502889 82.2398 46.9082889 82.5973556 46.8578444 82.6115778 46.8558444 82.6362444 46.8531778 82.6502444 46.8509556 83.1778 46.7714 83.9566889 46.8254 84.5593556 46.8631778 84.9215778 46.8856222 85.0360222 46.8047333 85.3126889 46.8036222L86.6038 46.7916222C86.9600222 46.7400667 87.0244667 46.4251778 87.0560222 46.2016222L87.1602444 44.5800667C87.1602444 44.0416222 86.7920222 44.2969556 87.0813556 43.9225111 87.3973556 43.5134 86.9753556 44.2878444 87.1602444 43.8302889 86.8671333 43.7520667 87.0153556 43.7234 86.8062444 43.6927333 86.4442444 43.6400667 86.7360222 43.7042889 86.3991333 43.7334 85.9378 43.7731778 85.9933556 43.6140667 85.5151333 43.6787333 84.9713556 43.7522889 84.5373556 44.2334 84.3269111 43.3302889 84.7002444 43.4654 84.2855778 43.3134 84.5278 43.4627333 84.6571333 43.5422889 84.5640222 43.5322889 84.7435778 43.5800667 84.6166889 42.0545111 84.6258 42.6051778 84.6973556 40.9729556L84.6555778 39.6800667C84.5802444 39.2994 84.7435778 39.2914 84.7435778 38.9138444 84.7435778 38.5674 84.6869111 38.7816222 84.6935778 38.5085111L84.7051333 37.2671778C84.7029111 37.1307333 84.7031333 36.9987333 84.7000222 36.9187333 84.6942444 36.7714 84.7004667 36.7900667 84.7018 36.6109556 84.7046889 36.2020667 84.6282444 36.5660667 84.6971333 35.8074L84.6989111 32.4362889C84.7413556 30.9798444 84.5629111 28.8945111 84.6731333 27.0931778 84.7153556 26.4018444 84.5549111 26.1507333 84.4935778 25.4149556 84.1340222 25.4149556 83.9455778 25.3905111 83.6242444 25.4727333 82.9282444 25.6509556 83.3844667 25.4149556 82.9938 25.4149556L81.3273556 25.4982889ZM81.5771333 33.9976222C81.6780222 33.8967333 81.8831333 34.1400667 81.6851333 34.0845111L81.6513556 34.0614C81.6442444 34.0558444 81.4546889 34.1200667 81.5771333 33.9976222L81.5771333 33.9976222ZM93.2429333 3.08324444C92.7736 3.97057778 93.0329333 4.36102222 92.9751556 5.23657778L92.9771556 10.4445778C93.0038222 10.9521333 92.9076 11.0601333 92.9416 11.4674667 92.9804889 11.9408 92.9116 11.9639111 93.1596 12.2492444 92.8720444 12.6788 92.8593778 12.4530222 92.9520444 13.3283556 92.9778222 13.5699111 92.9418222 13.2719111 92.9678222 13.4921333L92.9698222 15.3881333C92.9327111 15.6841333 93.0207111 15.6939111 92.9438222 16.4625778 92.8382667 17.5196889 93.1087111 17.5434667 92.9769333 18.0996889 92.8840444 18.4912444 92.9402667 18.3401333 92.9724889 18.5045778 92.9753778 18.5190222 92.9853778 18.5430222 92.9876 18.5565778 93.0453778 18.9061333 92.6798222 19.1205778 93.1596 19.2488 93.1596 19.3710222 93.1807111 19.5203556 93.1271556 19.5716889 93.1236 19.5752444 93.1044889 19.5836889 93.0996 19.5850222L92.9096 19.4988 92.8927111 20.1425778C92.8929333 20.3881333 92.8749333 20.1263556 92.9044889 20.3008L92.9280444 20.3836889C92.9304889 20.3930222 92.9389333 20.4152444 92.9413778 20.4245778 93.0704889 20.9543556 92.6507111 22.6179111 92.9427111 23.7219111 93.0524889 24.1365778 93.0884889 23.7141333 92.9929333 24.1650222 93.8447111 24.3634667 94.6127111 24.3690222 95.4771556 24.2625778 95.9382667 24.2056889 95.4044889 24.1483556 95.8562667 24.2205778 96.1798222 24.2721333 95.9800444 24.3221333 96.4093778 24.3316889 96.4193778 23.8876889 96.4951556 24.0532444 96.4502667 23.5421333 96.4049333 23.0305778 96.5949333 23.0925778 96.2427111 22.9983556 96.2647111 22.7474667 96.2640444 22.8630222 96.3002667 22.8383556 96.3036 22.8359111 96.3576 22.8252444 96.3622667 22.8245778 96.5391556 22.7965778 96.1716 22.9574667 96.4927111 22.8319111L96.5004889 13.8263556C96.4460444 13.5041333 96.4611556 13.4254667 96.4696 13.1792444L96.4891556 11.1650222C96.4889333 11.0248 96.5051556 10.9036889 96.5122667 10.7741333L96.5098222 9.37368889C96.4182667 8.65391111 96.4927111 6.61413333 96.4927111 5.74968889 96.4927111 5.2868 96.1322667 5.87613333 96.3442667 4.69035556 96.5309333 3.6468 96.2633778 3.52835556 95.9096 2.99991111 95.6580444 3.14124444 93.5640444 3.08324444 93.2429333 3.08324444M96.2427111 23.4983556C96.2427111 23.2852444 96.3749333 23.4850222 96.2922667 23.4983556 96.2913778 23.4985778 96.2427111 23.7310222 96.2427111 23.4983556M76.3275778 44.4134222 76.3684667 46.0849778C76.4189111 46.3383111 76.4853556 46.2643111 76.4942444 46.6632 77.6093556 46.9229778 77.7893556 46.8209778 78.9244667 46.7660889 79.0789111 46.7585333 78.8940222 46.7705333 79.0789111 46.7440889 79.5429111 46.6783111 79.4244667 46.7965333 79.8273556 46.8298667 79.9766889 46.5187556 79.9849111 46.1852 79.9215778 45.8232 79.8335778 45.3207556 80.0313556 45.6127556 79.7440222 45.4967556 79.8002444 45.3274222 79.7595778 45.4132 79.9106889 45.3300889 79.9106889 44.8167556 79.8649111 44.1803111 79.9335778 43.6863111 79.9682444 43.4363111 80.0146889 43.3147556 79.9831333 42.9229778 79.9660222 42.7112 79.9673556 42.7865333 79.9553556 42.6054222 79.8880222 41.5843111 80.0200222 41.5438667 79.9935778 40.7467556 79.9902444 40.6532 79.9713556 40.4525333 79.9706889 40.3994222L79.9940222 39.0805333C79.9940222 38.6196444 79.9144667 38.7389778 79.9560222 38.2925333 79.9715778 38.1252 79.9722444 38.1445333 79.9742444 37.9634222 79.9800222 37.4449778 79.9251333 37.3176444 80.0022444 36.8380889 80.0786889 36.3625333 79.9106889 36.7105333 79.9106889 35.8307556L79.9940222 33.8309778C79.9940222 33.6269778 79.9473556 33.5094222 79.9446889 33.4040889L79.9940222 32.2476444C79.9940222 31.8496444 79.9182444 31.5114222 79.9338 31.2616444L79.9349111 29.3898667C79.8769111 28.8543111 79.9940222 28.7778667 79.9940222 28.4145333 79.9940222 27.7354222 79.6726889 28.4969778 79.7924667 27.3503111L79.8082444 26.7843111C79.8106889 26.7312 79.8224667 26.6529778 79.8244667 26.5763111 79.8311333 26.3354222 79.8351333 26.3385333 79.7818 26.1292 79.7186889 25.8807556 79.5909111 25.5814222 79.3273556 25.5814222 76.8393556 25.5814222 76.5440222 25.3136444 76.4680222 26.2809778L76.3715778 28.9354222C76.3806889 29.2640889 76.4942444 29.1816444 76.4942444 29.4145333L76.4109111 34.0809778C76.4109111 34.5187556 76.4766889 34.3096444 76.5235778 34.6318667 76.5793556 35.0152 76.4784667 34.6543111 76.4146889 35.1638667L76.4333556 40.4376444C76.3126889 41.0287556 76.4586889 40.6078667 76.4849111 41.1007556 76.4855778 41.1096444 76.4842444 41.1318667 76.4833556 41.1409778 76.4793556 41.2003111 76.4246889 41.0705333 76.4198 41.4127556 76.4131333 41.8696444 76.5449111 41.5627556 76.6609111 41.9969778 76.3629111 42.1200889 76.3675778 41.9052 76.3726889 42.3423111 76.3778 42.7765333 76.3082444 42.6420889 76.4611333 43.1140889 76.4662444 43.1300889 76.4778 43.1534222 76.4820222 43.1685333 76.5309111 43.3429778 76.3275778 43.7154222 76.3275778 44.4134222M100.242489 31.3312C100.330933 31.2427556 100.558489 31.4634222 100.335378 31.3743111 100.333378 31.3736444 100.102933 31.4707556 100.242489 31.3312M100.409156 45.9967556C100.409156 45.7834222 100.541156 45.9834222 100.458711 45.9967556 100.457822 45.9967556 100.409156 46.2292 100.409156 45.9967556M100.575822 46.8298667 100.661378 45.7447556C100.608933 45.4916444 100.711156 45.5852 100.492489 45.4967556L100.659156 45.3300889C100.659156 43.9823111 100.732711 41.5845333 100.6656 40.4056444 100.620267 39.6087556 100.802267 37.1512 100.6816 36.3072 100.576044 35.5672 100.826267 33.1080889 100.672933 31.6543111 100.651378 31.4512 100.658044 31.2945333 100.6716 31.0927556L100.654933 29.0818667C100.654044 27.6512 100.746489 28.6616444 100.522489 27.8803111 100.4376 27.5849778 100.548267 27.4636444 100.544711 27.0376444 100.540044 26.4300889 100.739822 26.3243111 100.242489 25.5814222 99.9947111 25.5814222 99.7353778 25.5889778 99.4887111 25.5785333L97.6758222 25.5980889C97.2300444 25.6900889 97.3307111 25.7152 97.2427111 25.9225333L97.0760444 28.9978667C97.0760444 29.3523111 97.1593778 28.9878667 97.2156 29.3534222 97.2904889 29.8398667 97.1593778 29.3292 97.1593778 29.7478667L97.1593778 34.2476444C97.1593778 34.6943111 97.1900444 34.3396444 97.2496 34.5836444 97.3418222 34.9603111 97.1916 34.7756444 97.1251556 35.1067556L97.2109333 37.4285333C97.2222667 37.5634222 97.2189333 37.5534222 97.2100444 37.6409778L97.1724889 40.4972C97.1140444 41.2394222 97.2873778 40.8167556 97.2084889 41.2303111 97.0907111 41.8474222 97.2847111 41.5018667 97.3260444 41.9969778 97.1933778 42.0627556 97.4791556 42.0823111 97.0760444 41.9969778 97.0760444 42.7485333 97.1796 43.0274222 97.0978222 43.6914222L97.0898222 44.4303111C97.0456 45.0076444 97.0207111 45.8765333 97.1680444 46.3825333 97.2624889 46.7072 97.2562667 46.8298667 98.4093778 46.8298667L99.7282667 46.7636444C99.9667111 46.7445333 99.8836 46.6725333 100.186044 46.7147556 100.320711 46.7336444 100.315156 46.8243111 100.575822 46.8298667M4.25724444 53.6549778C3.85635556 53.6549778 3.52835556 53.9832 3.52835556 54.3840889L3.52835556 59.0714222C3.52835556 59.4725333 3.85635556 59.8005333 4.25724444 59.8005333 4.65835556 59.8005333 4.98635556 59.4725333 4.98635556 59.0714222L4.98635556 54.3840889C4.98635556 53.9832 4.65835556 53.6549778 4.25724444 53.6549778M4.25724444 52.3634222 4.25724444 52.3634222C5.38013333 52.3634222 6.29902222 53.2820889 6.29902222 54.4049778L6.29902222 59.0505333C6.29902222 60.1734222 5.38013333 61.0920889 4.25724444 61.0920889 3.13435556 61.0920889 2.21568889 60.1734222 2.21568889 59.0505333L2.21568889 54.4049778C2.21568889 53.2820889 3.13435556 52.3634222 4.25724444 52.3634222"/><polygon points="7.486 52.415 7.694 52.415 8.778 52.415 8.986 52.415 10.653 57.972 10.653 52.415 11.944 52.415 11.944 60.977 11.895 60.977 10.653 60.977 10.603 60.977 8.778 55.604 8.778 60.977 7.486 60.977"/><path d="M15.6593778,57.1389111 L15.1362667,57.1389111 L15.1362667,57.2735778 L15.1362667,59.5875778 L15.1362667,59.7222444 L15.6593778,59.7222444 L15.6596,59.7222444 L15.7140444,59.7222444 L15.7140444,59.7206889 C16.2891556,59.6920222 16.7504889,59.2129111 16.7504889,58.6311333 L16.7504889,58.2300222 C16.7504889,57.6482444 16.2891556,57.1691333 15.7140444,57.1404667 L15.7140444,57.1389111 L15.6596,57.1389111 L15.6593778,57.1389111 Z M15.6100444,53.7200222 L15.1518222,53.7200222 L15.1518222,53.8380222 L15.1518222,55.8644667 L15.1518222,55.9822444 L15.6100444,55.9822444 L15.6580444,55.9822444 L15.6580444,55.9809111 C16.1616,55.9560222 16.5656,55.5362444 16.5656,55.0266889 L16.5656,54.6755778 C16.5656,54.1660222 16.1616,53.7462444 15.6580444,53.7213556 L15.6580444,53.7200222 L15.6100444,53.7200222 Z M13.7982667,52.4153556 L15.1313778,52.4153556 L15.8864889,52.4153556 L16.0840444,52.4153556 L16.0840444,52.4249111 C17.1409333,52.5253556 17.9747111,53.4218 17.9747111,54.5038 L17.9747111,54.8111333 C17.9747111,55.5138 17.6233778,56.1378 17.0876,56.5166889 C17.7289333,56.8929111 18.1622667,57.5895778 18.1622667,58.3829111 L18.1622667,58.8240222 C18.1622667,60.0126889 17.1898222,60.9851333 16.0009333,60.9851333 C15.9393778,60.9851333 15.8782667,60.9824667 15.8178222,60.9773556 L15.1313778,60.9773556 L13.7982667,60.9773556 L13.7982667,59.7013556 L13.7982667,54.8111333 L13.7982667,54.5038 L13.7982667,53.9102444 L13.7982667,52.4153556 Z M23.3392889,54.8839333 L23.3392889,55.6548222 L23.3392889,59.0506 C23.3392889,60.1734889 22.4204,61.0921556 21.2975111,61.0921556 C20.1748444,61.0921556 19.2561778,60.1734889 19.2561778,59.0506 L19.2561778,55.6548222 L19.2561778,54.8839333 L19.2561778,52.4154889 L20.5675111,52.4154889 L20.5675111,54.8839333 L20.5686222,54.8839333 L20.5686222,59.0714889 C20.5686222,59.4723778 20.8968444,59.8006 21.2975111,59.8006 C21.6986222,59.8006 22.0268444,59.4723778 22.0268444,59.0714889 L22.0268444,54.8839333 L22.0279556,54.8839333 L22.0279556,52.4154889 L23.3392889,52.4154889 L23.3392889,54.8839333 Z M26.5877556,53.7433111 L25.8168667,53.7433111 L25.8168667,54.5142 L25.8168667,58.9097556 L25.8168667,59.6804222 L26.5877556,59.6804222 C27.0115333,59.6804222 27.3584222,59.3335333 27.3584222,58.9097556 L27.3584222,54.5142 C27.3584222,54.0904222 27.0115333,53.7433111 26.5877556,53.7433111 L26.5877556,53.7433111 Z M24.5275333,52.4153111 L26.5482,52.4153111 L26.5564222,52.4153111 C27.6677556,52.4153111 28.5773111,53.3246444 28.5773111,54.4359778 L28.5773111,58.9306444 C28.5773111,60.0419778 27.6677556,60.9513111 26.5564222,60.9513111 L26.5482,60.9513111 C25.8677556,60.9513111 25.2217556,60.9719778 24.5275333,60.9719778 L24.5275333,60.9513111 L24.5275333,58.9306444 L24.5275333,54.4359778 L24.5275333,52.4153111 Z M31.7552889,52.3635333 L31.7552889,52.3635333 C32.8781778,52.3635333 33.7968444,53.2822 33.7968444,54.4050889 L33.7968444,55.3368667 L32.4844,55.3368667 L32.4844,54.3842 C32.4844,53.9830889 32.1564,53.6550889 31.7552889,53.6550889 C31.3541778,53.6550889 31.0261778,53.9830889 31.0261778,54.3842 L31.0261778,59.0715333 C31.0261778,59.4724222 31.3541778,59.8006444 31.7552889,59.8006444 C32.1564,59.8006444 32.4844,59.4724222 32.4844,59.0715333 L32.4844,57.3473111 L31.7432889,57.3473111 L31.7432889,56.0348667 L32.4844,56.0348667 L33.2432889,56.0348667 L33.7968444,56.0348667 L33.7968444,59.0506444 C33.7968444,60.1735333 32.8781778,61.0919778 31.7552889,61.0919778 C30.6324,61.0919778 29.7137333,60.1735333 29.7137333,59.0506444 L29.7137333,54.4050889 C29.7137333,53.2822 30.6324,52.3635333 31.7552889,52.3635333"/><polygon points="34.983 52.389 36.274 52.389 38.649 52.389 38.649 53.702 36.274 53.702 36.274 56.014 38.024 56.014 38.024 57.326 36.274 57.326 36.274 59.638 38.649 59.638 38.649 60.951 36.274 60.951 34.983 60.951 34.983 59.638 34.983 57.326 34.983 56.014 34.983 53.702"/><polygon points="43.649 53.701 42.253 53.701 42.253 60.951 40.961 60.951 40.961 53.701 39.545 53.701 39.545 52.389 43.649 52.389"/><polygon points="44.492 59.67 45.794 59.67 45.794 60.941 45.398 61.93 44.804 61.93 45.219 60.941 44.492 60.941"/><path d="M49.7075556,53.6549778 C49.3064444,53.6549778 48.9784444,53.9832 48.9784444,54.3840889 L48.9784444,59.0714222 C48.9784444,59.4725333 49.3064444,59.8005333 49.7075556,59.8005333 C50.1086667,59.8005333 50.4366667,59.4725333 50.4366667,59.0714222 L50.4366667,54.3840889 C50.4366667,53.9832 50.1086667,53.6549778 49.7075556,53.6549778 M49.7075556,52.3634222 L49.7075556,52.3634222 C50.8304444,52.3634222 51.7493333,53.2820889 51.7493333,54.4049778 L51.7493333,59.0505333 C51.7493333,60.1734222 50.8304444,61.0920889 49.7075556,61.0920889 C48.5846667,61.0920889 47.666,60.1734222 47.666,59.0505333 L47.666,54.4049778 C47.666,53.2820889 48.5846667,52.3634222 49.7075556,52.3634222"/><polygon points="52.936 52.415 53.145 52.415 54.228 52.415 54.436 52.415 56.103 57.972 56.103 52.415 57.394 52.415 57.394 60.977 57.345 60.977 56.103 60.977 56.053 60.977 54.228 55.604 54.228 60.977 52.936 60.977"/><polygon points="63.29 53.701 61.894 53.701 61.894 60.951 60.602 60.951 60.602 53.701 59.186 53.701 59.186 52.389 63.29 52.389"/><polygon points="74 52.389 75.291 52.389 77.666 52.389 77.666 53.702 75.291 53.702 75.291 56.014 77.041 56.014 77.041 57.326 75.291 57.326 75.291 59.638 77.666 59.638 77.666 60.951 75.291 60.951 74 60.951 74 59.638 74 57.326 74 56.014 74 53.702"/><polygon points="64.334 60.951 65.625 60.951 65.625 52.389 64.334 52.389"/><polygon points="66.834 52.389 67.417 52.389 68.125 52.389 68.709 52.389 69.869 58.37 71.006 52.389 71.5 52.389 72.298 52.389 72.792 52.389 72.792 60.951 71.5 60.951 71.5 55.514 70.392 60.951 69.361 60.951 68.125 55.509 68.125 60.951 66.834 60.951"/><polygon points="78.565 59.67 79.867 59.67 79.867 60.941 79.471 61.93 78.877 61.93 79.292 60.941 78.565 60.941"/><polygon points="82.666 52.389 83.957 52.389 86.332 52.389 86.332 53.702 83.957 53.702 83.957 56.014 85.707 56.014 85.707 57.326 83.957 57.326 83.957 59.638 86.332 59.638 86.332 60.951 83.957 60.951 82.666 60.951 82.666 59.638 82.666 57.326 82.666 56.014 82.666 53.702"/><polygon points="93.207 52.389 94.498 52.389 96.873 52.389 96.873 53.702 94.498 53.702 94.498 56.014 96.248 56.014 96.248 57.326 94.498 57.326 94.498 59.638 96.873 59.638 96.873 60.951 94.498 60.951 93.207 60.951 93.207 59.638 93.207 57.326 93.207 56.014 93.207 53.702"/><polygon points="113.231 53.701 111.836 53.701 111.836 60.951 110.544 60.951 110.544 53.701 109.127 53.701 109.127 52.389 113.231 52.389"/><polygon points="123.941 52.389 125.233 52.389 127.608 52.389 127.608 53.702 125.233 53.702 125.233 56.014 126.983 56.014 126.983 57.326 125.233 57.326 125.233 59.638 127.608 59.638 127.608 60.951 125.233 60.951 123.941 60.951 123.941 59.638 123.941 57.326 123.941 56.014 123.941 53.702"/><polygon points="114.276 60.951 115.567 60.951 115.567 52.389 114.276 52.389"/><polygon points="116.775 52.389 117.359 52.389 118.067 52.389 118.65 52.389 119.811 58.37 120.948 52.389 121.441 52.389 122.239 52.389 122.733 52.389 122.733 60.951 121.441 60.951 121.441 55.514 120.333 60.951 119.302 60.951 118.067 55.509 118.067 60.951 116.775 60.951"/><polygon points="87.236 52.389 88.632 52.389 89.701 58.906 90.726 52.389 92.122 52.389 90.56 60.951 90.26 60.951 89.164 60.951 88.864 60.951"/><path d="M99.8384222,53.7111778 L99.1095333,53.7111778 L99.1095333,54.4402889 L99.1095333,55.7320667 L99.1095333,56.4611778 L99.8384222,56.4611778 L99.8644222,56.4611778 L99.8906444,56.4611778 C100.291533,56.4611778 100.619756,56.1329556 100.619756,55.7320667 L100.619756,54.4402889 C100.619756,54.0394 100.291533,53.7111778 99.8906444,53.7111778 L99.8644222,53.7111778 L99.8384222,53.7111778 Z M97.7866444,52.3885111 L99.1199778,52.3885111 L99.6406444,52.3885111 L100.015756,52.3885111 C101.035533,52.3885111 101.869756,53.2229556 101.869756,54.2427333 L101.869756,55.8258444 C101.869756,56.4098444 101.595978,56.9327333 101.170867,57.2731778 L102.077978,60.9502889 L100.786422,60.9502889 L99.9795333,57.6798444 L99.6406444,57.6798444 L99.1199778,57.6798444 L99.1199778,60.9502889 L97.7866444,60.9502889 L97.7866444,57.6798444 L97.7866444,55.8258444 L97.7866444,54.2427333 L97.7866444,52.3885111 Z"/><polygon points="104.234 60.929 105.484 60.929 105.484 57.388 107.318 52.409 105.818 52.409 104.89 55.415 103.942 52.409 102.442 52.409 104.234 57.306"/></g></svg>