<svg xmlns="http://www.w3.org/2000/svg" width="346" height="69" viewBox="0 0 346 69"><g fill="#FFF" transform="translate(.462 .137)"><g transform="rotate(90 18.506 18.506)"><polygon points="7.629 37.011 10.209 37.011 10.209 0 7.629 0"/><polygon points="7.629 2.49 29.38 2.49 29.38 0 7.629 0"/><polygon points="7.629 37.011 29.38 37.011 29.38 34.203 7.629 34.203"/><polygon points="7.629 19.847 29.38 19.847 29.38 17.163 7.629 17.163"/><polygon points="0 29.381 37.01 29.381 37.01 26.802 0 26.802"/><polygon points="0 29.381 2.49 29.381 2.49 7.629 0 7.629"/><polygon points="34.202 29.381 37.01 29.381 37.01 7.629 34.202 7.629"/><polygon points="17.162 29.381 19.846 29.381 19.846 7.629 17.162 7.629"/></g><g transform="translate(48.327 43.69)"><g transform="translate(0 4.492)"><polygon points="0 .337 0 20.293 12.396 20.293 12.396 17.173 3.626 17.173 3.626 11.805 10.344 11.805 10.344 8.685 3.626 8.685 3.626 3.457 11.945 3.457 11.945 .337"/><polygon points="16.16 .337 16.16 20.293 28.415 20.293 28.415 17.173 19.786 17.173 19.786 .337"/><polygon points="31.308 .337 31.308 20.293 43.564 20.293 43.564 17.173 34.934 17.173 34.934 .337"/><polygon points="46.457 20.293 50.082 20.293 50.082 .337 46.457 .337"/><path d="M64.079,17.313 C67.732,17.313 70.656,14.278 70.656,10.174 C70.656,6.239 67.732,3.316 64.079,3.316 C60.425,3.316 57.502,6.239 57.502,10.174 C57.502,14.278 60.425,17.313 64.079,17.313 M64.079,0 C69.953,0 74.393,4.468 74.393,10.174 C74.393,16.048 69.953,20.629 64.079,20.629 C58.204,20.629 53.764,16.048 53.764,10.174 C53.764,4.468 58.204,0 64.079,0"/><polygon points="82.037 3.457 75.489 3.457 75.489 .337 92.212 .337 92.212 3.457 85.663 3.457 85.663 20.293 82.037 20.293"/><polygon points="99.659 3.457 93.11 3.457 93.11 .337 109.834 .337 109.834 3.457 103.285 3.457 103.285 20.293 99.659 20.293"/></g><g transform="translate(117.982)"><path d="M11.607,2.0518 C11.607,2.0518 11.214,3.9058 10.848,5.1718 L6.689,20.0118 L5.171,20.0118 L0,0.3368 L1.264,0.3368 L5.424,16.3578 C5.677,17.3138 5.902,18.4658 5.902,18.4658 L5.958,18.4658 C5.986,18.4658 6.211,17.3418 6.492,16.3578 L10.989,0.3368 L12.338,0.3368 L16.836,16.3578 C17.117,17.3418 17.341,18.4658 17.37,18.4658 L17.425,18.4658 C17.425,18.4658 17.65,17.3138 17.903,16.3578 L22.204,0.3368 L23.468,0.3368 L18.157,20.0118 L16.638,20.0118 L12.479,5.1718 C12.114,3.9058 11.72,2.0518 11.72,2.0518 L11.664,2.0518 L11.607,2.0518 Z M36.1431,19.1963 C40.9491,19.1963 44.8281,15.2053 44.8281,10.0343 C44.8281,5.0033 40.9491,1.1523 36.1431,1.1523 C31.3361,1.1523 27.4571,5.0033 27.4571,10.0343 C27.4571,15.2053 31.3361,19.1963 36.1431,19.1963 M36.1431,0.0003 C41.6231,0.0003 46.0921,4.3843 46.0921,10.0343 C46.0921,15.8243 41.6231,20.3483 36.1431,20.3483 C30.6631,20.3483 26.1931,15.8243 26.1931,10.0343 C26.1931,4.3843 30.6631,0.0003 36.1431,0.0003 M57.3336,10.1748 C59.9196,10.1748 61.5496,8.3198 61.5496,5.6498 C61.5496,3.9058 60.6786,2.5008 59.2446,1.8548 C58.6836,1.6018 58.0636,1.4608 56.4906,1.4608 L51.9936,1.4608 L51.9936,10.1748 L57.3336,10.1748 Z M50.7846,0.3368 L56.5466,0.3368 C58.3736,0.3368 59.3016,0.5338 60.0886,0.9278 C61.7186,1.7418 62.8136,3.4008 62.8136,5.6498 C62.8136,8.4598 61.1846,10.5688 58.8796,11.0738 L58.8796,11.1298 C58.8796,11.1298 59.0766,11.3548 59.3296,11.8328 L63.7416,20.0118 L62.3086,20.0118 L57.6436,11.2988 L51.9936,11.2988 L51.9936,20.0118 L50.7846,20.0118 L50.7846,0.3368 Z"/><polygon points="68.238 .337 69.446 .337 69.446 9.107 73.1 9.107 78.721 .337 80.183 .337 74.14 9.612 74.14 9.667 80.577 20.011 79.115 20.011 73.1 10.231 69.446 10.231 69.446 20.011 68.238 20.011"/><path d="M92.6617,0 C97.1017,0 99.5187,2.22 99.5187,2.22 L98.7887,3.147 C98.7887,3.147 96.4277,1.152 92.6617,1.152 C87.7147,1.152 84.1167,5.087 84.1167,10.175 C84.1167,15.29 87.6307,19.196 92.4927,19.196 C96.7087,19.196 99.2377,15.965 99.2377,15.965 L99.2377,12.17 L95.7247,12.17 L95.7247,11.046 L100.4467,11.046 L100.4467,20.012 L99.2377,20.012 L99.2377,18.297 C99.2377,17.876 99.2657,17.454 99.2657,17.454 L99.2107,17.454 C99.2107,17.454 96.8487,20.349 92.4927,20.349 C87.0127,20.349 82.8517,15.88 82.8517,10.175 C82.8517,4.497 87.0967,0 92.6617,0 M111.9967,10.1748 C114.5827,10.1748 116.2127,8.3198 116.2127,5.6498 C116.2127,3.9058 115.3417,2.5008 113.9077,1.8548 C113.3467,1.6018 112.7267,1.4608 111.1537,1.4608 L106.6567,1.4608 L106.6567,10.1748 L111.9967,10.1748 Z M105.4477,0.3368 L111.2097,0.3368 C113.0367,0.3368 113.9647,0.5338 114.7517,0.9278 C116.3817,1.7418 117.4767,3.4008 117.4767,5.6498 C117.4767,8.4598 115.8477,10.5688 113.5427,11.0738 L113.5427,11.1298 C113.5427,11.1298 113.7397,11.3548 113.9927,11.8328 L118.4047,20.0118 L116.9717,20.0118 L112.3067,11.2988 L106.6567,11.2988 L106.6567,20.0118 L105.4477,20.0118 L105.4477,0.3368 Z M131.4732,19.1963 C136.2802,19.1963 140.1592,15.2053 140.1592,10.0343 C140.1592,5.0033 136.2802,1.1523 131.4732,1.1523 C126.6672,1.1523 122.7882,5.0033 122.7882,10.0343 C122.7882,15.2053 126.6672,19.1963 131.4732,19.1963 M131.4732,0.0003 C136.9542,0.0003 141.4232,4.3843 141.4232,10.0343 C141.4232,15.8243 136.9542,20.3483 131.4732,20.3483 C125.9932,20.3483 121.5242,15.8243 121.5242,10.0343 C121.5242,4.3843 125.9932,0.0003 131.4732,0.0003 M145.8345,0.3369 L147.0425,0.3369 L147.0425,13.2099 C147.0425,16.9199 149.4605,19.1959 153.1705,19.1959 C156.8805,19.1959 159.3255,16.9199 159.3255,13.1529 L159.3255,0.3369 L160.5335,0.3369 L160.5335,13.2659 C160.5335,17.5949 157.5265,20.3489 153.1975,20.3489 C148.8695,20.3489 145.8345,17.5949 145.8345,13.2659 L145.8345,0.3369 Z M172.731,10.7364 C175.597,10.7364 177.509,9.0224 177.509,6.0704 C177.509,3.1194 175.597,1.4614 172.731,1.4614 L167.531,1.4614 L167.531,10.7364 L172.731,10.7364 Z M166.323,0.3374 L172.787,0.3374 C176.216,0.3374 178.774,2.5014 178.774,6.0704 C178.774,9.6404 176.216,11.8604 172.787,11.8604 L167.531,11.8604 L167.531,20.0114 L166.323,20.0114 L166.323,0.3374 Z"/></g></g></g></svg>