<svg viewBox="0 0 49.65 49.65" role="img" arial-label="Instagram" xmlns="http://www.w3.org/2000/svg"><path d="m37.42 15.3a5.35 5.35 0 0 0 -3.07-3.07 8.94 8.94 0 0 0 -3-.56c-1.7-.08-2.21-.09-6.53-.09s-4.83 0-6.53.09a8.94 8.94 0 0 0 -3 .56 5.35 5.35 0 0 0 -3.07 3.07 8.94 8.94 0 0 0 -.56 3c-.08 1.7-.09 2.21-.09 6.53s0 4.83.09 6.53a8.94 8.94 0 0 0 .56 3 5.35 5.35 0 0 0 3.07 3.07 8.94 8.94 0 0 0 3 .56c1.7.08 2.21.09 6.53.09s4.83 0 6.53-.09a8.94 8.94 0 0 0 3-.56 5.35 5.35 0 0 0 3.07-3.07 8.94 8.94 0 0 0 .56-3c.08-1.7.09-2.21.09-6.53s0-4.83-.09-6.53a8.94 8.94 0 0 0 -.56-3zm-12.59 17.82a8.3 8.3 0 1 1 8.3-8.3 8.3 8.3 0 0 1 -8.3 8.3zm8.63-15a1.94 1.94 0 1 1 1.94-1.94 1.94 1.94 0 0 1 -1.95 1.96z"/><circle cx="24.83" cy="24.83" r="5.39"/><path d="m24.83 0a24.83 24.83 0 1 0 24.82 24.83 24.85 24.85 0 0 0 -24.82-24.83zm16.06 31.49a11.86 11.86 0 0 1 -.75 3.92 8.26 8.26 0 0 1 -4.73 4.73 11.86 11.86 0 0 1 -3.92.75c-1.73.11-2.28.11-6.66.11s-4.94 0-6.66-.1a11.86 11.86 0 0 1 -3.92-.75 8.26 8.26 0 0 1 -4.73-4.73 11.86 11.86 0 0 1 -.75-3.92c-.08-1.72-.1-2.27-.1-6.66s0-4.94.1-6.66a11.86 11.86 0 0 1 .75-3.92 8.26 8.26 0 0 1 4.73-4.73 11.86 11.86 0 0 1 3.92-.75c1.72-.08 2.27-.1 6.66-.1s4.94 0 6.66.1a11.86 11.86 0 0 1 3.92.75 8.26 8.26 0 0 1 4.73 4.73 11.86 11.86 0 0 1 .75 3.92c.08 1.72.1 2.27.1 6.66s.01 4.92-.1 6.65z"/></svg>