<svg viewBox="0 0 28.67 28.8" role="img" arial-label="Twitter" xmlns="http://www.w3.org/2000/svg"><path d="m20.62 11.26v.41a8.93 8.93 0 0 1 -13.76 7.57 6.3 6.3 0 0 0 4.65-1.31 3.15 3.15 0 0 1 -2.94-2.19 3.13 3.13 0 0 0 1.43-.06 3.15 3.15 0 0 1 -2.52-3.09 3.13 3.13 0 0 0 1.42.39 3.17 3.17 0 0 1 -1-4.22 8.9 8.9 0 0 0 6.51 3.24 3.16 3.16 0 0 1 3.06-3.88 3.13 3.13 0 0 1 2.29 1c.72-.12 2.34-.3 2.34-.3-.42.63-.86 2-1.48 2.44m-6.29-11.26a14.4 14.4 0 1 0 14.34 14.4 14.38 14.38 0 0 0 -14.34-14.4"/></svg>